<?xml version="1.0" encoding="UTF-8" standalone="no"?>
<!DOCTYPE svg PUBLIC "-//W3C//DTD SVG 1.1//EN"
 "http://www.w3.org/Graphics/SVG/1.1/DTD/svg11.dtd">
<!-- Generated by graphviz version 2.43.0 (0)
 -->
<!-- Title: InfoAPI_Defaults Pages: 1 -->
<svg width="2444pt" height="1393pt"
 viewBox="0.00 0.00 2444.01 1393.04" xmlns="http://www.w3.org/2000/svg" xmlns:xlink="http://www.w3.org/1999/xlink">
<g id="graph0" class="graph" transform="scale(1 1) rotate(0) translate(36 1357.04)">
<title>InfoAPI_Defaults</title>
<polygon fill="white" stroke="transparent" points="-36,36 -36,-1357.04 2408.01,-1357.04 2408.01,36 -36,36"/>
<!-- SOFe_InfoAPI_StringInfo -->
<g id="node1" class="node">
<title>SOFe_InfoAPI_StringInfo</title>
<polygon fill="none" stroke="black" points="604.75,-537.04 550.75,-537.04 550.75,-501.04 604.75,-501.04 604.75,-537.04"/>
<text text-anchor="middle" x="577.75" y="-515.34" font-family="Times,serif" font-size="14.00">text</text>
</g>
<!-- _anon_edge_0 -->
<g id="node6" class="node">
<title>_anon_edge_0</title>
<polygon fill="none" stroke="black" points="175.56,-596.42 -0.06,-578.42 175.56,-560.42 351.18,-578.42 175.56,-596.42"/>
<text text-anchor="middle" x="175.56" y="-574.72" font-family="Times,serif" font-size="14.00">infoapi.string.uppercase</text>
</g>
<!-- SOFe_InfoAPI_StringInfo&#45;&gt;_anon_edge_0 -->
<g id="edge1" class="edge">
<title>SOFe_InfoAPI_StringInfo&#45;&gt;_anon_edge_0</title>
<path fill="none" stroke="black" d="M550.63,-515.88C483.51,-517.95 308.95,-542.99 223.74,-561.96"/>
<polygon fill="black" stroke="black" points="222.77,-558.59 213.81,-564.24 224.34,-565.42 222.77,-558.59"/>
</g>
<!-- _anon_edge_1 -->
<g id="node7" class="node">
<title>_anon_edge_1</title>
<polygon fill="none" stroke="black" points="227.25,-331.82 54.64,-313.82 227.25,-295.82 399.85,-313.82 227.25,-331.82"/>
<text text-anchor="middle" x="227.25" y="-310.12" font-family="Times,serif" font-size="14.00">infoapi.string.lowercase</text>
</g>
<!-- SOFe_InfoAPI_StringInfo&#45;&gt;_anon_edge_1 -->
<g id="edge3" class="edge">
<title>SOFe_InfoAPI_StringInfo&#45;&gt;_anon_edge_1</title>
<path fill="none" stroke="black" d="M560.32,-500.93C508.81,-461.58 357,-371.69 277.27,-332.2"/>
<polygon fill="black" stroke="black" points="278.44,-328.87 267.92,-327.64 275.37,-335.16 278.44,-328.87"/>
</g>
<!-- SOFe_InfoAPI_NumberInfo -->
<g id="node2" class="node">
<title>SOFe_InfoAPI_NumberInfo</title>
<polygon fill="none" stroke="black" points="1674.73,-761.04 1602.73,-761.04 1602.73,-725.04 1674.73,-725.04 1674.73,-761.04"/>
<text text-anchor="middle" x="1638.73" y="-739.34" font-family="Times,serif" font-size="14.00">number</text>
</g>
<!-- _anon_edge_2 -->
<g id="node8" class="node">
<title>_anon_edge_2</title>
<polygon fill="none" stroke="black" points="1023.84,-697.93 807.84,-679.93 1023.84,-661.93 1239.84,-679.93 1023.84,-697.93"/>
<text text-anchor="middle" x="1023.84" y="-676.23" font-family="Times,serif" font-size="14.00">infoapi.number.english.ordinal</text>
</g>
<!-- SOFe_InfoAPI_NumberInfo&#45;&gt;_anon_edge_2 -->
<g id="edge5" class="edge">
<title>SOFe_InfoAPI_NumberInfo&#45;&gt;_anon_edge_2</title>
<path fill="none" stroke="black" d="M1602.56,-739.33C1511.81,-730.01 1271.66,-705.37 1130.87,-690.92"/>
<polygon fill="black" stroke="black" points="1131.21,-687.44 1120.91,-689.9 1130.5,-694.4 1131.21,-687.44"/>
</g>
<!-- _anon_edge_3 -->
<g id="node9" class="node">
<title>_anon_edge_3</title>
<polygon fill="none" stroke="black" points="1056.44,-557.64 888.02,-539.64 1056.44,-521.64 1224.85,-539.64 1056.44,-557.64"/>
<text text-anchor="middle" x="1056.44" y="-535.94" font-family="Times,serif" font-size="14.00">infoapi.number.percent</text>
</g>
<!-- SOFe_InfoAPI_NumberInfo&#45;&gt;_anon_edge_3 -->
<g id="edge7" class="edge">
<title>SOFe_InfoAPI_NumberInfo&#45;&gt;_anon_edge_3</title>
<path fill="none" stroke="black" d="M1602.31,-730.32C1501.78,-695.2 1220.37,-596.91 1105.85,-556.9"/>
<polygon fill="black" stroke="black" points="1106.87,-553.55 1096.27,-553.56 1104.56,-560.16 1106.87,-553.55"/>
</g>
<!-- SOFe_InfoAPI_RatioInfo -->
<g id="node3" class="node">
<title>SOFe_InfoAPI_RatioInfo</title>
<polygon fill="none" stroke="black" points="1523.79,-1321.04 1431.79,-1321.04 1431.79,-1285.04 1523.79,-1285.04 1523.79,-1321.04"/>
<text text-anchor="middle" x="1477.79" y="-1299.34" font-family="Times,serif" font-size="14.00">proportion</text>
</g>
<!-- _anon_edge_4 -->
<g id="node10" class="node">
<title>_anon_edge_4</title>
<polygon fill="none" stroke="black" points="1673.3,-1300.08 1525.33,-1282.08 1673.3,-1264.08 1821.27,-1282.08 1673.3,-1300.08"/>
<text text-anchor="middle" x="1673.3" y="-1278.38" font-family="Times,serif" font-size="14.00">infoapi.ratio.current</text>
</g>
<!-- SOFe_InfoAPI_RatioInfo&#45;&gt;_anon_edge_4 -->
<g id="edge9" class="edge">
<title>SOFe_InfoAPI_RatioInfo&#45;&gt;_anon_edge_4</title>
<path fill="none" stroke="black" d="M1524.12,-1298.07C1542.17,-1296.14 1563.49,-1293.85 1584.28,-1291.62"/>
<polygon fill="black" stroke="black" points="1584.86,-1295.08 1594.43,-1290.53 1584.11,-1288.12 1584.86,-1295.08"/>
</g>
<!-- _anon_edge_5 -->
<g id="node11" class="node">
<title>_anon_edge_5</title>
<polygon fill="none" stroke="black" points="1464.37,-1064.07 1337.68,-1046.07 1464.37,-1028.07 1591.06,-1046.07 1464.37,-1064.07"/>
<text text-anchor="middle" x="1464.37" y="-1042.37" font-family="Times,serif" font-size="14.00">infoapi.ratio.max</text>
</g>
<!-- SOFe_InfoAPI_RatioInfo&#45;&gt;_anon_edge_5 -->
<g id="edge11" class="edge">
<title>SOFe_InfoAPI_RatioInfo&#45;&gt;_anon_edge_5</title>
<path fill="none" stroke="black" d="M1476.85,-1284.97C1474.54,-1240.83 1468.61,-1127.26 1465.84,-1074.18"/>
<polygon fill="black" stroke="black" points="1469.33,-1073.92 1465.31,-1064.12 1462.34,-1074.29 1469.33,-1073.92"/>
</g>
<!-- _anon_edge_6 -->
<g id="node12" class="node">
<title>_anon_edge_6</title>
<polygon fill="none" stroke="black" points="1622.82,-1130.52 1456.58,-1112.52 1622.82,-1094.52 1789.05,-1112.52 1622.82,-1130.52"/>
<text text-anchor="middle" x="1622.82" y="-1108.82" font-family="Times,serif" font-size="14.00">infoapi.ratio.remaining</text>
</g>
<!-- SOFe_InfoAPI_RatioInfo&#45;&gt;_anon_edge_6 -->
<g id="edge13" class="edge">
<title>SOFe_InfoAPI_RatioInfo&#45;&gt;_anon_edge_6</title>
<path fill="none" stroke="black" d="M1491.7,-1284.77C1517.8,-1250.48 1574.16,-1176.44 1603.77,-1137.55"/>
<polygon fill="black" stroke="black" points="1606.73,-1139.43 1610,-1129.36 1601.16,-1135.19 1606.73,-1139.43"/>
</g>
<!-- _anon_edge_7 -->
<g id="node13" class="node">
<title>_anon_edge_7</title>
<polygon fill="none" stroke="black" points="1788.27,-1203.91 1649.68,-1185.91 1788.27,-1167.91 1926.85,-1185.91 1788.27,-1203.91"/>
<text text-anchor="middle" x="1788.27" y="-1182.21" font-family="Times,serif" font-size="14.00">infoapi.ratio.invert</text>
</g>
<!-- SOFe_InfoAPI_RatioInfo&#45;&gt;_anon_edge_7 -->
<g id="edge15" class="edge">
<title>SOFe_InfoAPI_RatioInfo&#45;&gt;_anon_edge_7</title>
<path fill="none" stroke="black" d="M1523.94,-1285.63C1582.98,-1263.36 1684.61,-1225.02 1743.15,-1202.93"/>
<polygon fill="black" stroke="black" points="1744.39,-1206.21 1752.51,-1199.4 1741.92,-1199.66 1744.39,-1206.21"/>
</g>
<!-- _anon_edge_8 -->
<g id="node14" class="node">
<title>_anon_edge_8</title>
<polygon fill="none" stroke="black" points="1328.81,-1185.54 1205.47,-1167.54 1328.81,-1149.54 1452.14,-1167.54 1328.81,-1185.54"/>
<text text-anchor="middle" x="1328.81" y="-1163.84" font-family="Times,serif" font-size="14.00">infoapi.ratio.lost</text>
</g>
<!-- SOFe_InfoAPI_RatioInfo&#45;&gt;_anon_edge_8 -->
<g id="edge17" class="edge">
<title>SOFe_InfoAPI_RatioInfo&#45;&gt;_anon_edge_8</title>
<path fill="none" stroke="black" d="M1457.7,-1284.76C1430.84,-1260.33 1383.22,-1217.03 1353.99,-1190.45"/>
<polygon fill="black" stroke="black" points="1356.02,-1187.56 1346.27,-1183.42 1351.31,-1192.74 1356.02,-1187.56"/>
</g>
<!-- _anon_edge_9 -->
<g id="node15" class="node">
<title>_anon_edge_9</title>
<polygon fill="none" stroke="black" points="1300.95,-1029.04 1224.87,-1011.04 1300.95,-993.04 1377.03,-1011.04 1300.95,-1029.04"/>
<text text-anchor="middle" x="1300.95" y="-1007.34" font-family="Times,serif" font-size="14.00">(fallback)</text>
</g>
<!-- SOFe_InfoAPI_RatioInfo&#45;&gt;_anon_edge_9 -->
<g id="edge19" class="edge">
<title>SOFe_InfoAPI_RatioInfo&#45;&gt;_anon_edge_9</title>
<path fill="none" stroke="black" d="M1466.73,-1284.77C1436.22,-1234.39 1350.82,-1093.39 1316.01,-1035.91"/>
<polygon fill="black" stroke="black" points="1318.86,-1033.86 1310.68,-1027.12 1312.87,-1037.48 1318.86,-1033.86"/>
</g>
<!-- SOFe_InfoAPI_PositionInfo -->
<g id="node4" class="node">
<title>SOFe_InfoAPI_PositionInfo</title>
<polygon fill="none" stroke="black" points="1857.55,-36 1783.55,-36 1783.55,0 1857.55,0 1857.55,-36"/>
<text text-anchor="middle" x="1820.55" y="-14.3" font-family="Times,serif" font-size="14.00">position</text>
</g>
<!-- _anon_edge_10 -->
<g id="node16" class="node">
<title>_anon_edge_10</title>
<polygon fill="none" stroke="black" points="1607.12,-336.62 1478.26,-318.62 1607.12,-300.62 1735.99,-318.62 1607.12,-336.62"/>
<text text-anchor="middle" x="1607.12" y="-314.92" font-family="Times,serif" font-size="14.00">infoapi.position.x</text>
</g>
<!-- SOFe_InfoAPI_PositionInfo&#45;&gt;_anon_edge_10 -->
<g id="edge21" class="edge">
<title>SOFe_InfoAPI_PositionInfo&#45;&gt;_anon_edge_10</title>
<path fill="none" stroke="black" d="M1807.52,-36.35C1770.85,-88.01 1666.71,-234.69 1624.86,-293.64"/>
<polygon fill="black" stroke="black" points="1621.86,-291.82 1618.92,-302 1627.56,-295.87 1621.86,-291.82"/>
</g>
<!-- _anon_edge_11 -->
<g id="node17" class="node">
<title>_anon_edge_11</title>
<polygon fill="none" stroke="black" points="1537.65,-227.11 1408.79,-209.11 1537.65,-191.11 1666.52,-209.11 1537.65,-227.11"/>
<text text-anchor="middle" x="1537.65" y="-205.41" font-family="Times,serif" font-size="14.00">infoapi.position.y</text>
</g>
<!-- SOFe_InfoAPI_PositionInfo&#45;&gt;_anon_edge_11 -->
<g id="edge23" class="edge">
<title>SOFe_InfoAPI_PositionInfo&#45;&gt;_anon_edge_11</title>
<path fill="none" stroke="black" d="M1793.68,-36.15C1740.92,-71.79 1624.08,-150.73 1568.36,-188.36"/>
<polygon fill="black" stroke="black" points="1566.29,-185.54 1559.97,-194.04 1570.21,-191.34 1566.29,-185.54"/>
</g>
<!-- _anon_edge_12 -->
<g id="node18" class="node">
<title>_anon_edge_12</title>
<polygon fill="none" stroke="black" points="1753,-280.97 1625.47,-262.97 1753,-244.97 1880.52,-262.97 1753,-280.97"/>
<text text-anchor="middle" x="1753" y="-259.27" font-family="Times,serif" font-size="14.00">infoapi.position.z</text>
</g>
<!-- SOFe_InfoAPI_PositionInfo&#45;&gt;_anon_edge_12 -->
<g id="edge25" class="edge">
<title>SOFe_InfoAPI_PositionInfo&#45;&gt;_anon_edge_12</title>
<path fill="none" stroke="black" d="M1815.59,-36.01C1803.87,-78.51 1774.43,-185.25 1760.51,-235.72"/>
<polygon fill="black" stroke="black" points="1757.07,-235.02 1757.79,-245.59 1763.82,-236.88 1757.07,-235.02"/>
</g>
<!-- _anon_edge_13 -->
<g id="node19" class="node">
<title>_anon_edge_13</title>
<polygon fill="none" stroke="black" points="2213.92,-74.99 2055.72,-56.99 2213.92,-38.99 2372.11,-56.99 2213.92,-74.99"/>
<text text-anchor="middle" x="2213.92" y="-53.29" font-family="Times,serif" font-size="14.00">infoapi.position.world</text>
</g>
<!-- SOFe_InfoAPI_PositionInfo&#45;&gt;_anon_edge_13 -->
<g id="edge27" class="edge">
<title>SOFe_InfoAPI_PositionInfo&#45;&gt;_anon_edge_13</title>
<path fill="none" stroke="black" d="M1857.56,-21.67C1916.92,-27.55 2035.27,-39.28 2119.27,-47.61"/>
<polygon fill="black" stroke="black" points="2119.05,-51.11 2129.34,-48.61 2119.74,-44.14 2119.05,-51.11"/>
</g>
<!-- SOFe_InfoAPI_WorldInfo -->
<g id="node5" class="node">
<title>SOFe_InfoAPI_WorldInfo</title>
<polygon fill="none" stroke="black" points="2229.62,-519.68 2172.62,-519.68 2172.62,-483.68 2229.62,-483.68 2229.62,-519.68"/>
<text text-anchor="middle" x="2201.12" y="-497.98" font-family="Times,serif" font-size="14.00">world</text>
</g>
<!-- _anon_edge_14 -->
<g id="node20" class="node">
<title>_anon_edge_14</title>
<polygon fill="none" stroke="black" points="2190.25,-756.83 2048.65,-738.83 2190.25,-720.83 2331.85,-738.83 2190.25,-756.83"/>
<text text-anchor="middle" x="2190.25" y="-735.13" font-family="Times,serif" font-size="14.00">infoapi.world.name</text>
</g>
<!-- SOFe_InfoAPI_WorldInfo&#45;&gt;_anon_edge_14 -->
<g id="edge29" class="edge">
<title>SOFe_InfoAPI_WorldInfo&#45;&gt;_anon_edge_14</title>
<path fill="none" stroke="black" d="M2200.29,-519.9C2198.4,-561.04 2193.8,-661.38 2191.55,-710.63"/>
<polygon fill="black" stroke="black" points="2188.04,-710.72 2191.08,-720.87 2195.03,-711.04 2188.04,-710.72"/>
</g>
<!-- _anon_edge_15 -->
<g id="node21" class="node">
<title>_anon_edge_15</title>
<polygon fill="none" stroke="black" points="2114.22,-889.15 1931.4,-871.15 2114.22,-853.15 2297.04,-871.15 2114.22,-889.15"/>
<text text-anchor="middle" x="2114.22" y="-867.45" font-family="Times,serif" font-size="14.00">infoapi.world.folderName</text>
</g>
<!-- SOFe_InfoAPI_WorldInfo&#45;&gt;_anon_edge_15 -->
<g id="edge31" class="edge">
<title>SOFe_InfoAPI_WorldInfo&#45;&gt;_anon_edge_15</title>
<path fill="none" stroke="black" d="M2196.87,-519.75C2182.8,-579.56 2137.69,-771.36 2120.74,-843.43"/>
<polygon fill="black" stroke="black" points="2117.24,-843.01 2118.36,-853.55 2124.06,-844.61 2117.24,-843.01"/>
</g>
<!-- _anon_edge_16 -->
<g id="node22" class="node">
<title>_anon_edge_16</title>
<polygon fill="none" stroke="black" points="2053.01,-638.82 1860.8,-620.82 2053.01,-602.82 2245.22,-620.82 2053.01,-638.82"/>
<text text-anchor="middle" x="2053.01" y="-617.12" font-family="Times,serif" font-size="14.00">infoapi.world.customName</text>
</g>
<!-- SOFe_InfoAPI_WorldInfo&#45;&gt;_anon_edge_16 -->
<g id="edge33" class="edge">
<title>SOFe_InfoAPI_WorldInfo&#45;&gt;_anon_edge_16</title>
<path fill="none" stroke="black" d="M2178.62,-519.78C2152.55,-540.75 2109.55,-575.34 2081.25,-598.1"/>
<polygon fill="black" stroke="black" points="2078.93,-595.48 2073.33,-604.47 2083.31,-600.93 2078.93,-595.48"/>
</g>
<!-- _anon_edge_17 -->
<g id="node23" class="node">
<title>_anon_edge_17</title>
<polygon fill="none" stroke="black" points="1987.2,-792.92 1795.83,-774.92 1987.2,-756.92 2178.57,-774.92 1987.2,-792.92"/>
<text text-anchor="middle" x="1987.2" y="-771.22" font-family="Times,serif" font-size="14.00">infoapi.world.displayName</text>
</g>
<!-- SOFe_InfoAPI_WorldInfo&#45;&gt;_anon_edge_17 -->
<g id="edge35" class="edge">
<title>SOFe_InfoAPI_WorldInfo&#45;&gt;_anon_edge_17</title>
<path fill="none" stroke="black" d="M2186.75,-520.03C2149.4,-567.74 2049.23,-695.69 2006.71,-750"/>
<polygon fill="black" stroke="black" points="2003.81,-748.02 2000.4,-758.06 2009.32,-752.34 2003.81,-748.02"/>
</g>
<!-- _anon_edge_18 -->
<g id="node24" class="node">
<title>_anon_edge_18</title>
<polygon fill="none" stroke="black" points="1988.86,-429.31 1853.62,-411.31 1988.86,-393.31 2124.09,-411.31 1988.86,-429.31"/>
<text text-anchor="middle" x="1988.86" y="-407.61" font-family="Times,serif" font-size="14.00">infoapi.world.time</text>
</g>
<!-- SOFe_InfoAPI_WorldInfo&#45;&gt;_anon_edge_18 -->
<g id="edge37" class="edge">
<title>SOFe_InfoAPI_WorldInfo&#45;&gt;_anon_edge_18</title>
<path fill="none" stroke="black" d="M2172.49,-489.49C2135.96,-473.94 2072.48,-446.91 2030.57,-429.07"/>
<polygon fill="black" stroke="black" points="2031.76,-425.77 2021.19,-425.07 2029.02,-432.21 2031.76,-425.77"/>
</g>
<!-- _anon_edge_19 -->
<g id="node25" class="node">
<title>_anon_edge_19</title>
<polygon fill="none" stroke="black" points="1893.94,-564.86 1757.87,-546.86 1893.94,-528.86 2030.01,-546.86 1893.94,-564.86"/>
<text text-anchor="middle" x="1893.94" y="-543.16" font-family="Times,serif" font-size="14.00">infoapi.world.seed</text>
</g>
<!-- SOFe_InfoAPI_WorldInfo&#45;&gt;_anon_edge_19 -->
<g id="edge39" class="edge">
<title>SOFe_InfoAPI_WorldInfo&#45;&gt;_anon_edge_19</title>
<path fill="none" stroke="black" d="M2172.5,-505.89C2126.38,-512.67 2034.18,-526.23 1968.49,-535.89"/>
<polygon fill="black" stroke="black" points="1967.98,-532.43 1958.59,-537.35 1969,-539.36 1967.98,-532.43"/>
</g>
<!-- _anon_edge_0&#45;&gt;SOFe_InfoAPI_StringInfo -->
<g id="edge2" class="edge">
<title>_anon_edge_0&#45;&gt;SOFe_InfoAPI_StringInfo</title>
<path fill="none" stroke="black" d="M298.05,-572.96C381.41,-562.87 486.15,-546.01 540.76,-532.91"/>
<polygon fill="black" stroke="black" points="541.83,-536.26 550.68,-530.43 540.13,-529.47 541.83,-536.26"/>
</g>
<!-- _anon_edge_1&#45;&gt;SOFe_InfoAPI_StringInfo -->
<g id="edge4" class="edge">
<title>_anon_edge_1&#45;&gt;SOFe_InfoAPI_StringInfo</title>
<path fill="none" stroke="black" d="M242.79,-330.48C295.39,-371.37 466.15,-471.99 541.56,-507.35"/>
<polygon fill="black" stroke="black" points="540.15,-510.55 550.7,-511.52 543.06,-504.18 540.15,-510.55"/>
</g>
<!-- _anon_edge_2&#45;&gt;SOFe_InfoAPI_StringInfo -->
<g id="edge6" class="edge">
<title>_anon_edge_2&#45;&gt;SOFe_InfoAPI_StringInfo</title>
<path fill="none" stroke="black" d="M983.07,-665.23C896.78,-634.11 696.85,-562 614.36,-532.24"/>
<polygon fill="black" stroke="black" points="615.49,-528.93 604.9,-528.83 613.12,-535.52 615.49,-528.93"/>
</g>
<!-- _anon_edge_3&#45;&gt;SOFe_InfoAPI_StringInfo -->
<g id="edge8" class="edge">
<title>_anon_edge_3&#45;&gt;SOFe_InfoAPI_StringInfo</title>
<path fill="none" stroke="black" d="M936.26,-534.47C830.58,-529.92 683.29,-523.58 615.11,-520.65"/>
<polygon fill="black" stroke="black" points="615.01,-517.14 604.87,-520.21 614.71,-524.13 615.01,-517.14"/>
</g>
<!-- _anon_edge_4&#45;&gt;SOFe_InfoAPI_NumberInfo -->
<g id="edge10" class="edge">
<title>_anon_edge_4&#45;&gt;SOFe_InfoAPI_NumberInfo</title>
<path fill="none" stroke="black" d="M1672.15,-1264.14C1667.08,-1185.16 1646.74,-868.01 1640.54,-771.22"/>
<polygon fill="black" stroke="black" points="1644.02,-770.8 1639.89,-761.04 1637.03,-771.25 1644.02,-770.8"/>
</g>
<!-- _anon_edge_5&#45;&gt;SOFe_InfoAPI_NumberInfo -->
<g id="edge12" class="edge">
<title>_anon_edge_5&#45;&gt;SOFe_InfoAPI_NumberInfo</title>
<path fill="none" stroke="black" d="M1473.99,-1029.35C1502.72,-979.42 1588.03,-831.16 1623.25,-769.94"/>
<polygon fill="black" stroke="black" points="1626.31,-771.64 1628.27,-761.23 1620.24,-768.15 1626.31,-771.64"/>
</g>
<!-- _anon_edge_6&#45;&gt;SOFe_InfoAPI_NumberInfo -->
<g id="edge14" class="edge">
<title>_anon_edge_6&#45;&gt;SOFe_InfoAPI_NumberInfo</title>
<path fill="none" stroke="black" d="M1623.6,-1094.45C1626.17,-1034.78 1634.39,-843.72 1637.52,-771.26"/>
<polygon fill="black" stroke="black" points="1641.02,-771.22 1637.95,-761.08 1634.03,-770.92 1641.02,-771.22"/>
</g>
<!-- _anon_edge_7&#45;&gt;SOFe_InfoAPI_NumberInfo -->
<g id="edge16" class="edge">
<title>_anon_edge_7&#45;&gt;SOFe_InfoAPI_NumberInfo</title>
<path fill="none" stroke="black" d="M1782.41,-1168.55C1759.55,-1100.85 1676.26,-854.2 1648.11,-770.81"/>
<polygon fill="black" stroke="black" points="1651.39,-769.6 1644.88,-761.25 1644.76,-771.84 1651.39,-769.6"/>
</g>
<!-- _anon_edge_8&#45;&gt;SOFe_InfoAPI_NumberInfo -->
<g id="edge18" class="edge">
<title>_anon_edge_8&#45;&gt;SOFe_InfoAPI_NumberInfo</title>
<path fill="none" stroke="black" d="M1340.76,-1151.16C1387.88,-1086.62 1560.97,-849.55 1619.35,-769.58"/>
<polygon fill="black" stroke="black" points="1622.2,-771.63 1625.26,-761.48 1616.54,-767.5 1622.2,-771.63"/>
</g>
<!-- _anon_edge_9&#45;&gt;SOFe_InfoAPI_NumberInfo -->
<g id="edge20" class="edge">
<title>_anon_edge_9&#45;&gt;SOFe_InfoAPI_NumberInfo</title>
<path fill="none" stroke="black" d="M1318.63,-997.01C1373.03,-953.85 1538.35,-822.69 1607.65,-767.7"/>
<polygon fill="black" stroke="black" points="1609.95,-770.35 1615.61,-761.39 1605.6,-764.86 1609.95,-770.35"/>
</g>
<!-- _anon_edge_10&#45;&gt;SOFe_InfoAPI_NumberInfo -->
<g id="edge22" class="edge">
<title>_anon_edge_10&#45;&gt;SOFe_InfoAPI_NumberInfo</title>
<path fill="none" stroke="black" d="M1608.46,-336.59C1613.39,-402.74 1630.54,-633.12 1636.6,-714.39"/>
<polygon fill="black" stroke="black" points="1633.14,-715.12 1637.37,-724.83 1640.12,-714.6 1633.14,-715.12"/>
</g>
<!-- _anon_edge_11&#45;&gt;SOFe_InfoAPI_NumberInfo -->
<g id="edge24" class="edge">
<title>_anon_edge_11&#45;&gt;SOFe_InfoAPI_NumberInfo</title>
<path fill="none" stroke="black" d="M1541.02,-226.88C1555.82,-305.1 1615.29,-619.2 1633.44,-715.1"/>
<polygon fill="black" stroke="black" points="1630,-715.76 1635.3,-724.94 1636.88,-714.46 1630,-715.76"/>
</g>
<!-- _anon_edge_12&#45;&gt;SOFe_InfoAPI_NumberInfo -->
<g id="edge26" class="edge">
<title>_anon_edge_12&#45;&gt;SOFe_InfoAPI_NumberInfo</title>
<path fill="none" stroke="black" d="M1748.79,-280.63C1731.6,-352.88 1666.49,-626.41 1645.38,-715.1"/>
<polygon fill="black" stroke="black" points="1641.94,-714.43 1643.03,-724.97 1648.75,-716.05 1641.94,-714.43"/>
</g>
<!-- _anon_edge_13&#45;&gt;SOFe_InfoAPI_WorldInfo -->
<g id="edge28" class="edge">
<title>_anon_edge_13&#45;&gt;SOFe_InfoAPI_WorldInfo</title>
<path fill="none" stroke="black" d="M2213.4,-74.98C2211.42,-143.63 2204.35,-389.52 2201.93,-473.41"/>
<polygon fill="black" stroke="black" points="2198.43,-473.38 2201.64,-483.48 2205.43,-473.58 2198.43,-473.38"/>
</g>
<!-- _anon_edge_14&#45;&gt;SOFe_InfoAPI_NumberInfo -->
<g id="edge30" class="edge">
<title>_anon_edge_14&#45;&gt;SOFe_InfoAPI_NumberInfo</title>
<path fill="none" stroke="black" d="M2056.39,-739.85C1936.02,-740.77 1766.07,-742.07 1685.11,-742.69"/>
<polygon fill="black" stroke="black" points="1684.73,-739.19 1674.75,-742.77 1684.78,-746.19 1684.73,-739.19"/>
</g>
<!-- _anon_edge_15&#45;&gt;SOFe_InfoAPI_NumberInfo -->
<g id="edge32" class="edge">
<title>_anon_edge_15&#45;&gt;SOFe_InfoAPI_NumberInfo</title>
<path fill="none" stroke="black" d="M2065.13,-857.92C1972.82,-833.05 1774.64,-779.66 1684.75,-755.44"/>
<polygon fill="black" stroke="black" points="1685.41,-751.99 1674.85,-752.77 1683.59,-758.75 1685.41,-751.99"/>
</g>
<!-- _anon_edge_16&#45;&gt;SOFe_InfoAPI_NumberInfo -->
<g id="edge34" class="edge">
<title>_anon_edge_16&#45;&gt;SOFe_InfoAPI_NumberInfo</title>
<path fill="none" stroke="black" d="M2006.69,-634.48C1926.81,-658.05 1764.08,-706.06 1684.55,-729.52"/>
<polygon fill="black" stroke="black" points="1683.41,-726.21 1674.81,-732.4 1685.4,-732.92 1683.41,-726.21"/>
</g>
<!-- _anon_edge_17&#45;&gt;SOFe_InfoAPI_NumberInfo -->
<g id="edge36" class="edge">
<title>_anon_edge_17&#45;&gt;SOFe_InfoAPI_NumberInfo</title>
<path fill="none" stroke="black" d="M1890.13,-766.04C1823.25,-759.92 1737.35,-752.06 1685.25,-747.3"/>
<polygon fill="black" stroke="black" points="1685.26,-743.78 1674.98,-746.36 1684.62,-750.75 1685.26,-743.78"/>
</g>
<!-- _anon_edge_18&#45;&gt;SOFe_InfoAPI_NumberInfo -->
<g id="edge38" class="edge">
<title>_anon_edge_18&#45;&gt;SOFe_InfoAPI_NumberInfo</title>
<path fill="none" stroke="black" d="M1971.97,-427.31C1915.67,-480.65 1734.1,-652.68 1665.4,-717.77"/>
<polygon fill="black" stroke="black" points="1662.83,-715.39 1657.98,-724.81 1667.64,-720.47 1662.83,-715.39"/>
</g>
<!-- _anon_edge_19&#45;&gt;SOFe_InfoAPI_NumberInfo -->
<g id="edge40" class="edge">
<title>_anon_edge_19&#45;&gt;SOFe_InfoAPI_NumberInfo</title>
<path fill="none" stroke="black" d="M1873.91,-562.25C1829.74,-596.21 1723.67,-677.75 1670.39,-718.7"/>
<polygon fill="black" stroke="black" points="1668.11,-716.04 1662.31,-724.91 1672.37,-721.59 1668.11,-716.04"/>
</g>
</g>
</svg>
