<?xml version="1.0" encoding="UTF-8" standalone="no"?>
<!DOCTYPE svg PUBLIC "-//W3C//DTD SVG 1.1//EN"
 "http://www.w3.org/Graphics/SVG/1.1/DTD/svg11.dtd">
<!-- Generated by graphviz version 2.43.0 (0)
 -->
<!-- Title: InfoAPI_Defaults Pages: 1 -->
<svg width="2699pt" height="1690pt"
 viewBox="0.00 0.00 2699.21 1689.94" xmlns="http://www.w3.org/2000/svg" xmlns:xlink="http://www.w3.org/1999/xlink">
<g id="graph0" class="graph" transform="scale(1 1) rotate(0) translate(36 1653.94)">
<title>InfoAPI_Defaults</title>
<polygon fill="white" stroke="transparent" points="-36,36 -36,-1653.94 2663.21,-1653.94 2663.21,36 -36,36"/>
<!-- SOFe_InfoAPI_StringInfo -->
<g id="node1" class="node">
<title>SOFe_InfoAPI_StringInfo</title>
<polygon fill="none" stroke="black" points="1551.77,-1290.6 1497.77,-1290.6 1497.77,-1254.6 1551.77,-1254.6 1551.77,-1290.6"/>
<text text-anchor="middle" x="1524.77" y="-1268.9" font-family="Times,serif" font-size="14.00">text</text>
</g>
<!-- _anon_edge_0 -->
<g id="node10" class="node">
<title>_anon_edge_0</title>
<polygon fill="none" stroke="black" points="1394.93,-1595.29 1219.31,-1577.29 1394.93,-1559.29 1570.55,-1577.29 1394.93,-1595.29"/>
<text text-anchor="middle" x="1394.93" y="-1573.59" font-family="Times,serif" font-size="14.00">infoapi.string.uppercase</text>
</g>
<!-- SOFe_InfoAPI_StringInfo&#45;&gt;_anon_edge_0 -->
<g id="edge1" class="edge">
<title>SOFe_InfoAPI_StringInfo&#45;&gt;_anon_edge_0</title>
<path fill="none" stroke="black" d="M1509.17,-1290.69C1478.52,-1341.91 1416.29,-1487.45 1398.39,-1549.18"/>
<polygon fill="black" stroke="black" points="1394.96,-1548.45 1395.75,-1559.02 1401.72,-1550.27 1394.96,-1548.45"/>
</g>
<!-- _anon_edge_1 -->
<g id="node11" class="node">
<title>_anon_edge_1</title>
<polygon fill="none" stroke="black" points="1548.17,-1617.94 1375.57,-1599.94 1548.17,-1581.94 1720.78,-1599.94 1548.17,-1617.94"/>
<text text-anchor="middle" x="1548.17" y="-1596.24" font-family="Times,serif" font-size="14.00">infoapi.string.lowercase</text>
</g>
<!-- SOFe_InfoAPI_StringInfo&#45;&gt;_anon_edge_1 -->
<g id="edge3" class="edge">
<title>SOFe_InfoAPI_StringInfo&#45;&gt;_anon_edge_1</title>
<path fill="none" stroke="black" d="M1519.52,-1290.66C1514.59,-1345.13 1525.76,-1507.95 1538.28,-1572.83"/>
<polygon fill="black" stroke="black" points="1534.88,-1573.67 1540.38,-1582.72 1541.73,-1572.21 1534.88,-1573.67"/>
</g>
<!-- SOFe_InfoAPI_NumberInfo -->
<g id="node2" class="node">
<title>SOFe_InfoAPI_NumberInfo</title>
<polygon fill="none" stroke="black" points="1994.6,-600.54 1922.6,-600.54 1922.6,-564.54 1994.6,-564.54 1994.6,-600.54"/>
<text text-anchor="middle" x="1958.6" y="-578.84" font-family="Times,serif" font-size="14.00">number</text>
</g>
<!-- _anon_edge_2 -->
<g id="node12" class="node">
<title>_anon_edge_2</title>
<polygon fill="none" stroke="black" points="1835.49,-1051.63 1619.49,-1033.63 1835.49,-1015.63 2051.5,-1033.63 1835.49,-1051.63"/>
<text text-anchor="middle" x="1835.49" y="-1029.93" font-family="Times,serif" font-size="14.00">infoapi.number.english.ordinal</text>
</g>
<!-- SOFe_InfoAPI_NumberInfo&#45;&gt;_anon_edge_2 -->
<g id="edge5" class="edge">
<title>SOFe_InfoAPI_NumberInfo&#45;&gt;_anon_edge_2</title>
<path fill="none" stroke="black" d="M1953.63,-600.78C1934.56,-670.65 1866.1,-921.5 1843.09,-1005.78"/>
<polygon fill="black" stroke="black" points="1839.66,-1005.09 1840.4,-1015.66 1846.41,-1006.93 1839.66,-1005.09"/>
</g>
<!-- _anon_edge_3 -->
<g id="node13" class="node">
<title>_anon_edge_3</title>
<polygon fill="none" stroke="black" points="1765.17,-1019.13 1596.76,-1001.13 1765.17,-983.13 1933.58,-1001.13 1765.17,-1019.13"/>
<text text-anchor="middle" x="1765.17" y="-997.43" font-family="Times,serif" font-size="14.00">infoapi.number.percent</text>
</g>
<!-- SOFe_InfoAPI_NumberInfo&#45;&gt;_anon_edge_3 -->
<g id="edge7" class="edge">
<title>SOFe_InfoAPI_NumberInfo&#45;&gt;_anon_edge_3</title>
<path fill="none" stroke="black" d="M1950.17,-600.8C1919.49,-667.19 1813.73,-896.05 1777.48,-974.5"/>
<polygon fill="black" stroke="black" points="1774.24,-973.17 1773.22,-983.72 1780.59,-976.11 1774.24,-973.17"/>
</g>
<!-- SOFe_InfoAPI_RatioInfo -->
<g id="node3" class="node">
<title>SOFe_InfoAPI_RatioInfo</title>
<polygon fill="none" stroke="black" points="2492.69,-638.34 2400.69,-638.34 2400.69,-602.34 2492.69,-602.34 2492.69,-638.34"/>
<text text-anchor="middle" x="2446.69" y="-616.64" font-family="Times,serif" font-size="14.00">proportion</text>
</g>
<!-- _anon_edge_4 -->
<g id="node14" class="node">
<title>_anon_edge_4</title>
<polygon fill="none" stroke="black" points="2334.26,-549.31 2186.29,-531.31 2334.26,-513.31 2482.23,-531.31 2334.26,-549.31"/>
<text text-anchor="middle" x="2334.26" y="-527.61" font-family="Times,serif" font-size="14.00">infoapi.ratio.current</text>
</g>
<!-- SOFe_InfoAPI_RatioInfo&#45;&gt;_anon_edge_4 -->
<g id="edge9" class="edge">
<title>SOFe_InfoAPI_RatioInfo&#45;&gt;_anon_edge_4</title>
<path fill="none" stroke="black" d="M2423.93,-602.33C2406.05,-588.16 2381.06,-568.37 2362,-553.28"/>
<polygon fill="black" stroke="black" points="2363.99,-550.39 2353.97,-546.92 2359.64,-555.88 2363.99,-550.39"/>
</g>
<!-- _anon_edge_5 -->
<g id="node15" class="node">
<title>_anon_edge_5</title>
<polygon fill="none" stroke="black" points="2233.03,-772.83 2106.35,-754.83 2233.03,-736.83 2359.72,-754.83 2233.03,-772.83"/>
<text text-anchor="middle" x="2233.03" y="-751.13" font-family="Times,serif" font-size="14.00">infoapi.ratio.max</text>
</g>
<!-- SOFe_InfoAPI_RatioInfo&#45;&gt;_anon_edge_5 -->
<g id="edge11" class="edge">
<title>SOFe_InfoAPI_RatioInfo&#45;&gt;_anon_edge_5</title>
<path fill="none" stroke="black" d="M2417.87,-638.48C2378.08,-663.53 2306.53,-708.57 2265.09,-734.66"/>
<polygon fill="black" stroke="black" points="2263.08,-731.79 2256.48,-740.08 2266.81,-737.71 2263.08,-731.79"/>
</g>
<!-- _anon_edge_6 -->
<g id="node16" class="node">
<title>_anon_edge_6</title>
<polygon fill="none" stroke="black" points="2241.89,-603 2075.66,-585 2241.89,-567 2408.13,-585 2241.89,-603"/>
<text text-anchor="middle" x="2241.89" y="-581.3" font-family="Times,serif" font-size="14.00">infoapi.ratio.remaining</text>
</g>
<!-- SOFe_InfoAPI_RatioInfo&#45;&gt;_anon_edge_6 -->
<g id="edge13" class="edge">
<title>SOFe_InfoAPI_RatioInfo&#45;&gt;_anon_edge_6</title>
<path fill="none" stroke="black" d="M2400.47,-612.37C2375.67,-608.09 2344.51,-602.71 2316.39,-597.86"/>
<polygon fill="black" stroke="black" points="2316.63,-594.35 2306.18,-596.1 2315.44,-601.25 2316.63,-594.35"/>
</g>
<!-- _anon_edge_7 -->
<g id="node17" class="node">
<title>_anon_edge_7</title>
<polygon fill="none" stroke="black" points="2332.97,-463.71 2194.38,-445.71 2332.97,-427.71 2471.56,-445.71 2332.97,-463.71"/>
<text text-anchor="middle" x="2332.97" y="-442.01" font-family="Times,serif" font-size="14.00">infoapi.ratio.invert</text>
</g>
<!-- SOFe_InfoAPI_RatioInfo&#45;&gt;_anon_edge_7 -->
<g id="edge15" class="edge">
<title>SOFe_InfoAPI_RatioInfo&#45;&gt;_anon_edge_7</title>
<path fill="none" stroke="black" d="M2434.94,-602.31C2414.54,-570.98 2372.51,-506.43 2349.28,-470.76"/>
<polygon fill="black" stroke="black" points="2352.2,-468.83 2343.81,-462.36 2346.33,-472.65 2352.2,-468.83"/>
</g>
<!-- _anon_edge_8 -->
<g id="node18" class="node">
<title>_anon_edge_8</title>
<polygon fill="none" stroke="black" points="2307.66,-663.92 2184.33,-645.92 2307.66,-627.92 2431,-645.92 2307.66,-663.92"/>
<text text-anchor="middle" x="2307.66" y="-642.22" font-family="Times,serif" font-size="14.00">infoapi.ratio.lost</text>
</g>
<!-- SOFe_InfoAPI_RatioInfo&#45;&gt;_anon_edge_8 -->
<g id="edge17" class="edge">
<title>SOFe_InfoAPI_RatioInfo&#45;&gt;_anon_edge_8</title>
<path fill="none" stroke="black" d="M2400.39,-628.86C2391.46,-630.5 2381.95,-632.25 2372.55,-633.98"/>
<polygon fill="black" stroke="black" points="2371.63,-630.59 2362.43,-635.84 2372.9,-637.48 2371.63,-630.59"/>
</g>
<!-- _anon_edge_9 -->
<g id="node19" class="node">
<title>_anon_edge_9</title>
<polygon fill="none" stroke="black" points="2330.54,-751.89 2254.46,-733.89 2330.54,-715.89 2406.62,-733.89 2330.54,-751.89"/>
<text text-anchor="middle" x="2330.54" y="-730.19" font-family="Times,serif" font-size="14.00">(fallback)</text>
</g>
<!-- SOFe_InfoAPI_RatioInfo&#45;&gt;_anon_edge_9 -->
<g id="edge19" class="edge">
<title>SOFe_InfoAPI_RatioInfo&#45;&gt;_anon_edge_9</title>
<path fill="none" stroke="black" d="M2428.02,-638.59C2407.49,-658.66 2374.51,-690.91 2352.68,-712.25"/>
<polygon fill="black" stroke="black" points="2350.17,-709.81 2345.46,-719.3 2355.06,-714.81 2350.17,-709.81"/>
</g>
<!-- SOFe_InfoAPI_PositionInfo -->
<g id="node4" class="node">
<title>SOFe_InfoAPI_PositionInfo</title>
<polygon fill="none" stroke="black" points="1421.81,-290.93 1347.81,-290.93 1347.81,-254.93 1421.81,-254.93 1421.81,-290.93"/>
<text text-anchor="middle" x="1384.81" y="-269.23" font-family="Times,serif" font-size="14.00">position</text>
</g>
<!-- _anon_edge_10 -->
<g id="node20" class="node">
<title>_anon_edge_10</title>
<polygon fill="none" stroke="black" points="1629.37,-427.99 1500.5,-409.99 1629.37,-391.99 1758.23,-409.99 1629.37,-427.99"/>
<text text-anchor="middle" x="1629.37" y="-406.29" font-family="Times,serif" font-size="14.00">infoapi.position.x</text>
</g>
<!-- SOFe_InfoAPI_PositionInfo&#45;&gt;_anon_edge_10 -->
<g id="edge21" class="edge">
<title>SOFe_InfoAPI_PositionInfo&#45;&gt;_anon_edge_10</title>
<path fill="none" stroke="black" d="M1417.03,-290.99C1463,-316.75 1547.05,-363.86 1594.45,-390.42"/>
<polygon fill="black" stroke="black" points="1592.99,-393.61 1603.42,-395.45 1596.41,-387.5 1592.99,-393.61"/>
</g>
<!-- _anon_edge_11 -->
<g id="node21" class="node">
<title>_anon_edge_11</title>
<polygon fill="none" stroke="black" points="1698.6,-304.49 1569.73,-286.49 1698.6,-268.49 1827.46,-286.49 1698.6,-304.49"/>
<text text-anchor="middle" x="1698.6" y="-282.79" font-family="Times,serif" font-size="14.00">infoapi.position.y</text>
</g>
<!-- SOFe_InfoAPI_PositionInfo&#45;&gt;_anon_edge_11 -->
<g id="edge23" class="edge">
<title>SOFe_InfoAPI_PositionInfo&#45;&gt;_anon_edge_11</title>
<path fill="none" stroke="black" d="M1422.04,-274.54C1463.24,-276.32 1531.56,-279.27 1589.98,-281.79"/>
<polygon fill="black" stroke="black" points="1589.87,-285.29 1600.01,-282.23 1590.17,-278.3 1589.87,-285.29"/>
</g>
<!-- _anon_edge_12 -->
<g id="node22" class="node">
<title>_anon_edge_12</title>
<polygon fill="none" stroke="black" points="1635.48,-349.13 1507.96,-331.13 1635.48,-313.13 1763.01,-331.13 1635.48,-349.13"/>
<text text-anchor="middle" x="1635.48" y="-327.43" font-family="Times,serif" font-size="14.00">infoapi.position.z</text>
</g>
<!-- SOFe_InfoAPI_PositionInfo&#45;&gt;_anon_edge_12 -->
<g id="edge25" class="edge">
<title>SOFe_InfoAPI_PositionInfo&#45;&gt;_anon_edge_12</title>
<path fill="none" stroke="black" d="M1422.07,-281.58C1462.94,-291.07 1529.08,-306.43 1576.91,-317.53"/>
<polygon fill="black" stroke="black" points="1576.29,-320.98 1586.82,-319.83 1577.87,-314.16 1576.29,-320.98"/>
</g>
<!-- _anon_edge_13 -->
<g id="node23" class="node">
<title>_anon_edge_13</title>
<polygon fill="none" stroke="black" points="1645.26,-36 1487.07,-18 1645.26,0 1803.45,-18 1645.26,-36"/>
<text text-anchor="middle" x="1645.26" y="-14.3" font-family="Times,serif" font-size="14.00">infoapi.position.world</text>
</g>
<!-- SOFe_InfoAPI_PositionInfo&#45;&gt;_anon_edge_13 -->
<g id="edge27" class="edge">
<title>SOFe_InfoAPI_PositionInfo&#45;&gt;_anon_edge_13</title>
<path fill="none" stroke="black" d="M1403.54,-254.6C1449.92,-209.2 1570.03,-91.64 1621.39,-41.36"/>
<polygon fill="black" stroke="black" points="1624.04,-43.67 1628.74,-34.17 1619.15,-38.66 1624.04,-43.67"/>
</g>
<!-- SOFe_InfoAPI_WorldInfo -->
<g id="node5" class="node">
<title>SOFe_InfoAPI_WorldInfo</title>
<polygon fill="none" stroke="black" points="2017.08,-131.74 1960.08,-131.74 1960.08,-95.74 2017.08,-95.74 2017.08,-131.74"/>
<text text-anchor="middle" x="1988.58" y="-110.04" font-family="Times,serif" font-size="14.00">world</text>
</g>
<!-- _anon_edge_14 -->
<g id="node24" class="node">
<title>_anon_edge_14</title>
<polygon fill="none" stroke="black" points="2043.85,-345.21 1902.25,-327.21 2043.85,-309.21 2185.45,-327.21 2043.85,-345.21"/>
<text text-anchor="middle" x="2043.85" y="-323.51" font-family="Times,serif" font-size="14.00">infoapi.world.name</text>
</g>
<!-- SOFe_InfoAPI_WorldInfo&#45;&gt;_anon_edge_14 -->
<g id="edge29" class="edge">
<title>SOFe_InfoAPI_WorldInfo&#45;&gt;_anon_edge_14</title>
<path fill="none" stroke="black" d="M1993.3,-131.94C2003.01,-169.46 2025.31,-255.61 2036.77,-299.86"/>
<polygon fill="black" stroke="black" points="2033.41,-300.85 2039.3,-309.65 2040.19,-299.09 2033.41,-300.85"/>
</g>
<!-- _anon_edge_15 -->
<g id="node25" class="node">
<title>_anon_edge_15</title>
<polygon fill="none" stroke="black" points="2181.03,-266.49 1998.21,-248.49 2181.03,-230.49 2363.86,-248.49 2181.03,-266.49"/>
<text text-anchor="middle" x="2181.03" y="-244.79" font-family="Times,serif" font-size="14.00">infoapi.world.folderName</text>
</g>
<!-- SOFe_InfoAPI_WorldInfo&#45;&gt;_anon_edge_15 -->
<g id="edge31" class="edge">
<title>SOFe_InfoAPI_WorldInfo&#45;&gt;_anon_edge_15</title>
<path fill="none" stroke="black" d="M2014.54,-131.91C2049.68,-156.52 2112.32,-200.38 2149.94,-226.72"/>
<polygon fill="black" stroke="black" points="2148.28,-229.83 2158.48,-232.7 2152.29,-224.09 2148.28,-229.83"/>
</g>
<!-- _anon_edge_16 -->
<g id="node26" class="node">
<title>_anon_edge_16</title>
<polygon fill="none" stroke="black" points="1898.05,-269.17 1705.84,-251.17 1898.05,-233.17 2090.26,-251.17 1898.05,-269.17"/>
<text text-anchor="middle" x="1898.05" y="-247.47" font-family="Times,serif" font-size="14.00">infoapi.world.customName</text>
</g>
<!-- SOFe_InfoAPI_WorldInfo&#45;&gt;_anon_edge_16 -->
<g id="edge33" class="edge">
<title>SOFe_InfoAPI_WorldInfo&#45;&gt;_anon_edge_16</title>
<path fill="none" stroke="black" d="M1976.56,-131.99C1960.75,-156 1932.86,-198.32 1914.93,-225.54"/>
<polygon fill="black" stroke="black" points="1911.85,-223.86 1909.27,-234.14 1917.69,-227.71 1911.85,-223.86"/>
</g>
<!-- _anon_edge_17 -->
<g id="node27" class="node">
<title>_anon_edge_17</title>
<polygon fill="none" stroke="black" points="2102.52,-217.34 1911.15,-199.34 2102.52,-181.34 2293.89,-199.34 2102.52,-217.34"/>
<text text-anchor="middle" x="2102.52" y="-195.64" font-family="Times,serif" font-size="14.00">infoapi.world.displayName</text>
</g>
<!-- SOFe_InfoAPI_WorldInfo&#45;&gt;_anon_edge_17 -->
<g id="edge35" class="edge">
<title>SOFe_InfoAPI_WorldInfo&#45;&gt;_anon_edge_17</title>
<path fill="none" stroke="black" d="M2012.75,-131.89C2030.31,-145.08 2054.18,-163.02 2072.89,-177.08"/>
<polygon fill="black" stroke="black" points="2070.98,-180.02 2081.08,-183.23 2075.19,-174.43 2070.98,-180.02"/>
</g>
<!-- _anon_edge_18 -->
<g id="node28" class="node">
<title>_anon_edge_18</title>
<polygon fill="none" stroke="black" points="2136.47,-341.76 2001.24,-323.76 2136.47,-305.76 2271.7,-323.76 2136.47,-341.76"/>
<text text-anchor="middle" x="2136.47" y="-320.06" font-family="Times,serif" font-size="14.00">infoapi.world.time</text>
</g>
<!-- SOFe_InfoAPI_WorldInfo&#45;&gt;_anon_edge_18 -->
<g id="edge37" class="edge">
<title>SOFe_InfoAPI_WorldInfo&#45;&gt;_anon_edge_18</title>
<path fill="none" stroke="black" d="M2001.45,-132.01C2027.95,-169.65 2088.68,-255.89 2118.82,-298.71"/>
<polygon fill="black" stroke="black" points="2116.15,-300.99 2124.77,-307.15 2121.87,-296.96 2116.15,-300.99"/>
</g>
<!-- _anon_edge_19 -->
<g id="node29" class="node">
<title>_anon_edge_19</title>
<polygon fill="none" stroke="black" points="1988.67,-263.33 1852.6,-245.33 1988.67,-227.33 2124.74,-245.33 1988.67,-263.33"/>
<text text-anchor="middle" x="1988.67" y="-241.63" font-family="Times,serif" font-size="14.00">infoapi.world.seed</text>
</g>
<!-- SOFe_InfoAPI_WorldInfo&#45;&gt;_anon_edge_19 -->
<g id="edge39" class="edge">
<title>SOFe_InfoAPI_WorldInfo&#45;&gt;_anon_edge_19</title>
<path fill="none" stroke="black" d="M1988.6,-131.76C1988.61,-153.69 1988.64,-190.97 1988.65,-216.81"/>
<polygon fill="black" stroke="black" points="1985.15,-217.11 1988.66,-227.11 1992.15,-217.11 1985.15,-217.11"/>
</g>
<!-- SOFe_InfoAPI_BlockInfo -->
<g id="node6" class="node">
<title>SOFe_InfoAPI_BlockInfo</title>
<polygon fill="none" stroke="black" points="727.88,-490.25 673.88,-490.25 673.88,-454.25 727.88,-454.25 727.88,-490.25"/>
<text text-anchor="middle" x="700.88" y="-468.55" font-family="Times,serif" font-size="14.00">block</text>
</g>
<!-- _anon_edge_20 -->
<g id="node30" class="node">
<title>_anon_edge_20</title>
<polygon fill="none" stroke="black" points="970.14,-288 894.06,-270 970.14,-252 1046.22,-270 970.14,-288"/>
<text text-anchor="middle" x="970.14" y="-266.3" font-family="Times,serif" font-size="14.00">(fallback)</text>
</g>
<!-- SOFe_InfoAPI_BlockInfo&#45;&gt;_anon_edge_20 -->
<g id="edge41" class="edge">
<title>SOFe_InfoAPI_BlockInfo&#45;&gt;_anon_edge_20</title>
<path fill="none" stroke="black" d="M725.25,-453.94C775.77,-415.99 891.56,-329.02 943.77,-289.81"/>
<polygon fill="black" stroke="black" points="945.98,-292.53 951.87,-283.72 941.77,-286.93 945.98,-292.53"/>
</g>
<!-- _anon_edge_21 -->
<g id="node31" class="node">
<title>_anon_edge_21</title>
<polygon fill="none" stroke="black" points="319.34,-410.79 243.25,-392.79 319.34,-374.79 395.42,-392.79 319.34,-410.79"/>
<text text-anchor="middle" x="319.34" y="-389.09" font-family="Times,serif" font-size="14.00">(fallback)</text>
</g>
<!-- SOFe_InfoAPI_BlockInfo&#45;&gt;_anon_edge_21 -->
<g id="edge43" class="edge">
<title>SOFe_InfoAPI_BlockInfo&#45;&gt;_anon_edge_21</title>
<path fill="none" stroke="black" d="M673.75,-466.6C610.33,-453.39 451.62,-420.34 369.83,-403.31"/>
<polygon fill="black" stroke="black" points="370.51,-399.87 360.01,-401.26 369.08,-406.73 370.51,-399.87"/>
</g>
<!-- SOFe_InfoAPI_BlockTypeInfo -->
<g id="node7" class="node">
<title>SOFe_InfoAPI_BlockTypeInfo</title>
<polygon fill="none" stroke="black" points="90,-355.77 0,-355.77 0,-319.77 90,-319.77 90,-355.77"/>
<text text-anchor="middle" x="45" y="-334.07" font-family="Times,serif" font-size="14.00">block type</text>
</g>
<!-- SOFe_InfoAPI_CommonInfo -->
<g id="node8" class="node">
<title>SOFe_InfoAPI_CommonInfo</title>
<polygon fill="none" stroke="black" points="2627.21,-1134.3 2550.21,-1134.3 2550.21,-1098.3 2627.21,-1098.3 2627.21,-1134.3"/>
<text text-anchor="middle" x="2588.71" y="-1112.6" font-family="Times,serif" font-size="14.00">common</text>
</g>
<!-- _anon_edge_22 -->
<g id="node32" class="node">
<title>_anon_edge_22</title>
<polygon fill="none" stroke="black" points="2318.74,-936.59 2161.39,-918.59 2318.74,-900.59 2476.1,-918.59 2318.74,-936.59"/>
<text text-anchor="middle" x="2318.74" y="-914.89" font-family="Times,serif" font-size="14.00">infoapi.server.players</text>
</g>
<!-- SOFe_InfoAPI_CommonInfo&#45;&gt;_anon_edge_22 -->
<g id="edge45" class="edge">
<title>SOFe_InfoAPI_CommonInfo&#45;&gt;_anon_edge_22</title>
<path fill="none" stroke="black" d="M2563.79,-1098.05C2513.96,-1061.56 2402.21,-979.72 2348.58,-940.44"/>
<polygon fill="black" stroke="black" points="2350.32,-937.38 2340.18,-934.29 2346.18,-943.02 2350.32,-937.38"/>
</g>
<!-- SOFe_InfoAPI_PlayerInfo -->
<g id="node9" class="node">
<title>SOFe_InfoAPI_PlayerInfo</title>
<polygon fill="none" stroke="black" points="1385.8,-797.25 1323.8,-797.25 1323.8,-761.25 1385.8,-761.25 1385.8,-797.25"/>
<text text-anchor="middle" x="1354.8" y="-775.55" font-family="Times,serif" font-size="14.00">player</text>
</g>
<!-- _anon_edge_23 -->
<g id="node33" class="node">
<title>_anon_edge_23</title>
<polygon fill="none" stroke="black" points="1587.5,-614.99 1443.39,-596.99 1587.5,-578.99 1731.62,-596.99 1587.5,-614.99"/>
<text text-anchor="middle" x="1587.5" y="-593.29" font-family="Times,serif" font-size="14.00">infoapi.player.name</text>
</g>
<!-- SOFe_InfoAPI_PlayerInfo&#45;&gt;_anon_edge_23 -->
<g id="edge47" class="edge">
<title>SOFe_InfoAPI_PlayerInfo&#45;&gt;_anon_edge_23</title>
<path fill="none" stroke="black" d="M1377.97,-761.11C1420.93,-727.45 1512.82,-655.48 1559.31,-619.07"/>
<polygon fill="black" stroke="black" points="1561.73,-621.62 1567.44,-612.7 1557.41,-616.11 1561.73,-621.62"/>
</g>
<!-- _anon_edge_24 -->
<g id="node34" class="node">
<title>_anon_edge_24</title>
<polygon fill="none" stroke="black" points="1675.85,-857.9 1539.77,-839.9 1675.85,-821.9 1811.92,-839.9 1675.85,-857.9"/>
<text text-anchor="middle" x="1675.85" y="-836.2" font-family="Times,serif" font-size="14.00">infoapi.player.port</text>
</g>
<!-- SOFe_InfoAPI_PlayerInfo&#45;&gt;_anon_edge_24 -->
<g id="edge49" class="edge">
<title>SOFe_InfoAPI_PlayerInfo&#45;&gt;_anon_edge_24</title>
<path fill="none" stroke="black" d="M1385.88,-785.12C1437.32,-794.84 1541.29,-814.48 1609.74,-827.41"/>
<polygon fill="black" stroke="black" points="1609.09,-830.85 1619.57,-829.27 1610.39,-823.97 1609.09,-830.85"/>
</g>
<!-- _anon_edge_25 -->
<g id="node35" class="node">
<title>_anon_edge_25</title>
<polygon fill="none" stroke="black" points="1632.41,-803.82 1495.51,-785.82 1632.41,-767.82 1769.32,-785.82 1632.41,-803.82"/>
<text text-anchor="middle" x="1632.41" y="-782.12" font-family="Times,serif" font-size="14.00">infoapi.player.ping</text>
</g>
<!-- SOFe_InfoAPI_PlayerInfo&#45;&gt;_anon_edge_25 -->
<g id="edge51" class="edge">
<title>SOFe_InfoAPI_PlayerInfo&#45;&gt;_anon_edge_25</title>
<path fill="none" stroke="black" d="M1385.84,-779.98C1415.31,-780.68 1461.59,-781.78 1506.15,-782.83"/>
<polygon fill="black" stroke="black" points="1506.14,-786.33 1516.22,-783.07 1506.3,-779.33 1506.14,-786.33"/>
</g>
<!-- _anon_edge_26 -->
<g id="node36" class="node">
<title>_anon_edge_26</title>
<polygon fill="none" stroke="black" points="1671.39,-675.62 1521.74,-657.62 1671.39,-639.62 1821.03,-657.62 1671.39,-675.62"/>
<text text-anchor="middle" x="1671.39" y="-653.92" font-family="Times,serif" font-size="14.00">infoapi.player.health</text>
</g>
<!-- SOFe_InfoAPI_PlayerInfo&#45;&gt;_anon_edge_26 -->
<g id="edge53" class="edge">
<title>SOFe_InfoAPI_PlayerInfo&#45;&gt;_anon_edge_26</title>
<path fill="none" stroke="black" d="M1386.03,-767.25C1442.26,-745.65 1560.77,-700.12 1625.99,-675.06"/>
<polygon fill="black" stroke="black" points="1627.51,-678.22 1635.59,-671.37 1625,-671.69 1627.51,-678.22"/>
</g>
<!-- _anon_edge_27 -->
<g id="node37" class="node">
<title>_anon_edge_27</title>
<polygon fill="none" stroke="black" points="1589.75,-712.4 1455.36,-694.4 1589.75,-676.4 1724.15,-694.4 1589.75,-712.4"/>
<text text-anchor="middle" x="1589.75" y="-690.7" font-family="Times,serif" font-size="14.00">infoapi.player.yaw</text>
</g>
<!-- SOFe_InfoAPI_PlayerInfo&#45;&gt;_anon_edge_27 -->
<g id="edge55" class="edge">
<title>SOFe_InfoAPI_PlayerInfo&#45;&gt;_anon_edge_27</title>
<path fill="none" stroke="black" d="M1386,-767.98C1426.32,-753.42 1496.87,-727.94 1543.45,-711.12"/>
<polygon fill="black" stroke="black" points="1544.79,-714.36 1553.01,-707.67 1542.41,-707.77 1544.79,-714.36"/>
</g>
<!-- _anon_edge_28 -->
<g id="node38" class="node">
<title>_anon_edge_28</title>
<polygon fill="none" stroke="black" points="1712.26,-770.67 1570.66,-752.67 1712.26,-734.67 1853.86,-752.67 1712.26,-770.67"/>
<text text-anchor="middle" x="1712.26" y="-748.97" font-family="Times,serif" font-size="14.00">infoapi.player.pitch</text>
</g>
<!-- SOFe_InfoAPI_PlayerInfo&#45;&gt;_anon_edge_28 -->
<g id="edge57" class="edge">
<title>SOFe_InfoAPI_PlayerInfo&#45;&gt;_anon_edge_28</title>
<path fill="none" stroke="black" d="M1385.9,-776.94C1435.89,-773.22 1536.23,-765.76 1612.53,-760.09"/>
<polygon fill="black" stroke="black" points="1612.94,-763.57 1622.66,-759.34 1612.42,-756.59 1612.94,-763.57"/>
</g>
<!-- _anon_edge_29 -->
<g id="node39" class="node">
<title>_anon_edge_29</title>
<polygon fill="none" stroke="black" points="1251.14,-1134.06 1115.91,-1116.06 1251.14,-1098.06 1386.38,-1116.06 1251.14,-1134.06"/>
<text text-anchor="middle" x="1251.14" y="-1112.36" font-family="Times,serif" font-size="14.00">infoapi.player.nick</text>
</g>
<!-- SOFe_InfoAPI_PlayerInfo&#45;&gt;_anon_edge_29 -->
<g id="edge59" class="edge">
<title>SOFe_InfoAPI_PlayerInfo&#45;&gt;_anon_edge_29</title>
<path fill="none" stroke="black" d="M1349.23,-797.36C1332.07,-853.13 1279.93,-1022.52 1259.49,-1088.93"/>
<polygon fill="black" stroke="black" points="1256.09,-1088.08 1256.49,-1098.67 1262.78,-1090.14 1256.09,-1088.08"/>
</g>
<!-- _anon_edge_30 -->
<g id="node40" class="node">
<title>_anon_edge_30</title>
<polygon fill="none" stroke="black" points="1385.95,-1103.06 1220.55,-1085.06 1385.95,-1067.06 1551.34,-1085.06 1385.95,-1103.06"/>
<text text-anchor="middle" x="1385.95" y="-1081.36" font-family="Times,serif" font-size="14.00">infoapi.player.nametag</text>
</g>
<!-- SOFe_InfoAPI_PlayerInfo&#45;&gt;_anon_edge_30 -->
<g id="edge61" class="edge">
<title>SOFe_InfoAPI_PlayerInfo&#45;&gt;_anon_edge_30</title>
<path fill="none" stroke="black" d="M1356.66,-797.46C1361.88,-848.77 1376.75,-994.79 1383.06,-1056.73"/>
<polygon fill="black" stroke="black" points="1379.61,-1057.34 1384.1,-1066.94 1386.57,-1056.63 1379.61,-1057.34"/>
</g>
<!-- _anon_edge_31 -->
<g id="node41" class="node">
<title>_anon_edge_31</title>
<polygon fill="none" stroke="black" points="1323,-1165.75 1202.68,-1147.75 1323,-1129.75 1443.32,-1147.75 1323,-1165.75"/>
<text text-anchor="middle" x="1323" y="-1144.05" font-family="Times,serif" font-size="14.00">infoapi.player.ip</text>
</g>
<!-- SOFe_InfoAPI_PlayerInfo&#45;&gt;_anon_edge_31 -->
<g id="edge63" class="edge">
<title>SOFe_InfoAPI_PlayerInfo&#45;&gt;_anon_edge_31</title>
<path fill="none" stroke="black" d="M1353.25,-797.27C1348.11,-856.78 1331.67,-1047.34 1325.43,-1119.61"/>
<polygon fill="black" stroke="black" points="1321.93,-1119.5 1324.56,-1129.77 1328.9,-1120.1 1321.93,-1119.5"/>
</g>
<!-- _anon_edge_32 -->
<g id="node42" class="node">
<title>_anon_edge_32</title>
<polygon fill="none" stroke="black" points="1257.02,-484.09 1125.64,-466.09 1257.02,-448.09 1388.4,-466.09 1257.02,-484.09"/>
<text text-anchor="middle" x="1257.02" y="-462.39" font-family="Times,serif" font-size="14.00">infoapi.player.eye</text>
</g>
<!-- SOFe_InfoAPI_PlayerInfo&#45;&gt;_anon_edge_32 -->
<g id="edge65" class="edge">
<title>SOFe_InfoAPI_PlayerInfo&#45;&gt;_anon_edge_32</title>
<path fill="none" stroke="black" d="M1349.12,-761.06C1332.68,-708.38 1284.94,-555.51 1265.46,-493.1"/>
<polygon fill="black" stroke="black" points="1268.8,-492.06 1262.48,-483.55 1262.12,-494.14 1268.8,-492.06"/>
</g>
<!-- _anon_edge_33 -->
<g id="node43" class="node">
<title>_anon_edge_33</title>
<polygon fill="none" stroke="black" points="1204.24,-545.43 1128.16,-527.43 1204.24,-509.43 1280.32,-527.43 1204.24,-545.43"/>
<text text-anchor="middle" x="1204.24" y="-523.73" font-family="Times,serif" font-size="14.00">(fallback)</text>
</g>
<!-- SOFe_InfoAPI_PlayerInfo&#45;&gt;_anon_edge_33 -->
<g id="edge67" class="edge">
<title>SOFe_InfoAPI_PlayerInfo&#45;&gt;_anon_edge_33</title>
<path fill="none" stroke="black" d="M1343.98,-761.14C1317.44,-716.76 1249.15,-602.55 1218.97,-552.06"/>
<polygon fill="black" stroke="black" points="1221.93,-550.19 1213.79,-543.4 1215.92,-553.78 1221.93,-550.19"/>
</g>
<!-- _anon_edge_34 -->
<g id="node44" class="node">
<title>_anon_edge_34</title>
<polygon fill="none" stroke="black" points="961.8,-640.12 778.97,-622.12 961.8,-604.12 1144.62,-622.12 961.8,-640.12"/>
<text text-anchor="middle" x="961.8" y="-618.42" font-family="Times,serif" font-size="14.00">infoapi.player.blockBelow</text>
</g>
<!-- SOFe_InfoAPI_PlayerInfo&#45;&gt;_anon_edge_34 -->
<g id="edge69" class="edge">
<title>SOFe_InfoAPI_PlayerInfo&#45;&gt;_anon_edge_34</title>
<path fill="none" stroke="black" d="M1323.64,-766.79C1254.55,-739.17 1088.28,-672.69 1007.45,-640.37"/>
<polygon fill="black" stroke="black" points="1008.61,-637.07 998.03,-636.61 1006.01,-643.57 1008.61,-637.07"/>
</g>
<!-- _anon_edge_35 -->
<g id="node45" class="node">
<title>_anon_edge_35</title>
<polygon fill="none" stroke="black" points="931.11,-721.74 744.43,-703.74 931.11,-685.74 1117.79,-703.74 931.11,-721.74"/>
<text text-anchor="middle" x="931.11" y="-700.04" font-family="Times,serif" font-size="14.00">infoapi.player.blockFacing</text>
</g>
<!-- SOFe_InfoAPI_PlayerInfo&#45;&gt;_anon_edge_35 -->
<g id="edge71" class="edge">
<title>SOFe_InfoAPI_PlayerInfo&#45;&gt;_anon_edge_35</title>
<path fill="none" stroke="black" d="M1323.65,-773.69C1257.45,-761.9 1101.17,-734.04 1006.98,-717.26"/>
<polygon fill="black" stroke="black" points="1007.4,-713.78 996.94,-715.47 1006.17,-720.67 1007.4,-713.78"/>
</g>
<!-- _anon_edge_0&#45;&gt;SOFe_InfoAPI_StringInfo -->
<g id="edge2" class="edge">
<title>_anon_edge_0&#45;&gt;SOFe_InfoAPI_StringInfo</title>
<path fill="none" stroke="black" d="M1409.73,-1560.53C1440.1,-1510.53 1503.32,-1362.84 1521.34,-1300.62"/>
<polygon fill="black" stroke="black" points="1524.79,-1301.28 1524,-1290.71 1518.02,-1299.46 1524.79,-1301.28"/>
</g>
<!-- _anon_edge_1&#45;&gt;SOFe_InfoAPI_StringInfo -->
<g id="edge4" class="edge">
<title>_anon_edge_1&#45;&gt;SOFe_InfoAPI_StringInfo</title>
<path fill="none" stroke="black" d="M1553.38,-1582.34C1558.39,-1528.63 1547.34,-1366.49 1534.86,-1300.74"/>
<polygon fill="black" stroke="black" points="1538.23,-1299.77 1532.76,-1290.69 1531.38,-1301.2 1538.23,-1299.77"/>
</g>
<!-- _anon_edge_2&#45;&gt;SOFe_InfoAPI_StringInfo -->
<g id="edge6" class="edge">
<title>_anon_edge_2&#45;&gt;SOFe_InfoAPI_StringInfo</title>
<path fill="none" stroke="black" d="M1814.14,-1050.06C1760.47,-1091.33 1619.74,-1199.56 1556.43,-1248.25"/>
<polygon fill="black" stroke="black" points="1554.18,-1245.57 1548.38,-1254.44 1558.44,-1251.12 1554.18,-1245.57"/>
</g>
<!-- _anon_edge_3&#45;&gt;SOFe_InfoAPI_StringInfo -->
<g id="edge8" class="edge">
<title>_anon_edge_3&#45;&gt;SOFe_InfoAPI_StringInfo</title>
<path fill="none" stroke="black" d="M1750.5,-1017.7C1709.98,-1063.46 1596.34,-1191.78 1547.53,-1246.9"/>
<polygon fill="black" stroke="black" points="1544.82,-1244.68 1540.81,-1254.48 1550.06,-1249.32 1544.82,-1244.68"/>
</g>
<!-- _anon_edge_4&#45;&gt;SOFe_InfoAPI_NumberInfo -->
<g id="edge10" class="edge">
<title>_anon_edge_4&#45;&gt;SOFe_InfoAPI_NumberInfo</title>
<path fill="none" stroke="black" d="M2264.48,-540.83C2188.75,-551.16 2069.97,-567.36 2004.95,-576.22"/>
<polygon fill="black" stroke="black" points="2004.43,-572.76 1995,-577.58 2005.38,-579.7 2004.43,-572.76"/>
</g>
<!-- _anon_edge_5&#45;&gt;SOFe_InfoAPI_NumberInfo -->
<g id="edge12" class="edge">
<title>_anon_edge_5&#45;&gt;SOFe_InfoAPI_NumberInfo</title>
<path fill="none" stroke="black" d="M2209.64,-740.15C2162.14,-710.33 2054.07,-642.48 1996.44,-606.3"/>
<polygon fill="black" stroke="black" points="1997.97,-603.12 1987.64,-600.77 1994.25,-609.05 1997.97,-603.12"/>
</g>
<!-- _anon_edge_6&#45;&gt;SOFe_InfoAPI_NumberInfo -->
<g id="edge14" class="edge">
<title>_anon_edge_6&#45;&gt;SOFe_InfoAPI_NumberInfo</title>
<path fill="none" stroke="black" d="M2087.81,-583.66C2057.54,-583.4 2028.03,-583.14 2004.87,-582.94"/>
<polygon fill="black" stroke="black" points="2004.73,-579.44 1994.7,-582.86 2004.67,-586.44 2004.73,-579.44"/>
</g>
<!-- _anon_edge_7&#45;&gt;SOFe_InfoAPI_NumberInfo -->
<g id="edge16" class="edge">
<title>_anon_edge_7&#45;&gt;SOFe_InfoAPI_NumberInfo</title>
<path fill="none" stroke="black" d="M2296.39,-459.08C2227.72,-484.18 2079.66,-538.29 2004.45,-565.78"/>
<polygon fill="black" stroke="black" points="2002.97,-562.6 1994.78,-569.32 2005.37,-569.17 2002.97,-562.6"/>
</g>
<!-- _anon_edge_8&#45;&gt;SOFe_InfoAPI_NumberInfo -->
<g id="edge18" class="edge">
<title>_anon_edge_8&#45;&gt;SOFe_InfoAPI_NumberInfo</title>
<path fill="none" stroke="black" d="M2252.35,-635.88C2184.07,-623.48 2069.14,-602.61 2005.15,-590.99"/>
<polygon fill="black" stroke="black" points="2005.42,-587.49 1994.96,-589.14 2004.17,-594.37 2005.42,-587.49"/>
</g>
<!-- _anon_edge_9&#45;&gt;SOFe_InfoAPI_NumberInfo -->
<g id="edge20" class="edge">
<title>_anon_edge_9&#45;&gt;SOFe_InfoAPI_NumberInfo</title>
<path fill="none" stroke="black" d="M2302.28,-722.39C2238.39,-696.39 2082.34,-632.89 2004.43,-601.19"/>
<polygon fill="black" stroke="black" points="2005.45,-597.83 1994.87,-597.3 2002.82,-604.31 2005.45,-597.83"/>
</g>
<!-- _anon_edge_10&#45;&gt;SOFe_InfoAPI_NumberInfo -->
<g id="edge22" class="edge">
<title>_anon_edge_10&#45;&gt;SOFe_InfoAPI_NumberInfo</title>
<path fill="none" stroke="black" d="M1656.59,-424.25C1713.65,-454.16 1846.2,-523.63 1915.16,-559.77"/>
<polygon fill="black" stroke="black" points="1913.57,-562.89 1924.05,-564.43 1916.82,-556.69 1913.57,-562.89"/>
</g>
<!-- _anon_edge_11&#45;&gt;SOFe_InfoAPI_NumberInfo -->
<g id="edge24" class="edge">
<title>_anon_edge_11&#45;&gt;SOFe_InfoAPI_NumberInfo</title>
<path fill="none" stroke="black" d="M1712.95,-302.83C1755.85,-351.68 1883.44,-496.95 1935.79,-556.57"/>
<polygon fill="black" stroke="black" points="1933.44,-559.19 1942.67,-564.39 1938.7,-554.57 1933.44,-559.19"/>
</g>
<!-- _anon_edge_12&#45;&gt;SOFe_InfoAPI_NumberInfo -->
<g id="edge26" class="edge">
<title>_anon_edge_12&#45;&gt;SOFe_InfoAPI_NumberInfo</title>
<path fill="none" stroke="black" d="M1655.21,-346.48C1709.48,-388.71 1861.33,-506.86 1927.33,-558.21"/>
<polygon fill="black" stroke="black" points="1925.27,-561.04 1935.31,-564.42 1929.56,-555.51 1925.27,-561.04"/>
</g>
<!-- _anon_edge_13&#45;&gt;SOFe_InfoAPI_WorldInfo -->
<g id="edge28" class="edge">
<title>_anon_edge_13&#45;&gt;SOFe_InfoAPI_WorldInfo</title>
<path fill="none" stroke="black" d="M1691.21,-30.81C1759.54,-49.87 1886.72,-85.33 1950.31,-103.07"/>
<polygon fill="black" stroke="black" points="1949.38,-106.44 1959.95,-105.75 1951.26,-99.7 1949.38,-106.44"/>
</g>
<!-- _anon_edge_14&#45;&gt;SOFe_InfoAPI_NumberInfo -->
<g id="edge30" class="edge">
<title>_anon_edge_14&#45;&gt;SOFe_InfoAPI_NumberInfo</title>
<path fill="none" stroke="black" d="M2037.99,-344.76C2023.43,-388.38 1985.49,-502.01 1967.86,-554.82"/>
<polygon fill="black" stroke="black" points="1964.46,-553.93 1964.62,-564.53 1971.1,-556.15 1964.46,-553.93"/>
</g>
<!-- _anon_edge_15&#45;&gt;SOFe_InfoAPI_NumberInfo -->
<g id="edge32" class="edge">
<title>_anon_edge_15&#45;&gt;SOFe_InfoAPI_NumberInfo</title>
<path fill="none" stroke="black" d="M2169.7,-265.52C2133.51,-319.87 2020.55,-489.51 1976.47,-555.71"/>
<polygon fill="black" stroke="black" points="1973.35,-554.07 1970.73,-564.34 1979.18,-557.95 1973.35,-554.07"/>
</g>
<!-- _anon_edge_16&#45;&gt;SOFe_InfoAPI_NumberInfo -->
<g id="edge34" class="edge">
<title>_anon_edge_16&#45;&gt;SOFe_InfoAPI_NumberInfo</title>
<path fill="none" stroke="black" d="M1901.31,-268.98C1911.24,-323.36 1941.24,-487.51 1953.4,-554.06"/>
<polygon fill="black" stroke="black" points="1950.02,-555.02 1955.26,-564.23 1956.9,-553.77 1950.02,-555.02"/>
</g>
<!-- _anon_edge_17&#45;&gt;SOFe_InfoAPI_NumberInfo -->
<g id="edge36" class="edge">
<title>_anon_edge_17&#45;&gt;SOFe_InfoAPI_NumberInfo</title>
<path fill="none" stroke="black" d="M2095.96,-216.8C2073.12,-277.63 1996.9,-480.56 1968.98,-554.92"/>
<polygon fill="black" stroke="black" points="1965.61,-553.94 1965.37,-564.54 1972.16,-556.4 1965.61,-553.94"/>
</g>
<!-- _anon_edge_18&#45;&gt;SOFe_InfoAPI_NumberInfo -->
<g id="edge38" class="edge">
<title>_anon_edge_18&#45;&gt;SOFe_InfoAPI_NumberInfo</title>
<path fill="none" stroke="black" d="M2125.07,-340.34C2095,-384.09 2013.33,-502.92 1976.75,-556.14"/>
<polygon fill="black" stroke="black" points="1973.86,-554.17 1971.08,-564.4 1979.63,-558.14 1973.86,-554.17"/>
</g>
<!-- _anon_edge_19&#45;&gt;SOFe_InfoAPI_NumberInfo -->
<g id="edge40" class="edge">
<title>_anon_edge_19&#45;&gt;SOFe_InfoAPI_NumberInfo</title>
<path fill="none" stroke="black" d="M1987.06,-263.46C1982.11,-318.93 1967.16,-486.63 1961.15,-554.03"/>
<polygon fill="black" stroke="black" points="1957.63,-554.05 1960.23,-564.32 1964.6,-554.67 1957.63,-554.05"/>
</g>
<!-- _anon_edge_20&#45;&gt;SOFe_InfoAPI_PositionInfo -->
<g id="edge42" class="edge">
<title>_anon_edge_20&#45;&gt;SOFe_InfoAPI_PositionInfo</title>
<path fill="none" stroke="black" d="M1044.28,-270.52C1129.21,-271.12 1265.84,-272.09 1337.49,-272.6"/>
<polygon fill="black" stroke="black" points="1337.55,-276.1 1347.58,-272.67 1337.6,-269.1 1337.55,-276.1"/>
</g>
<!-- _anon_edge_21&#45;&gt;SOFe_InfoAPI_BlockTypeInfo -->
<g id="edge44" class="edge">
<title>_anon_edge_21&#45;&gt;SOFe_InfoAPI_BlockTypeInfo</title>
<path fill="none" stroke="black" d="M277.97,-384.49C230.58,-374.99 152.72,-359.38 100.19,-348.84"/>
<polygon fill="black" stroke="black" points="100.86,-345.41 90.37,-346.87 99.48,-352.27 100.86,-345.41"/>
</g>
<!-- _anon_edge_22&#45;&gt;SOFe_InfoAPI_NumberInfo -->
<g id="edge46" class="edge">
<title>_anon_edge_22&#45;&gt;SOFe_InfoAPI_NumberInfo</title>
<path fill="none" stroke="black" d="M2301.37,-902.38C2243.33,-848.23 2055.83,-673.27 1985.54,-607.68"/>
<polygon fill="black" stroke="black" points="1987.65,-604.86 1977.95,-600.6 1982.88,-609.98 1987.65,-604.86"/>
</g>
<!-- _anon_edge_23&#45;&gt;SOFe_InfoAPI_NumberInfo -->
<g id="edge48" class="edge">
<title>_anon_edge_23&#45;&gt;SOFe_InfoAPI_NumberInfo</title>
<path fill="none" stroke="black" d="M1697.59,-592.7C1769.11,-589.92 1858.66,-586.43 1912.11,-584.35"/>
<polygon fill="black" stroke="black" points="1912.44,-587.84 1922.3,-583.96 1912.17,-580.85 1912.44,-587.84"/>
</g>
<!-- _anon_edge_24&#45;&gt;SOFe_InfoAPI_NumberInfo -->
<g id="edge50" class="edge">
<title>_anon_edge_24&#45;&gt;SOFe_InfoAPI_NumberInfo</title>
<path fill="none" stroke="black" d="M1693.53,-823.8C1741.34,-780.29 1873.4,-660.1 1931.06,-607.61"/>
<polygon fill="black" stroke="black" points="1933.65,-609.99 1938.69,-600.67 1928.94,-604.81 1933.65,-609.99"/>
</g>
<!-- _anon_edge_25&#45;&gt;SOFe_InfoAPI_NumberInfo -->
<g id="edge52" class="edge">
<title>_anon_edge_25&#45;&gt;SOFe_InfoAPI_NumberInfo</title>
<path fill="none" stroke="black" d="M1656.4,-770.88C1712.58,-735.86 1853.06,-648.32 1920.84,-606.07"/>
<polygon fill="black" stroke="black" points="1922.88,-608.93 1929.52,-600.67 1919.18,-602.99 1922.88,-608.93"/>
</g>
<!-- _anon_edge_26&#45;&gt;SOFe_InfoAPI_NumberInfo -->
<g id="edge54" class="edge">
<title>_anon_edge_26&#45;&gt;SOFe_InfoAPI_NumberInfo</title>
<path fill="none" stroke="black" d="M1718.82,-645.22C1772.55,-631.17 1859.54,-608.44 1912.66,-594.55"/>
<polygon fill="black" stroke="black" points="1913.7,-597.9 1922.49,-591.98 1911.93,-591.13 1913.7,-597.9"/>
</g>
<!-- _anon_edge_27&#45;&gt;SOFe_InfoAPI_NumberInfo -->
<g id="edge56" class="edge">
<title>_anon_edge_27&#45;&gt;SOFe_InfoAPI_NumberInfo</title>
<path fill="none" stroke="black" d="M1630.99,-681.89C1700.48,-660.82 1840.37,-618.4 1912.81,-596.43"/>
<polygon fill="black" stroke="black" points="1914.01,-599.72 1922.57,-593.47 1911.98,-593.02 1914.01,-599.72"/>
</g>
<!-- _anon_edge_28&#45;&gt;SOFe_InfoAPI_NumberInfo -->
<g id="edge58" class="edge">
<title>_anon_edge_28&#45;&gt;SOFe_InfoAPI_NumberInfo</title>
<path fill="none" stroke="black" d="M1734.56,-737.28C1777.66,-707.51 1872.69,-641.88 1924.05,-606.41"/>
<polygon fill="black" stroke="black" points="1926.26,-609.13 1932.5,-600.57 1922.29,-603.37 1926.26,-609.13"/>
</g>
<!-- _anon_edge_29&#45;&gt;SOFe_InfoAPI_StringInfo -->
<g id="edge60" class="edge">
<title>_anon_edge_29&#45;&gt;SOFe_InfoAPI_StringInfo</title>
<path fill="none" stroke="black" d="M1276.89,-1130.78C1325.91,-1158.83 1432.76,-1219.96 1488.82,-1252.03"/>
<polygon fill="black" stroke="black" points="1487.27,-1255.17 1497.69,-1257.1 1490.75,-1249.1 1487.27,-1255.17"/>
</g>
<!-- _anon_edge_30&#45;&gt;SOFe_InfoAPI_StringInfo -->
<g id="edge62" class="edge">
<title>_anon_edge_30&#45;&gt;SOFe_InfoAPI_StringInfo</title>
<path fill="none" stroke="black" d="M1398.51,-1102.03C1422.77,-1134.81 1476.23,-1207.02 1505.19,-1246.15"/>
<polygon fill="black" stroke="black" points="1502.56,-1248.47 1511.32,-1254.43 1508.19,-1244.31 1502.56,-1248.47"/>
</g>
<!-- _anon_edge_31&#45;&gt;SOFe_InfoAPI_StringInfo -->
<g id="edge64" class="edge">
<title>_anon_edge_31&#45;&gt;SOFe_InfoAPI_StringInfo</title>
<path fill="none" stroke="black" d="M1346.54,-1162.32C1381.6,-1184.01 1447.81,-1224.97 1488.91,-1250.41"/>
<polygon fill="black" stroke="black" points="1487.19,-1253.46 1497.53,-1255.74 1490.87,-1247.5 1487.19,-1253.46"/>
</g>
<!-- _anon_edge_32&#45;&gt;SOFe_InfoAPI_PositionInfo -->
<g id="edge66" class="edge">
<title>_anon_edge_32&#45;&gt;SOFe_InfoAPI_PositionInfo</title>
<path fill="none" stroke="black" d="M1268.14,-449.29C1290.38,-415.66 1340.51,-339.89 1367.25,-299.48"/>
<polygon fill="black" stroke="black" points="1370.29,-301.22 1372.89,-290.95 1364.45,-297.36 1370.29,-301.22"/>
</g>
<!-- _anon_edge_33&#45;&gt;SOFe_InfoAPI_PositionInfo -->
<g id="edge68" class="edge">
<title>_anon_edge_33&#45;&gt;SOFe_InfoAPI_PositionInfo</title>
<path fill="none" stroke="black" d="M1215.27,-511.89C1245.29,-469.57 1328.79,-351.89 1366.23,-299.12"/>
<polygon fill="black" stroke="black" points="1369.1,-301.11 1372.04,-290.93 1363.4,-297.06 1369.1,-301.11"/>
</g>
<!-- _anon_edge_34&#45;&gt;SOFe_InfoAPI_BlockInfo -->
<g id="edge70" class="edge">
<title>_anon_edge_34&#45;&gt;SOFe_InfoAPI_BlockInfo</title>
<path fill="none" stroke="black" d="M934.86,-606.65C887.59,-579.5 789.74,-523.29 736.78,-492.87"/>
<polygon fill="black" stroke="black" points="738.48,-489.81 728.06,-487.86 734.99,-495.88 738.48,-489.81"/>
</g>
<!-- _anon_edge_35&#45;&gt;SOFe_InfoAPI_BlockInfo -->
<g id="edge72" class="edge">
<title>_anon_edge_35&#45;&gt;SOFe_InfoAPI_BlockInfo</title>
<path fill="none" stroke="black" d="M914.55,-687.09C874.72,-647.04 773.34,-545.11 725.98,-497.48"/>
<polygon fill="black" stroke="black" points="728.39,-494.95 718.86,-490.33 723.43,-499.88 728.39,-494.95"/>
</g>
</g>
</svg>
