<?xml version="1.0" encoding="UTF-8" standalone="no"?>
<!DOCTYPE svg PUBLIC "-//W3C//DTD SVG 1.1//EN"
 "http://www.w3.org/Graphics/SVG/1.1/DTD/svg11.dtd">
<!-- Generated by graphviz version 2.43.0 (0)
 -->
<!-- Title: InfoAPI_Defaults Pages: 1 -->
<svg width="2848pt" height="1537pt"
 viewBox="0.00 0.00 2848.45 1536.63" xmlns="http://www.w3.org/2000/svg" xmlns:xlink="http://www.w3.org/1999/xlink">
<g id="graph0" class="graph" transform="scale(1 1) rotate(0) translate(36 1500.63)">
<title>InfoAPI_Defaults</title>
<polygon fill="white" stroke="transparent" points="-36,36 -36,-1500.63 2812.45,-1500.63 2812.45,36 -36,36"/>
<!-- SOFe_InfoAPI_StringInfo -->
<g id="node1" class="node">
<title>SOFe_InfoAPI_StringInfo</title>
<polygon fill="none" stroke="black" points="2059.02,-347.35 2005.02,-347.35 2005.02,-311.35 2059.02,-311.35 2059.02,-347.35"/>
<text text-anchor="middle" x="2032.02" y="-325.65" font-family="Times,serif" font-size="14.00">text</text>
</g>
<!-- _anon_edge_0 -->
<g id="node10" class="node">
<title>_anon_edge_0</title>
<polygon fill="none" stroke="black" points="2145.42,-36 1969.8,-18 2145.42,0 2321.04,-18 2145.42,-36"/>
<text text-anchor="middle" x="2145.42" y="-14.3" font-family="Times,serif" font-size="14.00">infoapi.string.uppercase</text>
</g>
<!-- SOFe_InfoAPI_StringInfo&#45;&gt;_anon_edge_0 -->
<g id="edge1" class="edge">
<title>SOFe_InfoAPI_StringInfo&#45;&gt;_anon_edge_0</title>
<path fill="none" stroke="black" d="M2046.39,-310.9C2074.24,-258.41 2129.03,-108.57 2143.54,-45.95"/>
<polygon fill="black" stroke="black" points="2147,-46.5 2145.64,-35.99 2140.15,-45.05 2147,-46.5"/>
</g>
<!-- _anon_edge_1 -->
<g id="node11" class="node">
<title>_anon_edge_1</title>
<polygon fill="none" stroke="black" points="2272.73,-116.68 2100.13,-98.68 2272.73,-80.68 2445.34,-98.68 2272.73,-116.68"/>
<text text-anchor="middle" x="2272.73" y="-94.98" font-family="Times,serif" font-size="14.00">infoapi.string.lowercase</text>
</g>
<!-- SOFe_InfoAPI_StringInfo&#45;&gt;_anon_edge_1 -->
<g id="edge3" class="edge">
<title>SOFe_InfoAPI_StringInfo&#45;&gt;_anon_edge_1</title>
<path fill="none" stroke="black" d="M2059.45,-314.36C2110.6,-275.3 2217.74,-172.54 2257.72,-124.09"/>
<polygon fill="black" stroke="black" points="2260.69,-125.98 2264.17,-115.98 2255.2,-121.63 2260.69,-125.98"/>
</g>
<!-- SOFe_InfoAPI_NumberInfo -->
<g id="node2" class="node">
<title>SOFe_InfoAPI_NumberInfo</title>
<polygon fill="none" stroke="black" points="1264.44,-819.23 1192.44,-819.23 1192.44,-783.23 1264.44,-783.23 1264.44,-819.23"/>
<text text-anchor="middle" x="1228.44" y="-797.53" font-family="Times,serif" font-size="14.00">number</text>
</g>
<!-- _anon_edge_2 -->
<g id="node12" class="node">
<title>_anon_edge_2</title>
<polygon fill="none" stroke="black" points="1645.95,-512.58 1429.94,-494.58 1645.95,-476.58 1861.95,-494.58 1645.95,-512.58"/>
<text text-anchor="middle" x="1645.95" y="-490.88" font-family="Times,serif" font-size="14.00">infoapi.number.english.ordinal</text>
</g>
<!-- SOFe_InfoAPI_NumberInfo&#45;&gt;_anon_edge_2 -->
<g id="edge5" class="edge">
<title>SOFe_InfoAPI_NumberInfo&#45;&gt;_anon_edge_2</title>
<path fill="none" stroke="black" d="M1253,-783.19C1325.18,-730.17 1536.55,-574.93 1615.62,-516.85"/>
<polygon fill="black" stroke="black" points="1617.74,-519.64 1623.73,-510.9 1613.6,-513.99 1617.74,-519.64"/>
</g>
<!-- _anon_edge_3 -->
<g id="node13" class="node">
<title>_anon_edge_3</title>
<polygon fill="none" stroke="black" points="1593.26,-451.65 1424.85,-433.65 1593.26,-415.65 1761.67,-433.65 1593.26,-451.65"/>
<text text-anchor="middle" x="1593.26" y="-429.95" font-family="Times,serif" font-size="14.00">infoapi.number.percent</text>
</g>
<!-- SOFe_InfoAPI_NumberInfo&#45;&gt;_anon_edge_3 -->
<g id="edge7" class="edge">
<title>SOFe_InfoAPI_NumberInfo&#45;&gt;_anon_edge_3</title>
<path fill="none" stroke="black" d="M1246.54,-783C1306.9,-722.18 1501.39,-526.22 1569.46,-457.63"/>
<polygon fill="black" stroke="black" points="1572.19,-459.85 1576.75,-450.28 1567.23,-454.91 1572.19,-459.85"/>
</g>
<!-- SOFe_InfoAPI_RatioInfo -->
<g id="node3" class="node">
<title>SOFe_InfoAPI_RatioInfo</title>
<polygon fill="none" stroke="black" points="751.58,-517.31 659.58,-517.31 659.58,-481.31 751.58,-481.31 751.58,-517.31"/>
<text text-anchor="middle" x="705.58" y="-495.61" font-family="Times,serif" font-size="14.00">proportion</text>
</g>
<!-- _anon_edge_4 -->
<g id="node14" class="node">
<title>_anon_edge_4</title>
<polygon fill="none" stroke="black" points="1008.31,-522.28 860.35,-504.28 1008.31,-486.28 1156.28,-504.28 1008.31,-522.28"/>
<text text-anchor="middle" x="1008.31" y="-500.58" font-family="Times,serif" font-size="14.00">infoapi.ratio.current</text>
</g>
<!-- SOFe_InfoAPI_RatioInfo&#45;&gt;_anon_edge_4 -->
<g id="edge9" class="edge">
<title>SOFe_InfoAPI_RatioInfo&#45;&gt;_anon_edge_4</title>
<path fill="none" stroke="black" d="M751.89,-500.07C783.1,-500.59 826.05,-501.29 867.89,-501.98"/>
<polygon fill="black" stroke="black" points="867.87,-505.48 877.93,-502.14 867.99,-498.48 867.87,-505.48"/>
</g>
<!-- _anon_edge_5 -->
<g id="node15" class="node">
<title>_anon_edge_5</title>
<polygon fill="none" stroke="black" points="850.85,-681.18 724.16,-663.18 850.85,-645.18 977.53,-663.18 850.85,-681.18"/>
<text text-anchor="middle" x="850.85" y="-659.48" font-family="Times,serif" font-size="14.00">infoapi.ratio.max</text>
</g>
<!-- SOFe_InfoAPI_RatioInfo&#45;&gt;_anon_edge_5 -->
<g id="edge11" class="edge">
<title>SOFe_InfoAPI_RatioInfo&#45;&gt;_anon_edge_5</title>
<path fill="none" stroke="black" d="M721.68,-517.48C747.97,-547.13 800.11,-605.94 829.47,-639.06"/>
<polygon fill="black" stroke="black" points="827.16,-641.73 836.41,-646.9 832.4,-637.09 827.16,-641.73"/>
</g>
<!-- _anon_edge_6 -->
<g id="node16" class="node">
<title>_anon_edge_6</title>
<polygon fill="none" stroke="black" points="932.52,-501.33 766.29,-483.33 932.52,-465.33 1098.76,-483.33 932.52,-501.33"/>
<text text-anchor="middle" x="932.52" y="-479.63" font-family="Times,serif" font-size="14.00">infoapi.ratio.remaining</text>
</g>
<!-- SOFe_InfoAPI_RatioInfo&#45;&gt;_anon_edge_6 -->
<g id="edge13" class="edge">
<title>SOFe_InfoAPI_RatioInfo&#45;&gt;_anon_edge_6</title>
<path fill="none" stroke="black" d="M751.78,-496.06C772.06,-494.63 796.82,-492.89 821.43,-491.15"/>
<polygon fill="black" stroke="black" points="821.85,-494.63 831.58,-490.44 821.36,-487.65 821.85,-494.63"/>
</g>
<!-- _anon_edge_7 -->
<g id="node17" class="node">
<title>_anon_edge_7</title>
<polygon fill="none" stroke="black" points="813.49,-748.43 674.91,-730.43 813.49,-712.43 952.08,-730.43 813.49,-748.43"/>
<text text-anchor="middle" x="813.49" y="-726.73" font-family="Times,serif" font-size="14.00">infoapi.ratio.invert</text>
</g>
<!-- SOFe_InfoAPI_RatioInfo&#45;&gt;_anon_edge_7 -->
<g id="edge15" class="edge">
<title>SOFe_InfoAPI_RatioInfo&#45;&gt;_anon_edge_7</title>
<path fill="none" stroke="black" d="M714.05,-517.45C733.02,-558.08 779.01,-656.57 801.16,-704.02"/>
<polygon fill="black" stroke="black" points="798.1,-705.75 805.51,-713.33 804.45,-702.78 798.1,-705.75"/>
</g>
<!-- _anon_edge_8 -->
<g id="node18" class="node">
<title>_anon_edge_8</title>
<polygon fill="none" stroke="black" points="949.76,-647.7 826.42,-629.7 949.76,-611.7 1073.09,-629.7 949.76,-647.7"/>
<text text-anchor="middle" x="949.76" y="-626" font-family="Times,serif" font-size="14.00">infoapi.ratio.lost</text>
</g>
<!-- SOFe_InfoAPI_RatioInfo&#45;&gt;_anon_edge_8 -->
<g id="edge17" class="edge">
<title>SOFe_InfoAPI_RatioInfo&#45;&gt;_anon_edge_8</title>
<path fill="none" stroke="black" d="M739.53,-517.44C785.6,-542.04 867.52,-585.79 914.34,-610.78"/>
<polygon fill="black" stroke="black" points="912.74,-613.9 923.21,-615.52 916.04,-607.73 912.74,-613.9"/>
</g>
<!-- _anon_edge_9 -->
<g id="node19" class="node">
<title>_anon_edge_9</title>
<polygon fill="none" stroke="black" points="880.32,-586.87 804.24,-568.87 880.32,-550.87 956.4,-568.87 880.32,-586.87"/>
<text text-anchor="middle" x="880.32" y="-565.17" font-family="Times,serif" font-size="14.00">(fallback)</text>
</g>
<!-- SOFe_InfoAPI_RatioInfo&#45;&gt;_anon_edge_9 -->
<g id="edge19" class="edge">
<title>SOFe_InfoAPI_RatioInfo&#45;&gt;_anon_edge_9</title>
<path fill="none" stroke="black" d="M751.04,-517.41C779.41,-528.7 815.5,-543.07 842.34,-553.75"/>
<polygon fill="black" stroke="black" points="841.19,-557.06 851.78,-557.51 843.78,-550.56 841.19,-557.06"/>
</g>
<!-- SOFe_InfoAPI_PositionInfo -->
<g id="node4" class="node">
<title>SOFe_InfoAPI_PositionInfo</title>
<polygon fill="none" stroke="black" points="1667.5,-1314.09 1593.5,-1314.09 1593.5,-1278.09 1667.5,-1278.09 1667.5,-1314.09"/>
<text text-anchor="middle" x="1630.5" y="-1292.39" font-family="Times,serif" font-size="14.00">position</text>
</g>
<!-- _anon_edge_10 -->
<g id="node20" class="node">
<title>_anon_edge_10</title>
<polygon fill="none" stroke="black" points="1446.77,-1155.81 1317.91,-1137.81 1446.77,-1119.81 1575.64,-1137.81 1446.77,-1155.81"/>
<text text-anchor="middle" x="1446.77" y="-1134.11" font-family="Times,serif" font-size="14.00">infoapi.position.x</text>
</g>
<!-- SOFe_InfoAPI_PositionInfo&#45;&gt;_anon_edge_10 -->
<g id="edge21" class="edge">
<title>SOFe_InfoAPI_PositionInfo&#45;&gt;_anon_edge_10</title>
<path fill="none" stroke="black" d="M1609.42,-1277.93C1575.6,-1248.79 1509.29,-1191.66 1472.65,-1160.09"/>
<polygon fill="black" stroke="black" points="1474.73,-1157.27 1464.87,-1153.39 1470.16,-1162.57 1474.73,-1157.27"/>
</g>
<!-- _anon_edge_11 -->
<g id="node21" class="node">
<title>_anon_edge_11</title>
<polygon fill="none" stroke="black" points="1370.65,-1129.09 1241.79,-1111.09 1370.65,-1093.09 1499.52,-1111.09 1370.65,-1129.09"/>
<text text-anchor="middle" x="1370.65" y="-1107.39" font-family="Times,serif" font-size="14.00">infoapi.position.y</text>
</g>
<!-- SOFe_InfoAPI_PositionInfo&#45;&gt;_anon_edge_11 -->
<g id="edge23" class="edge">
<title>SOFe_InfoAPI_PositionInfo&#45;&gt;_anon_edge_11</title>
<path fill="none" stroke="black" d="M1605.11,-1278.01C1556.82,-1243.64 1451.98,-1168.99 1400.46,-1132.31"/>
<polygon fill="black" stroke="black" points="1402.25,-1129.29 1392.07,-1126.34 1398.19,-1134.99 1402.25,-1129.29"/>
</g>
<!-- _anon_edge_12 -->
<g id="node22" class="node">
<title>_anon_edge_12</title>
<polygon fill="none" stroke="black" points="1352.54,-1218.63 1225.01,-1200.63 1352.54,-1182.63 1480.06,-1200.63 1352.54,-1218.63"/>
<text text-anchor="middle" x="1352.54" y="-1196.93" font-family="Times,serif" font-size="14.00">infoapi.position.z</text>
</g>
<!-- SOFe_InfoAPI_PositionInfo&#45;&gt;_anon_edge_12 -->
<g id="edge25" class="edge">
<title>SOFe_InfoAPI_PositionInfo&#45;&gt;_anon_edge_12</title>
<path fill="none" stroke="black" d="M1593.3,-1283.31C1543.3,-1266.14 1454.41,-1235.62 1399.75,-1216.85"/>
<polygon fill="black" stroke="black" points="1400.55,-1213.42 1389.96,-1213.48 1398.28,-1220.04 1400.55,-1213.42"/>
</g>
<!-- _anon_edge_13 -->
<g id="node23" class="node">
<title>_anon_edge_13</title>
<polygon fill="none" stroke="black" points="1286.73,-1464.63 1128.54,-1446.63 1286.73,-1428.63 1444.92,-1446.63 1286.73,-1464.63"/>
<text text-anchor="middle" x="1286.73" y="-1442.93" font-family="Times,serif" font-size="14.00">infoapi.position.world</text>
</g>
<!-- SOFe_InfoAPI_PositionInfo&#45;&gt;_anon_edge_13 -->
<g id="edge27" class="edge">
<title>SOFe_InfoAPI_PositionInfo&#45;&gt;_anon_edge_13</title>
<path fill="none" stroke="black" d="M1593.38,-1312.34C1529.01,-1340.53 1397.06,-1398.31 1329.16,-1428.04"/>
<polygon fill="black" stroke="black" points="1327.38,-1425 1319.62,-1432.22 1330.19,-1431.41 1327.38,-1425"/>
</g>
<!-- SOFe_InfoAPI_WorldInfo -->
<g id="node5" class="node">
<title>SOFe_InfoAPI_WorldInfo</title>
<polygon fill="none" stroke="black" points="1029.07,-1241.6 972.07,-1241.6 972.07,-1205.6 1029.07,-1205.6 1029.07,-1241.6"/>
<text text-anchor="middle" x="1000.57" y="-1219.9" font-family="Times,serif" font-size="14.00">world</text>
</g>
<!-- _anon_edge_14 -->
<g id="node24" class="node">
<title>_anon_edge_14</title>
<polygon fill="none" stroke="black" points="929.76,-1111.35 788.16,-1093.35 929.76,-1075.35 1071.36,-1093.35 929.76,-1111.35"/>
<text text-anchor="middle" x="929.76" y="-1089.65" font-family="Times,serif" font-size="14.00">infoapi.world.name</text>
</g>
<!-- SOFe_InfoAPI_WorldInfo&#45;&gt;_anon_edge_14 -->
<g id="edge29" class="edge">
<title>SOFe_InfoAPI_WorldInfo&#45;&gt;_anon_edge_14</title>
<path fill="none" stroke="black" d="M990.73,-1205.49C978.6,-1183.18 957.89,-1145.1 944.02,-1119.58"/>
<polygon fill="black" stroke="black" points="946.92,-1117.59 939.07,-1110.48 940.77,-1120.94 946.92,-1117.59"/>
</g>
<!-- _anon_edge_15 -->
<g id="node25" class="node">
<title>_anon_edge_15</title>
<polygon fill="none" stroke="black" points="882.14,-1025.07 699.31,-1007.07 882.14,-989.07 1064.96,-1007.07 882.14,-1025.07"/>
<text text-anchor="middle" x="882.14" y="-1003.37" font-family="Times,serif" font-size="14.00">infoapi.world.folderName</text>
</g>
<!-- SOFe_InfoAPI_WorldInfo&#45;&gt;_anon_edge_15 -->
<g id="edge31" class="edge">
<title>SOFe_InfoAPI_WorldInfo&#45;&gt;_anon_edge_15</title>
<path fill="none" stroke="black" d="M990.68,-1205.51C969.71,-1167.18 920.73,-1077.63 896.39,-1033.13"/>
<polygon fill="black" stroke="black" points="899.46,-1031.45 891.59,-1024.35 893.32,-1034.81 899.46,-1031.45"/>
</g>
<!-- _anon_edge_16 -->
<g id="node26" class="node">
<title>_anon_edge_16</title>
<polygon fill="none" stroke="black" points="1079.75,-1028.95 887.54,-1010.95 1079.75,-992.95 1271.95,-1010.95 1079.75,-1028.95"/>
<text text-anchor="middle" x="1079.75" y="-1007.25" font-family="Times,serif" font-size="14.00">infoapi.world.customName</text>
</g>
<!-- SOFe_InfoAPI_WorldInfo&#45;&gt;_anon_edge_16 -->
<g id="edge33" class="edge">
<title>SOFe_InfoAPI_WorldInfo&#45;&gt;_anon_edge_16</title>
<path fill="none" stroke="black" d="M1007.32,-1205.47C1021.27,-1168.01 1053.33,-1081.91 1069.71,-1037.91"/>
<polygon fill="black" stroke="black" points="1073.03,-1039.03 1073.24,-1028.43 1066.47,-1036.59 1073.03,-1039.03"/>
</g>
<!-- _anon_edge_17 -->
<g id="node27" class="node">
<title>_anon_edge_17</title>
<polygon fill="none" stroke="black" points="1016.85,-1093.46 825.48,-1075.46 1016.85,-1057.46 1208.22,-1075.46 1016.85,-1093.46"/>
<text text-anchor="middle" x="1016.85" y="-1071.76" font-family="Times,serif" font-size="14.00">infoapi.world.displayName</text>
</g>
<!-- SOFe_InfoAPI_WorldInfo&#45;&gt;_anon_edge_17 -->
<g id="edge35" class="edge">
<title>SOFe_InfoAPI_WorldInfo&#45;&gt;_anon_edge_17</title>
<path fill="none" stroke="black" d="M1002.57,-1205.44C1005.37,-1179.98 1010.48,-1133.45 1013.77,-1103.52"/>
<polygon fill="black" stroke="black" points="1017.28,-1103.63 1014.89,-1093.31 1010.32,-1102.87 1017.28,-1103.63"/>
</g>
<!-- _anon_edge_18 -->
<g id="node28" class="node">
<title>_anon_edge_18</title>
<polygon fill="none" stroke="black" points="1116.38,-1161.82 981.15,-1143.82 1116.38,-1125.82 1251.62,-1143.82 1116.38,-1161.82"/>
<text text-anchor="middle" x="1116.38" y="-1140.12" font-family="Times,serif" font-size="14.00">infoapi.world.time</text>
</g>
<!-- SOFe_InfoAPI_WorldInfo&#45;&gt;_anon_edge_18 -->
<g id="edge37" class="edge">
<title>SOFe_InfoAPI_WorldInfo&#45;&gt;_anon_edge_18</title>
<path fill="none" stroke="black" d="M1026.85,-1205.5C1044.4,-1193.41 1067.54,-1177.47 1085.9,-1164.82"/>
<polygon fill="black" stroke="black" points="1088.23,-1167.47 1094.48,-1158.91 1084.26,-1161.7 1088.23,-1167.47"/>
</g>
<!-- _anon_edge_19 -->
<g id="node29" class="node">
<title>_anon_edge_19</title>
<polygon fill="none" stroke="black" points="961.15,-973.25 825.08,-955.25 961.15,-937.25 1097.22,-955.25 961.15,-973.25"/>
<text text-anchor="middle" x="961.15" y="-951.55" font-family="Times,serif" font-size="14.00">infoapi.world.seed</text>
</g>
<!-- SOFe_InfoAPI_WorldInfo&#45;&gt;_anon_edge_19 -->
<g id="edge39" class="edge">
<title>SOFe_InfoAPI_WorldInfo&#45;&gt;_anon_edge_19</title>
<path fill="none" stroke="black" d="M997.93,-1205.58C991.19,-1159.75 973.38,-1038.49 965.27,-983.31"/>
<polygon fill="black" stroke="black" points="968.7,-982.58 963.78,-973.19 961.77,-983.59 968.7,-982.58"/>
</g>
<!-- SOFe_InfoAPI_BlockTypeInfo -->
<g id="node6" class="node">
<title>SOFe_InfoAPI_BlockTypeInfo</title>
<polygon fill="none" stroke="black" points="2776.45,-628.68 2686.45,-628.68 2686.45,-592.68 2776.45,-592.68 2776.45,-628.68"/>
<text text-anchor="middle" x="2731.45" y="-606.98" font-family="Times,serif" font-size="14.00">block type</text>
</g>
<!-- _anon_edge_20 -->
<g id="node30" class="node">
<title>_anon_edge_20</title>
<polygon fill="none" stroke="black" points="2462.72,-415.35 2324.13,-397.35 2462.72,-379.35 2601.3,-397.35 2462.72,-415.35"/>
<text text-anchor="middle" x="2462.72" y="-393.65" font-family="Times,serif" font-size="14.00">infoapi.block.name</text>
</g>
<!-- SOFe_InfoAPI_BlockTypeInfo&#45;&gt;_anon_edge_20 -->
<g id="edge41" class="edge">
<title>SOFe_InfoAPI_BlockTypeInfo&#45;&gt;_anon_edge_20</title>
<path fill="none" stroke="black" d="M2708.54,-592.49C2659.26,-553.37 2543.38,-461.38 2490.23,-419.19"/>
<polygon fill="black" stroke="black" points="2492.27,-416.34 2482.26,-412.86 2487.91,-421.82 2492.27,-416.34"/>
</g>
<!-- SOFe_InfoAPI_BlockInfo -->
<g id="node7" class="node">
<title>SOFe_InfoAPI_BlockInfo</title>
<polygon fill="none" stroke="black" points="2411.83,-1124.94 2357.83,-1124.94 2357.83,-1088.94 2411.83,-1088.94 2411.83,-1124.94"/>
<text text-anchor="middle" x="2384.83" y="-1103.24" font-family="Times,serif" font-size="14.00">block</text>
</g>
<!-- _anon_edge_21 -->
<g id="node31" class="node">
<title>_anon_edge_21</title>
<polygon fill="none" stroke="black" points="2073.24,-1348.69 1997.16,-1330.69 2073.24,-1312.69 2149.32,-1330.69 2073.24,-1348.69"/>
<text text-anchor="middle" x="2073.24" y="-1326.99" font-family="Times,serif" font-size="14.00">(fallback)</text>
</g>
<!-- SOFe_InfoAPI_BlockInfo&#45;&gt;_anon_edge_21 -->
<g id="edge43" class="edge">
<title>SOFe_InfoAPI_BlockInfo&#45;&gt;_anon_edge_21</title>
<path fill="none" stroke="black" d="M2359.59,-1125.06C2301.73,-1166.61 2159.92,-1268.45 2100.32,-1311.24"/>
<polygon fill="black" stroke="black" points="2098.22,-1308.44 2092.14,-1317.11 2102.31,-1314.12 2098.22,-1308.44"/>
</g>
<!-- _anon_edge_22 -->
<g id="node32" class="node">
<title>_anon_edge_22</title>
<polygon fill="none" stroke="black" points="2694.33,-929.34 2618.25,-911.34 2694.33,-893.34 2770.41,-911.34 2694.33,-929.34"/>
<text text-anchor="middle" x="2694.33" y="-907.64" font-family="Times,serif" font-size="14.00">(fallback)</text>
</g>
<!-- SOFe_InfoAPI_BlockInfo&#45;&gt;_anon_edge_22 -->
<g id="edge45" class="edge">
<title>SOFe_InfoAPI_BlockInfo&#45;&gt;_anon_edge_22</title>
<path fill="none" stroke="black" d="M2412.02,-1089.75C2469.97,-1053.13 2605.18,-967.68 2664.99,-929.88"/>
<polygon fill="black" stroke="black" points="2667,-932.75 2673.58,-924.45 2663.26,-926.84 2667,-932.75"/>
</g>
<!-- SOFe_InfoAPI_CommonInfo -->
<g id="node8" class="node">
<title>SOFe_InfoAPI_CommonInfo</title>
<polygon fill="none" stroke="black" points="77,-228.9 0,-228.9 0,-192.9 77,-192.9 77,-228.9"/>
<text text-anchor="middle" x="38.5" y="-207.2" font-family="Times,serif" font-size="14.00">common</text>
</g>
<!-- _anon_edge_23 -->
<g id="node33" class="node">
<title>_anon_edge_23</title>
<polygon fill="none" stroke="black" points="314.32,-344.79 156.97,-326.79 314.32,-308.79 471.67,-326.79 314.32,-344.79"/>
<text text-anchor="middle" x="314.32" y="-323.09" font-family="Times,serif" font-size="14.00">infoapi.server.players</text>
</g>
<!-- SOFe_InfoAPI_CommonInfo&#45;&gt;_anon_edge_23 -->
<g id="edge47" class="edge">
<title>SOFe_InfoAPI_CommonInfo&#45;&gt;_anon_edge_23</title>
<path fill="none" stroke="black" d="M77.14,-227.13C128.09,-248.54 217.48,-286.1 270.77,-308.49"/>
<polygon fill="black" stroke="black" points="269.7,-311.84 280.28,-312.48 272.41,-305.38 269.7,-311.84"/>
</g>
<!-- SOFe_InfoAPI_PlayerInfo -->
<g id="node9" class="node">
<title>SOFe_InfoAPI_PlayerInfo</title>
<polygon fill="none" stroke="black" points="1848.31,-825.59 1786.31,-825.59 1786.31,-789.59 1848.31,-789.59 1848.31,-825.59"/>
<text text-anchor="middle" x="1817.31" y="-803.89" font-family="Times,serif" font-size="14.00">player</text>
</g>
<!-- _anon_edge_24 -->
<g id="node34" class="node">
<title>_anon_edge_24</title>
<polygon fill="none" stroke="black" points="1581.38,-692.8 1437.26,-674.8 1581.38,-656.8 1725.49,-674.8 1581.38,-692.8"/>
<text text-anchor="middle" x="1581.38" y="-671.1" font-family="Times,serif" font-size="14.00">infoapi.player.name</text>
</g>
<!-- SOFe_InfoAPI_PlayerInfo&#45;&gt;_anon_edge_24 -->
<g id="edge49" class="edge">
<title>SOFe_InfoAPI_PlayerInfo&#45;&gt;_anon_edge_24</title>
<path fill="none" stroke="black" d="M1785.98,-789.96C1742.12,-765.27 1662.65,-720.55 1616.73,-694.7"/>
<polygon fill="black" stroke="black" points="1618.17,-691.49 1607.74,-689.64 1614.73,-697.59 1618.17,-691.49"/>
</g>
<!-- _anon_edge_25 -->
<g id="node35" class="node">
<title>_anon_edge_25</title>
<polygon fill="none" stroke="black" points="1483.85,-734.53 1347.78,-716.53 1483.85,-698.53 1619.92,-716.53 1483.85,-734.53"/>
<text text-anchor="middle" x="1483.85" y="-712.83" font-family="Times,serif" font-size="14.00">infoapi.player.port</text>
</g>
<!-- SOFe_InfoAPI_PlayerInfo&#45;&gt;_anon_edge_25 -->
<g id="edge51" class="edge">
<title>SOFe_InfoAPI_PlayerInfo&#45;&gt;_anon_edge_25</title>
<path fill="none" stroke="black" d="M1786.24,-799.11C1729.6,-783.64 1608.93,-750.69 1538.35,-731.41"/>
<polygon fill="black" stroke="black" points="1538.88,-727.93 1528.31,-728.67 1537.04,-734.68 1538.88,-727.93"/>
</g>
<!-- _anon_edge_26 -->
<g id="node36" class="node">
<title>_anon_edge_26</title>
<polygon fill="none" stroke="black" points="1483.79,-854.67 1346.88,-836.67 1483.79,-818.67 1620.7,-836.67 1483.79,-854.67"/>
<text text-anchor="middle" x="1483.79" y="-832.97" font-family="Times,serif" font-size="14.00">infoapi.player.ping</text>
</g>
<!-- SOFe_InfoAPI_PlayerInfo&#45;&gt;_anon_edge_26 -->
<g id="edge53" class="edge">
<title>SOFe_InfoAPI_PlayerInfo&#45;&gt;_anon_edge_26</title>
<path fill="none" stroke="black" d="M1786.23,-810.3C1738.84,-814.44 1646.6,-822.48 1576.39,-828.6"/>
<polygon fill="black" stroke="black" points="1575.86,-825.13 1566.2,-829.49 1576.46,-832.11 1575.86,-825.13"/>
</g>
<!-- _anon_edge_27 -->
<g id="node37" class="node">
<title>_anon_edge_27</title>
<polygon fill="none" stroke="black" points="1497.11,-643.38 1347.46,-625.38 1497.11,-607.38 1646.75,-625.38 1497.11,-643.38"/>
<text text-anchor="middle" x="1497.11" y="-621.68" font-family="Times,serif" font-size="14.00">infoapi.player.health</text>
</g>
<!-- SOFe_InfoAPI_PlayerInfo&#45;&gt;_anon_edge_27 -->
<g id="edge55" class="edge">
<title>SOFe_InfoAPI_PlayerInfo&#45;&gt;_anon_edge_27</title>
<path fill="none" stroke="black" d="M1786.02,-789.79C1726.03,-755.65 1595.19,-681.19 1532.27,-645.39"/>
<polygon fill="black" stroke="black" points="1533.92,-642.3 1523.5,-640.4 1530.46,-648.38 1533.92,-642.3"/>
</g>
<!-- _anon_edge_28 -->
<g id="node38" class="node">
<title>_anon_edge_28</title>
<polygon fill="none" stroke="black" points="1580.33,-875.04 1430.68,-857.04 1580.33,-839.04 1729.97,-857.04 1580.33,-875.04"/>
<text text-anchor="middle" x="1580.33" y="-853.34" font-family="Times,serif" font-size="14.00">infoapi.player.health</text>
</g>
<!-- SOFe_InfoAPI_PlayerInfo&#45;&gt;_anon_edge_28 -->
<g id="edge57" class="edge">
<title>SOFe_InfoAPI_PlayerInfo&#45;&gt;_anon_edge_28</title>
<path fill="none" stroke="black" d="M1785.84,-814.16C1750.06,-821.62 1690.7,-834.01 1644.95,-843.56"/>
<polygon fill="black" stroke="black" points="1644.18,-840.14 1635.11,-845.61 1645.61,-846.99 1644.18,-840.14"/>
</g>
<!-- _anon_edge_29 -->
<g id="node39" class="node">
<title>_anon_edge_29</title>
<polygon fill="none" stroke="black" points="1574.1,-786.32 1439.71,-768.32 1574.1,-750.32 1708.5,-768.32 1574.1,-786.32"/>
<text text-anchor="middle" x="1574.1" y="-764.62" font-family="Times,serif" font-size="14.00">infoapi.player.yaw</text>
</g>
<!-- SOFe_InfoAPI_PlayerInfo&#45;&gt;_anon_edge_29 -->
<g id="edge59" class="edge">
<title>SOFe_InfoAPI_PlayerInfo&#45;&gt;_anon_edge_29</title>
<path fill="none" stroke="black" d="M1786.01,-802.54C1750.63,-796.83 1691.89,-787.34 1645.22,-779.8"/>
<polygon fill="black" stroke="black" points="1645.58,-776.31 1635.15,-778.18 1644.47,-783.23 1645.58,-776.31"/>
</g>
<!-- _anon_edge_30 -->
<g id="node40" class="node">
<title>_anon_edge_30</title>
<polygon fill="none" stroke="black" points="1554.74,-948.19 1413.14,-930.19 1554.74,-912.19 1696.34,-930.19 1554.74,-948.19"/>
<text text-anchor="middle" x="1554.74" y="-926.49" font-family="Times,serif" font-size="14.00">infoapi.player.pitch</text>
</g>
<!-- SOFe_InfoAPI_PlayerInfo&#45;&gt;_anon_edge_30 -->
<g id="edge61" class="edge">
<title>SOFe_InfoAPI_PlayerInfo&#45;&gt;_anon_edge_30</title>
<path fill="none" stroke="black" d="M1786.16,-822.14C1738.46,-844.41 1647.34,-886.96 1594.79,-911.49"/>
<polygon fill="black" stroke="black" points="1593.03,-908.45 1585.45,-915.86 1595.99,-914.8 1593.03,-908.45"/>
</g>
<!-- _anon_edge_31 -->
<g id="node41" class="node">
<title>_anon_edge_31</title>
<polygon fill="none" stroke="black" points="2090.12,-599.57 1954.89,-581.57 2090.12,-563.57 2225.35,-581.57 2090.12,-599.57"/>
<text text-anchor="middle" x="2090.12" y="-577.87" font-family="Times,serif" font-size="14.00">infoapi.player.nick</text>
</g>
<!-- SOFe_InfoAPI_PlayerInfo&#45;&gt;_anon_edge_31 -->
<g id="edge63" class="edge">
<title>SOFe_InfoAPI_PlayerInfo&#45;&gt;_anon_edge_31</title>
<path fill="none" stroke="black" d="M1839.17,-789.48C1888.72,-748.43 2009.44,-648.42 2063.35,-603.75"/>
<polygon fill="black" stroke="black" points="2065.64,-606.4 2071.1,-597.33 2061.17,-601.01 2065.64,-606.4"/>
</g>
<!-- _anon_edge_32 -->
<g id="node42" class="node">
<title>_anon_edge_32</title>
<polygon fill="none" stroke="black" points="1947.76,-506.98 1782.36,-488.98 1947.76,-470.98 2113.16,-488.98 1947.76,-506.98"/>
<text text-anchor="middle" x="1947.76" y="-485.28" font-family="Times,serif" font-size="14.00">infoapi.player.nametag</text>
</g>
<!-- SOFe_InfoAPI_PlayerInfo&#45;&gt;_anon_edge_32 -->
<g id="edge65" class="edge">
<title>SOFe_InfoAPI_PlayerInfo&#45;&gt;_anon_edge_32</title>
<path fill="none" stroke="black" d="M1824.69,-789.55C1846.54,-736.19 1910.92,-578.95 1936.8,-515.74"/>
<polygon fill="black" stroke="black" points="1940.06,-517.01 1940.61,-506.43 1933.58,-514.36 1940.06,-517.01"/>
</g>
<!-- _anon_edge_33 -->
<g id="node43" class="node">
<title>_anon_edge_33</title>
<polygon fill="none" stroke="black" points="2026.65,-553.73 1906.33,-535.73 2026.65,-517.73 2146.97,-535.73 2026.65,-553.73"/>
<text text-anchor="middle" x="2026.65" y="-532.03" font-family="Times,serif" font-size="14.00">infoapi.player.ip</text>
</g>
<!-- SOFe_InfoAPI_PlayerInfo&#45;&gt;_anon_edge_33 -->
<g id="edge67" class="edge">
<title>SOFe_InfoAPI_PlayerInfo&#45;&gt;_anon_edge_33</title>
<path fill="none" stroke="black" d="M1831.37,-789.33C1868,-741.76 1966.42,-613.95 2007.85,-560.14"/>
<polygon fill="black" stroke="black" points="2010.67,-562.22 2014,-552.16 2005.12,-557.95 2010.67,-562.22"/>
</g>
<!-- _anon_edge_34 -->
<g id="node44" class="node">
<title>_anon_edge_34</title>
<polygon fill="none" stroke="black" points="1800.61,-1153.15 1669.23,-1135.15 1800.61,-1117.15 1931.99,-1135.15 1800.61,-1153.15"/>
<text text-anchor="middle" x="1800.61" y="-1131.45" font-family="Times,serif" font-size="14.00">infoapi.player.eye</text>
</g>
<!-- SOFe_InfoAPI_PlayerInfo&#45;&gt;_anon_edge_34 -->
<g id="edge69" class="edge">
<title>SOFe_InfoAPI_PlayerInfo&#45;&gt;_anon_edge_34</title>
<path fill="none" stroke="black" d="M1816.39,-825.67C1813.62,-879.92 1805.38,-1041.6 1802.04,-1107.12"/>
<polygon fill="black" stroke="black" points="1798.54,-1106.96 1801.53,-1117.13 1805.53,-1107.32 1798.54,-1106.96"/>
</g>
<!-- _anon_edge_35 -->
<g id="node45" class="node">
<title>_anon_edge_35</title>
<polygon fill="none" stroke="black" points="1876.92,-1182.8 1800.84,-1164.8 1876.92,-1146.8 1953,-1164.8 1876.92,-1182.8"/>
<text text-anchor="middle" x="1876.92" y="-1161.1" font-family="Times,serif" font-size="14.00">(fallback)</text>
</g>
<!-- SOFe_InfoAPI_PlayerInfo&#45;&gt;_anon_edge_35 -->
<g id="edge71" class="edge">
<title>SOFe_InfoAPI_PlayerInfo&#45;&gt;_anon_edge_35</title>
<path fill="none" stroke="black" d="M1820.35,-825.8C1830.1,-884.23 1860.65,-1067.31 1872.33,-1137.26"/>
<polygon fill="black" stroke="black" points="1868.93,-1138.19 1874.03,-1147.48 1875.84,-1137.04 1868.93,-1138.19"/>
</g>
<!-- _anon_edge_36 -->
<g id="node46" class="node">
<title>_anon_edge_36</title>
<polygon fill="none" stroke="black" points="2160.5,-1033.13 1977.67,-1015.13 2160.5,-997.13 2343.32,-1015.13 2160.5,-1033.13"/>
<text text-anchor="middle" x="2160.5" y="-1011.43" font-family="Times,serif" font-size="14.00">infoapi.player.blockBelow</text>
</g>
<!-- SOFe_InfoAPI_PlayerInfo&#45;&gt;_anon_edge_36 -->
<g id="edge73" class="edge">
<title>SOFe_InfoAPI_PlayerInfo&#45;&gt;_anon_edge_36</title>
<path fill="none" stroke="black" d="M1847.16,-825.65C1910.68,-864.06 2058.9,-953.69 2126.19,-994.38"/>
<polygon fill="black" stroke="black" points="2124.38,-997.37 2134.74,-999.55 2128,-991.38 2124.38,-997.37"/>
</g>
<!-- _anon_edge_37 -->
<g id="node47" class="node">
<title>_anon_edge_37</title>
<polygon fill="none" stroke="black" points="2201.86,-942.19 2015.18,-924.19 2201.86,-906.19 2388.53,-924.19 2201.86,-942.19"/>
<text text-anchor="middle" x="2201.86" y="-920.49" font-family="Times,serif" font-size="14.00">infoapi.player.blockFacing</text>
</g>
<!-- SOFe_InfoAPI_PlayerInfo&#45;&gt;_anon_edge_37 -->
<g id="edge75" class="edge">
<title>SOFe_InfoAPI_PlayerInfo&#45;&gt;_anon_edge_37</title>
<path fill="none" stroke="black" d="M1848.45,-817.04C1913.66,-836.81 2065.26,-882.77 2147.11,-907.59"/>
<polygon fill="black" stroke="black" points="2146.15,-910.96 2156.74,-910.51 2148.18,-904.26 2146.15,-910.96"/>
</g>
<!-- _anon_edge_0&#45;&gt;SOFe_InfoAPI_StringInfo -->
<g id="edge2" class="edge">
<title>_anon_edge_0&#45;&gt;SOFe_InfoAPI_StringInfo</title>
<path fill="none" stroke="black" d="M2132.02,-34.65C2104.56,-85.29 2048.85,-237.31 2034,-300.94"/>
<polygon fill="black" stroke="black" points="2030.51,-300.55 2031.85,-311.06 2037.36,-302.01 2030.51,-300.55"/>
</g>
<!-- _anon_edge_1&#45;&gt;SOFe_InfoAPI_StringInfo -->
<g id="edge4" class="edge">
<title>_anon_edge_1&#45;&gt;SOFe_InfoAPI_StringInfo</title>
<path fill="none" stroke="black" d="M2244.83,-114.03C2193.71,-153.19 2087.82,-254.74 2047.56,-303.3"/>
<polygon fill="black" stroke="black" points="2044.77,-301.18 2041.25,-311.17 2050.24,-305.56 2044.77,-301.18"/>
</g>
<!-- _anon_edge_2&#45;&gt;SOFe_InfoAPI_StringInfo -->
<g id="edge6" class="edge">
<title>_anon_edge_2&#45;&gt;SOFe_InfoAPI_StringInfo</title>
<path fill="none" stroke="black" d="M1681.23,-479.48C1754.27,-448.22 1921.39,-376.7 1995.48,-344.98"/>
<polygon fill="black" stroke="black" points="1997.07,-348.11 2004.89,-340.96 1994.31,-341.68 1997.07,-348.11"/>
</g>
<!-- _anon_edge_3&#45;&gt;SOFe_InfoAPI_StringInfo -->
<g id="edge8" class="edge">
<title>_anon_edge_3&#45;&gt;SOFe_InfoAPI_StringInfo</title>
<path fill="none" stroke="black" d="M1645.75,-421.17C1735.65,-399.8 1916.95,-356.7 1994.95,-338.16"/>
<polygon fill="black" stroke="black" points="1995.89,-341.53 2004.81,-335.82 1994.28,-334.72 1995.89,-341.53"/>
</g>
<!-- _anon_edge_4&#45;&gt;SOFe_InfoAPI_NumberInfo -->
<g id="edge10" class="edge">
<title>_anon_edge_4&#45;&gt;SOFe_InfoAPI_NumberInfo</title>
<path fill="none" stroke="black" d="M1020.78,-521.1C1057.36,-570.45 1164.63,-715.14 1208.94,-774.92"/>
<polygon fill="black" stroke="black" points="1206.24,-777.16 1215.01,-783.1 1211.86,-772.99 1206.24,-777.16"/>
</g>
<!-- _anon_edge_5&#45;&gt;SOFe_InfoAPI_NumberInfo -->
<g id="edge12" class="edge">
<title>_anon_edge_5&#45;&gt;SOFe_InfoAPI_NumberInfo</title>
<path fill="none" stroke="black" d="M886.37,-676.17C955.07,-701.28 1106.07,-756.49 1182.37,-784.39"/>
<polygon fill="black" stroke="black" points="1181.59,-787.83 1192.19,-787.97 1184,-781.25 1181.59,-787.83"/>
</g>
<!-- _anon_edge_6&#45;&gt;SOFe_InfoAPI_NumberInfo -->
<g id="edge14" class="edge">
<title>_anon_edge_6&#45;&gt;SOFe_InfoAPI_NumberInfo</title>
<path fill="none" stroke="black" d="M948.02,-499.97C996.6,-552.16 1146.19,-712.86 1204.67,-775.69"/>
<polygon fill="black" stroke="black" points="1202.28,-778.26 1211.65,-783.19 1207.4,-773.49 1202.28,-778.26"/>
</g>
<!-- _anon_edge_7&#45;&gt;SOFe_InfoAPI_NumberInfo -->
<g id="edge16" class="edge">
<title>_anon_edge_7&#45;&gt;SOFe_InfoAPI_NumberInfo</title>
<path fill="none" stroke="black" d="M873.83,-740.73C957.45,-754.99 1106.76,-780.47 1182.16,-793.33"/>
<polygon fill="black" stroke="black" points="1181.85,-796.83 1192.29,-795.06 1183.03,-789.93 1181.85,-796.83"/>
</g>
<!-- _anon_edge_8&#45;&gt;SOFe_InfoAPI_NumberInfo -->
<g id="edge18" class="edge">
<title>_anon_edge_8&#45;&gt;SOFe_InfoAPI_NumberInfo</title>
<path fill="none" stroke="black" d="M973.52,-644.32C1021.85,-674.07 1131.95,-741.84 1190.38,-777.8"/>
<polygon fill="black" stroke="black" points="1188.61,-780.82 1198.96,-783.08 1192.28,-774.86 1188.61,-780.82"/>
</g>
<!-- _anon_edge_9&#45;&gt;SOFe_InfoAPI_NumberInfo -->
<g id="edge20" class="edge">
<title>_anon_edge_9&#45;&gt;SOFe_InfoAPI_NumberInfo</title>
<path fill="none" stroke="black" d="M900.29,-582.2C957.07,-620.1 1120.04,-728.88 1192.72,-777.38"/>
<polygon fill="black" stroke="black" points="1190.86,-780.35 1201.12,-782.99 1194.75,-774.53 1190.86,-780.35"/>
</g>
<!-- _anon_edge_10&#45;&gt;SOFe_InfoAPI_NumberInfo -->
<g id="edge22" class="edge">
<title>_anon_edge_10&#45;&gt;SOFe_InfoAPI_NumberInfo</title>
<path fill="none" stroke="black" d="M1435.95,-1121.12C1400.69,-1066.77 1288.98,-894.55 1245.75,-827.91"/>
<polygon fill="black" stroke="black" points="1248.5,-825.72 1240.13,-819.24 1242.63,-829.53 1248.5,-825.72"/>
</g>
<!-- _anon_edge_11&#45;&gt;SOFe_InfoAPI_NumberInfo -->
<g id="edge24" class="edge">
<title>_anon_edge_11&#45;&gt;SOFe_InfoAPI_NumberInfo</title>
<path fill="none" stroke="black" d="M1362.81,-1093.99C1339.37,-1042.93 1269.76,-891.24 1241.04,-828.68"/>
<polygon fill="black" stroke="black" points="1244.15,-827.06 1236.8,-819.43 1237.79,-829.98 1244.15,-827.06"/>
</g>
<!-- _anon_edge_12&#45;&gt;SOFe_InfoAPI_NumberInfo -->
<g id="edge26" class="edge">
<title>_anon_edge_12&#45;&gt;SOFe_InfoAPI_NumberInfo</title>
<path fill="none" stroke="black" d="M1347.12,-1183.21C1327.7,-1120.69 1261.37,-907.2 1237.28,-829.66"/>
<polygon fill="black" stroke="black" points="1240.48,-828.16 1234.17,-819.65 1233.79,-830.24 1240.48,-828.16"/>
</g>
<!-- _anon_edge_13&#45;&gt;SOFe_InfoAPI_WorldInfo -->
<g id="edge28" class="edge">
<title>_anon_edge_13&#45;&gt;SOFe_InfoAPI_WorldInfo</title>
<path fill="none" stroke="black" d="M1266.15,-1430.59C1216.68,-1392.03 1090.85,-1293.96 1031.91,-1248.03"/>
<polygon fill="black" stroke="black" points="1033.76,-1245.03 1023.72,-1241.64 1029.46,-1250.55 1033.76,-1245.03"/>
</g>
<!-- _anon_edge_14&#45;&gt;SOFe_InfoAPI_NumberInfo -->
<g id="edge30" class="edge">
<title>_anon_edge_14&#45;&gt;SOFe_InfoAPI_NumberInfo</title>
<path fill="none" stroke="black" d="M946.24,-1077.23C995.62,-1028.94 1142.6,-885.19 1202.55,-826.56"/>
<polygon fill="black" stroke="black" points="1205.05,-829.01 1209.75,-819.51 1200.15,-824 1205.05,-829.01"/>
</g>
<!-- _anon_edge_15&#45;&gt;SOFe_InfoAPI_NumberInfo -->
<g id="edge32" class="edge">
<title>_anon_edge_15&#45;&gt;SOFe_InfoAPI_NumberInfo</title>
<path fill="none" stroke="black" d="M908.17,-991.6C968.43,-955.78 1117.83,-866.98 1189.23,-824.54"/>
<polygon fill="black" stroke="black" points="1191.15,-827.47 1197.95,-819.35 1187.57,-821.45 1191.15,-827.47"/>
</g>
<!-- _anon_edge_16&#45;&gt;SOFe_InfoAPI_NumberInfo -->
<g id="edge34" class="edge">
<title>_anon_edge_16&#45;&gt;SOFe_InfoAPI_NumberInfo</title>
<path fill="none" stroke="black" d="M1091.92,-993.79C1117.81,-957.27 1178.52,-871.65 1209.51,-827.93"/>
<polygon fill="black" stroke="black" points="1212.54,-829.71 1215.47,-819.52 1206.83,-825.66 1212.54,-829.71"/>
</g>
<!-- _anon_edge_17&#45;&gt;SOFe_InfoAPI_NumberInfo -->
<g id="edge36" class="edge">
<title>_anon_edge_17&#45;&gt;SOFe_InfoAPI_NumberInfo</title>
<path fill="none" stroke="black" d="M1030.09,-1058.31C1065.97,-1011.8 1165.3,-883.07 1208.24,-827.42"/>
<polygon fill="black" stroke="black" points="1211.05,-829.5 1214.39,-819.45 1205.51,-825.23 1211.05,-829.5"/>
</g>
<!-- _anon_edge_18&#45;&gt;SOFe_InfoAPI_NumberInfo -->
<g id="edge38" class="edge">
<title>_anon_edge_18&#45;&gt;SOFe_InfoAPI_NumberInfo</title>
<path fill="none" stroke="black" d="M1122.09,-1126.36C1140.29,-1070.72 1197.04,-897.25 1219.32,-829.11"/>
<polygon fill="black" stroke="black" points="1222.69,-830.07 1222.47,-819.48 1216.04,-827.9 1222.69,-830.07"/>
</g>
<!-- _anon_edge_19&#45;&gt;SOFe_InfoAPI_NumberInfo -->
<g id="edge40" class="edge">
<title>_anon_edge_19&#45;&gt;SOFe_InfoAPI_NumberInfo</title>
<path fill="none" stroke="black" d="M986.78,-940.48C1033.44,-913.59 1132.58,-856.47 1188.29,-824.37"/>
<polygon fill="black" stroke="black" points="1190.26,-827.27 1197.17,-819.25 1186.76,-821.21 1190.26,-827.27"/>
</g>
<!-- _anon_edge_20&#45;&gt;SOFe_InfoAPI_StringInfo -->
<g id="edge42" class="edge">
<title>_anon_edge_20&#45;&gt;SOFe_InfoAPI_StringInfo</title>
<path fill="none" stroke="black" d="M2400.09,-387.46C2309.14,-373.1 2143.31,-346.92 2069.35,-335.24"/>
<polygon fill="black" stroke="black" points="2069.55,-331.73 2059.13,-333.63 2068.46,-338.65 2069.55,-331.73"/>
</g>
<!-- _anon_edge_21&#45;&gt;SOFe_InfoAPI_PositionInfo -->
<g id="edge44" class="edge">
<title>_anon_edge_21&#45;&gt;SOFe_InfoAPI_PositionInfo</title>
<path fill="none" stroke="black" d="M2015.81,-1326.2C1927.41,-1319.29 1759.64,-1306.18 1677.79,-1299.78"/>
<polygon fill="black" stroke="black" points="1678.01,-1296.29 1667.77,-1299 1677.47,-1303.27 1678.01,-1296.29"/>
</g>
<!-- _anon_edge_22&#45;&gt;SOFe_InfoAPI_BlockTypeInfo -->
<g id="edge46" class="edge">
<title>_anon_edge_22&#45;&gt;SOFe_InfoAPI_BlockTypeInfo</title>
<path fill="none" stroke="black" d="M2696.54,-893.43C2702.76,-843.1 2720.41,-700.1 2727.96,-638.96"/>
<polygon fill="black" stroke="black" points="2731.46,-639.22 2729.21,-628.87 2724.51,-638.37 2731.46,-639.22"/>
</g>
<!-- _anon_edge_23&#45;&gt;SOFe_InfoAPI_RatioInfo -->
<g id="edge48" class="edge">
<title>_anon_edge_23&#45;&gt;SOFe_InfoAPI_RatioInfo</title>
<path fill="none" stroke="black" d="M347.01,-341.2C415.31,-371.32 573.56,-441.1 655.06,-477.04"/>
<polygon fill="black" stroke="black" points="654.05,-480.41 664.61,-481.25 656.87,-474.01 654.05,-480.41"/>
</g>
<!-- _anon_edge_24&#45;&gt;SOFe_InfoAPI_NumberInfo -->
<g id="edge50" class="edge">
<title>_anon_edge_24&#45;&gt;SOFe_InfoAPI_NumberInfo</title>
<path fill="none" stroke="black" d="M1543.94,-688.21C1478.79,-711.55 1344.8,-759.55 1274.23,-784.83"/>
<polygon fill="black" stroke="black" points="1272.94,-781.57 1264.7,-788.24 1275.3,-788.16 1272.94,-781.57"/>
</g>
<!-- _anon_edge_25&#45;&gt;SOFe_InfoAPI_NumberInfo -->
<g id="edge52" class="edge">
<title>_anon_edge_25&#45;&gt;SOFe_InfoAPI_NumberInfo</title>
<path fill="none" stroke="black" d="M1444.78,-729.48C1398.89,-744.7 1322.88,-769.91 1274.26,-786.04"/>
<polygon fill="black" stroke="black" points="1273.01,-782.76 1264.62,-789.23 1275.21,-789.41 1273.01,-782.76"/>
</g>
<!-- _anon_edge_26&#45;&gt;SOFe_InfoAPI_NumberInfo -->
<g id="edge54" class="edge">
<title>_anon_edge_26&#45;&gt;SOFe_InfoAPI_NumberInfo</title>
<path fill="none" stroke="black" d="M1417.04,-827.41C1372.18,-821.18 1314.21,-813.14 1274.46,-807.62"/>
<polygon fill="black" stroke="black" points="1274.89,-804.14 1264.51,-806.24 1273.93,-811.08 1274.89,-804.14"/>
</g>
<!-- _anon_edge_27&#45;&gt;SOFe_InfoAPI_NumberInfo -->
<g id="edge56" class="edge">
<title>_anon_edge_27&#45;&gt;SOFe_InfoAPI_NumberInfo</title>
<path fill="none" stroke="black" d="M1473.74,-640.68C1426.84,-671.37 1320.97,-740.67 1264.89,-777.38"/>
<polygon fill="black" stroke="black" points="1262.78,-774.57 1256.33,-782.98 1266.62,-780.43 1262.78,-774.57"/>
</g>
<!-- _anon_edge_28&#45;&gt;SOFe_InfoAPI_NumberInfo -->
<g id="edge58" class="edge">
<title>_anon_edge_28&#45;&gt;SOFe_InfoAPI_NumberInfo</title>
<path fill="none" stroke="black" d="M1515.38,-846.74C1445.54,-835.66 1336.28,-818.33 1274.7,-808.57"/>
<polygon fill="black" stroke="black" points="1274.93,-805.06 1264.5,-806.95 1273.83,-811.97 1274.93,-805.06"/>
</g>
<!-- _anon_edge_29&#45;&gt;SOFe_InfoAPI_NumberInfo -->
<g id="edge60" class="edge">
<title>_anon_edge_29&#45;&gt;SOFe_InfoAPI_NumberInfo</title>
<path fill="none" stroke="black" d="M1495.24,-775.83C1427.15,-782.31 1331.1,-791.46 1274.75,-796.82"/>
<polygon fill="black" stroke="black" points="1274.32,-793.34 1264.7,-797.78 1274.99,-800.31 1274.32,-793.34"/>
</g>
<!-- _anon_edge_30&#45;&gt;SOFe_InfoAPI_NumberInfo -->
<g id="edge62" class="edge">
<title>_anon_edge_30&#45;&gt;SOFe_InfoAPI_NumberInfo</title>
<path fill="none" stroke="black" d="M1520.13,-916.51C1460.88,-893.1 1340.04,-845.34 1274.01,-819.24"/>
<polygon fill="black" stroke="black" points="1275.27,-815.97 1264.68,-815.55 1272.7,-822.48 1275.27,-815.97"/>
</g>
<!-- _anon_edge_31&#45;&gt;SOFe_InfoAPI_StringInfo -->
<g id="edge64" class="edge">
<title>_anon_edge_31&#45;&gt;SOFe_InfoAPI_StringInfo</title>
<path fill="none" stroke="black" d="M2086.04,-563.83C2076.08,-520.61 2050.5,-409.58 2038.46,-357.32"/>
<polygon fill="black" stroke="black" points="2041.83,-356.36 2036.18,-347.4 2035.01,-357.93 2041.83,-356.36"/>
</g>
<!-- _anon_edge_32&#45;&gt;SOFe_InfoAPI_StringInfo -->
<g id="edge66" class="edge">
<title>_anon_edge_32&#45;&gt;SOFe_InfoAPI_StringInfo</title>
<path fill="none" stroke="black" d="M1956.78,-471.89C1971.3,-444.37 2000.03,-389.96 2017.48,-356.9"/>
<polygon fill="black" stroke="black" points="2020.72,-358.25 2022.29,-347.78 2014.53,-354.99 2020.72,-358.25"/>
</g>
<!-- _anon_edge_33&#45;&gt;SOFe_InfoAPI_StringInfo -->
<g id="edge68" class="edge">
<title>_anon_edge_33&#45;&gt;SOFe_InfoAPI_StringInfo</title>
<path fill="none" stroke="black" d="M2027.12,-517.77C2028.06,-481.79 2030.17,-400.62 2031.29,-357.5"/>
<polygon fill="black" stroke="black" points="2034.79,-357.5 2031.55,-347.41 2027.79,-357.31 2034.79,-357.5"/>
</g>
<!-- _anon_edge_34&#45;&gt;SOFe_InfoAPI_PositionInfo -->
<g id="edge70" class="edge">
<title>_anon_edge_34&#45;&gt;SOFe_InfoAPI_PositionInfo</title>
<path fill="none" stroke="black" d="M1783.99,-1150.87C1754.53,-1178.74 1692.92,-1237.03 1657.37,-1270.67"/>
<polygon fill="black" stroke="black" points="1654.63,-1268.44 1649.77,-1277.85 1659.44,-1273.52 1654.63,-1268.44"/>
</g>
<!-- _anon_edge_35&#45;&gt;SOFe_InfoAPI_PositionInfo -->
<g id="edge72" class="edge">
<title>_anon_edge_35&#45;&gt;SOFe_InfoAPI_PositionInfo</title>
<path fill="none" stroke="black" d="M1853.29,-1177.39C1811.93,-1199.43 1725.83,-1245.29 1673.61,-1273.12"/>
<polygon fill="black" stroke="black" points="1671.77,-1270.13 1664.59,-1277.92 1675.06,-1276.31 1671.77,-1270.13"/>
</g>
<!-- _anon_edge_36&#45;&gt;SOFe_InfoAPI_BlockInfo -->
<g id="edge74" class="edge">
<title>_anon_edge_36&#45;&gt;SOFe_InfoAPI_BlockInfo</title>
<path fill="none" stroke="black" d="M2196.04,-1029.68C2237.65,-1046.7 2306.2,-1074.76 2348.24,-1091.97"/>
<polygon fill="black" stroke="black" points="2346.98,-1095.23 2357.56,-1095.78 2349.63,-1088.76 2346.98,-1095.23"/>
</g>
<!-- _anon_edge_37&#45;&gt;SOFe_InfoAPI_BlockInfo -->
<g id="edge76" class="edge">
<title>_anon_edge_37&#45;&gt;SOFe_InfoAPI_BlockInfo</title>
<path fill="none" stroke="black" d="M2218.42,-940.73C2250.5,-972.77 2321.3,-1043.49 2359.39,-1081.54"/>
<polygon fill="black" stroke="black" points="2357.01,-1084.1 2366.55,-1088.69 2361.95,-1079.15 2357.01,-1084.1"/>
</g>
</g>
</svg>
