<?xml version="1.0" encoding="UTF-8" standalone="no"?>
<!DOCTYPE svg PUBLIC "-//W3C//DTD SVG 1.1//EN"
 "http://www.w3.org/Graphics/SVG/1.1/DTD/svg11.dtd">
<!-- Generated by graphviz version 2.43.0 (0)
 -->
<!-- Title: InfoAPI_Defaults Pages: 1 -->
<svg width="2754pt" height="1522pt"
 viewBox="0.00 0.00 2753.51 1522.01" xmlns="http://www.w3.org/2000/svg" xmlns:xlink="http://www.w3.org/1999/xlink">
<g id="graph0" class="graph" transform="scale(1 1) rotate(0) translate(36 1486.01)">
<title>InfoAPI_Defaults</title>
<polygon fill="white" stroke="transparent" points="-36,36 -36,-1486.01 2717.51,-1486.01 2717.51,36 -36,36"/>
<!-- SOFe_InfoAPI_StringInfo -->
<g id="node1" class="node">
<title>SOFe_InfoAPI_StringInfo</title>
<polygon fill="none" stroke="black" points="1949.72,-349.54 1895.72,-349.54 1895.72,-313.54 1949.72,-313.54 1949.72,-349.54"/>
<text text-anchor="middle" x="1922.72" y="-327.84" font-family="Times,serif" font-size="14.00">text</text>
</g>
<!-- _anon_edge_0 -->
<g id="node10" class="node">
<title>_anon_edge_0</title>
<polygon fill="none" stroke="black" points="2144.16,-101.54 1968.54,-83.54 2144.16,-65.54 2319.77,-83.54 2144.16,-101.54"/>
<text text-anchor="middle" x="2144.16" y="-79.84" font-family="Times,serif" font-size="14.00">infoapi.string.uppercase</text>
</g>
<!-- SOFe_InfoAPI_StringInfo&#45;&gt;_anon_edge_0 -->
<g id="edge1" class="edge">
<title>SOFe_InfoAPI_StringInfo&#45;&gt;_anon_edge_0</title>
<path fill="none" stroke="black" d="M1949.73,-313.74C1998.08,-270.22 2096.19,-160.14 2131.61,-109.42"/>
<polygon fill="black" stroke="black" points="2134.63,-111.21 2137.29,-100.96 2128.81,-107.31 2134.63,-111.21"/>
</g>
<!-- _anon_edge_1 -->
<g id="node11" class="node">
<title>_anon_edge_1</title>
<polygon fill="none" stroke="black" points="2012.39,-36 1839.79,-18 2012.39,0 2184.99,-18 2012.39,-36"/>
<text text-anchor="middle" x="2012.39" y="-14.3" font-family="Times,serif" font-size="14.00">infoapi.string.lowercase</text>
</g>
<!-- SOFe_InfoAPI_StringInfo&#45;&gt;_anon_edge_1 -->
<g id="edge3" class="edge">
<title>SOFe_InfoAPI_StringInfo&#45;&gt;_anon_edge_1</title>
<path fill="none" stroke="black" d="M1935.24,-313.39C1958.87,-260.99 2002.47,-109.56 2012.5,-46.27"/>
<polygon fill="black" stroke="black" points="2015.99,-46.59 2013.89,-36.21 2009.06,-45.63 2015.99,-46.59"/>
</g>
<!-- SOFe_InfoAPI_NumberInfo -->
<g id="node2" class="node">
<title>SOFe_InfoAPI_NumberInfo</title>
<polygon fill="none" stroke="black" points="1183.56,-825.23 1111.56,-825.23 1111.56,-789.23 1183.56,-789.23 1183.56,-825.23"/>
<text text-anchor="middle" x="1147.56" y="-803.53" font-family="Times,serif" font-size="14.00">number</text>
</g>
<!-- _anon_edge_2 -->
<g id="node12" class="node">
<title>_anon_edge_2</title>
<polygon fill="none" stroke="black" points="1544.64,-524.89 1328.64,-506.89 1544.64,-488.89 1760.65,-506.89 1544.64,-524.89"/>
<text text-anchor="middle" x="1544.64" y="-503.19" font-family="Times,serif" font-size="14.00">infoapi.number.english.ordinal</text>
</g>
<!-- SOFe_InfoAPI_NumberInfo&#45;&gt;_anon_edge_2 -->
<g id="edge5" class="edge">
<title>SOFe_InfoAPI_NumberInfo&#45;&gt;_anon_edge_2</title>
<path fill="none" stroke="black" d="M1171.51,-789.12C1240.45,-736.98 1439.29,-586.58 1514.94,-529.36"/>
<polygon fill="black" stroke="black" points="1517.26,-531.99 1523.12,-523.17 1513.04,-526.41 1517.26,-531.99"/>
</g>
<!-- _anon_edge_3 -->
<g id="node13" class="node">
<title>_anon_edge_3</title>
<polygon fill="none" stroke="black" points="1497.48,-463.17 1329.07,-445.17 1497.48,-427.17 1665.89,-445.17 1497.48,-463.17"/>
<text text-anchor="middle" x="1497.48" y="-441.47" font-family="Times,serif" font-size="14.00">infoapi.number.percent</text>
</g>
<!-- SOFe_InfoAPI_NumberInfo&#45;&gt;_anon_edge_3 -->
<g id="edge7" class="edge">
<title>SOFe_InfoAPI_NumberInfo&#45;&gt;_anon_edge_3</title>
<path fill="none" stroke="black" d="M1165.4,-788.78C1223.73,-728.42 1408.87,-536.85 1474.3,-469.15"/>
<polygon fill="black" stroke="black" points="1476.88,-471.51 1481.32,-461.89 1471.85,-466.65 1476.88,-471.51"/>
</g>
<!-- SOFe_InfoAPI_RatioInfo -->
<g id="node3" class="node">
<title>SOFe_InfoAPI_RatioInfo</title>
<polygon fill="none" stroke="black" points="701.3,-506.89 609.3,-506.89 609.3,-470.89 701.3,-470.89 701.3,-506.89"/>
<text text-anchor="middle" x="655.3" y="-485.19" font-family="Times,serif" font-size="14.00">proportion</text>
</g>
<!-- _anon_edge_4 -->
<g id="node14" class="node">
<title>_anon_edge_4</title>
<polygon fill="none" stroke="black" points="813.95,-581.7 665.98,-563.7 813.95,-545.7 961.92,-563.7 813.95,-581.7"/>
<text text-anchor="middle" x="813.95" y="-560" font-family="Times,serif" font-size="14.00">infoapi.ratio.current</text>
</g>
<!-- SOFe_InfoAPI_RatioInfo&#45;&gt;_anon_edge_4 -->
<g id="edge9" class="edge">
<title>SOFe_InfoAPI_RatioInfo&#45;&gt;_anon_edge_4</title>
<path fill="none" stroke="black" d="M693.71,-507C718.18,-518.54 749.82,-533.46 774.49,-545.09"/>
<polygon fill="black" stroke="black" points="773.05,-548.28 783.58,-549.38 776.03,-541.95 773.05,-548.28"/>
</g>
<!-- _anon_edge_5 -->
<g id="node15" class="node">
<title>_anon_edge_5</title>
<polygon fill="none" stroke="black" points="912.77,-564.81 786.08,-546.81 912.77,-528.81 1039.46,-546.81 912.77,-564.81"/>
<text text-anchor="middle" x="912.77" y="-543.11" font-family="Times,serif" font-size="14.00">infoapi.ratio.max</text>
</g>
<!-- SOFe_InfoAPI_RatioInfo&#45;&gt;_anon_edge_5 -->
<g id="edge11" class="edge">
<title>SOFe_InfoAPI_RatioInfo&#45;&gt;_anon_edge_5</title>
<path fill="none" stroke="black" d="M701.33,-499.24C743.92,-508.82 807.43,-523.11 853.73,-533.53"/>
<polygon fill="black" stroke="black" points="853.11,-536.98 863.63,-535.76 854.64,-530.15 853.11,-536.98"/>
</g>
<!-- _anon_edge_6 -->
<g id="node16" class="node">
<title>_anon_edge_6</title>
<polygon fill="none" stroke="black" points="753.72,-752.72 587.49,-734.72 753.72,-716.72 919.96,-734.72 753.72,-752.72"/>
<text text-anchor="middle" x="753.72" y="-731.02" font-family="Times,serif" font-size="14.00">infoapi.ratio.remaining</text>
</g>
<!-- SOFe_InfoAPI_RatioInfo&#45;&gt;_anon_edge_6 -->
<g id="edge13" class="edge">
<title>SOFe_InfoAPI_RatioInfo&#45;&gt;_anon_edge_6</title>
<path fill="none" stroke="black" d="M662.54,-506.97C679.65,-549.71 722.68,-657.17 742.9,-707.69"/>
<polygon fill="black" stroke="black" points="739.77,-709.3 746.74,-717.28 746.27,-706.69 739.77,-709.3"/>
</g>
<!-- _anon_edge_7 -->
<g id="node17" class="node">
<title>_anon_edge_7</title>
<polygon fill="none" stroke="black" points="773.15,-676.62 634.57,-658.62 773.15,-640.62 911.74,-658.62 773.15,-676.62"/>
<text text-anchor="middle" x="773.15" y="-654.92" font-family="Times,serif" font-size="14.00">infoapi.ratio.invert</text>
</g>
<!-- SOFe_InfoAPI_RatioInfo&#45;&gt;_anon_edge_7 -->
<g id="edge15" class="edge">
<title>SOFe_InfoAPI_RatioInfo&#45;&gt;_anon_edge_7</title>
<path fill="none" stroke="black" d="M667.92,-507.05C689.06,-537.51 731.72,-598.94 755.72,-633.51"/>
<polygon fill="black" stroke="black" points="753.1,-635.87 761.68,-642.09 758.85,-631.88 753.1,-635.87"/>
</g>
<!-- _anon_edge_8 -->
<g id="node18" class="node">
<title>_anon_edge_8</title>
<polygon fill="none" stroke="black" points="864.25,-658.87 740.91,-640.87 864.25,-622.87 987.58,-640.87 864.25,-658.87"/>
<text text-anchor="middle" x="864.25" y="-637.17" font-family="Times,serif" font-size="14.00">infoapi.ratio.lost</text>
</g>
<!-- SOFe_InfoAPI_RatioInfo&#45;&gt;_anon_edge_8 -->
<g id="edge17" class="edge">
<title>SOFe_InfoAPI_RatioInfo&#45;&gt;_anon_edge_8</title>
<path fill="none" stroke="black" d="M680.09,-506.92C718.95,-535.18 794.01,-589.78 835.29,-619.81"/>
<polygon fill="black" stroke="black" points="833.41,-622.77 843.56,-625.82 837.53,-617.11 833.41,-622.77"/>
</g>
<!-- _anon_edge_9 -->
<g id="node19" class="node">
<title>_anon_edge_9</title>
<polygon fill="none" stroke="black" points="918.81,-490.8 842.73,-472.8 918.81,-454.8 994.9,-472.8 918.81,-490.8"/>
<text text-anchor="middle" x="918.81" y="-469.1" font-family="Times,serif" font-size="14.00">(fallback)</text>
</g>
<!-- SOFe_InfoAPI_RatioInfo&#45;&gt;_anon_edge_9 -->
<g id="edge19" class="edge">
<title>SOFe_InfoAPI_RatioInfo&#45;&gt;_anon_edge_9</title>
<path fill="none" stroke="black" d="M701.51,-486.07C742.07,-483.59 801.7,-479.95 848.24,-477.11"/>
<polygon fill="black" stroke="black" points="848.49,-480.6 858.26,-476.5 848.07,-473.62 848.49,-480.6"/>
</g>
<!-- SOFe_InfoAPI_PositionInfo -->
<g id="node4" class="node">
<title>SOFe_InfoAPI_PositionInfo</title>
<polygon fill="none" stroke="black" points="1601.86,-1291.73 1527.86,-1291.73 1527.86,-1255.73 1601.86,-1255.73 1601.86,-1291.73"/>
<text text-anchor="middle" x="1564.86" y="-1270.03" font-family="Times,serif" font-size="14.00">position</text>
</g>
<!-- _anon_edge_10 -->
<g id="node20" class="node">
<title>_anon_edge_10</title>
<polygon fill="none" stroke="black" points="1369.32,-1115.29 1240.45,-1097.29 1369.32,-1079.29 1498.18,-1097.29 1369.32,-1115.29"/>
<text text-anchor="middle" x="1369.32" y="-1093.59" font-family="Times,serif" font-size="14.00">infoapi.position.x</text>
</g>
<!-- SOFe_InfoAPI_PositionInfo&#45;&gt;_anon_edge_10 -->
<g id="edge21" class="edge">
<title>SOFe_InfoAPI_PositionInfo&#45;&gt;_anon_edge_10</title>
<path fill="none" stroke="black" d="M1544.67,-1255.51C1508.77,-1223.13 1433.95,-1155.61 1394.66,-1120.16"/>
<polygon fill="black" stroke="black" points="1396.61,-1117.2 1386.84,-1113.1 1391.92,-1122.4 1396.61,-1117.2"/>
</g>
<!-- _anon_edge_11 -->
<g id="node21" class="node">
<title>_anon_edge_11</title>
<polygon fill="none" stroke="black" points="1285.66,-1143.74 1156.8,-1125.74 1285.66,-1107.74 1414.53,-1125.74 1285.66,-1143.74"/>
<text text-anchor="middle" x="1285.66" y="-1122.04" font-family="Times,serif" font-size="14.00">infoapi.position.y</text>
</g>
<!-- SOFe_InfoAPI_PositionInfo&#45;&gt;_anon_edge_11 -->
<g id="edge23" class="edge">
<title>SOFe_InfoAPI_PositionInfo&#45;&gt;_anon_edge_11</title>
<path fill="none" stroke="black" d="M1530.62,-1255.59C1477.49,-1227.42 1375.67,-1173.45 1321.55,-1144.76"/>
<polygon fill="black" stroke="black" points="1323.13,-1141.64 1312.65,-1140.05 1319.85,-1147.82 1323.13,-1141.64"/>
</g>
<!-- _anon_edge_12 -->
<g id="node22" class="node">
<title>_anon_edge_12</title>
<polygon fill="none" stroke="black" points="1292.73,-1218.47 1165.21,-1200.47 1292.73,-1182.47 1420.26,-1200.47 1292.73,-1218.47"/>
<text text-anchor="middle" x="1292.73" y="-1196.77" font-family="Times,serif" font-size="14.00">infoapi.position.z</text>
</g>
<!-- SOFe_InfoAPI_PositionInfo&#45;&gt;_anon_edge_12 -->
<g id="edge25" class="edge">
<title>SOFe_InfoAPI_PositionInfo&#45;&gt;_anon_edge_12</title>
<path fill="none" stroke="black" d="M1527.59,-1263.7C1480.72,-1251.08 1399.93,-1229.33 1346.41,-1214.92"/>
<polygon fill="black" stroke="black" points="1347.32,-1211.54 1336.75,-1212.32 1345.5,-1218.3 1347.32,-1211.54"/>
</g>
<!-- _anon_edge_13 -->
<g id="node23" class="node">
<title>_anon_edge_13</title>
<polygon fill="none" stroke="black" points="1234.71,-1450.01 1076.52,-1432.01 1234.71,-1414.01 1392.9,-1432.01 1234.71,-1450.01"/>
<text text-anchor="middle" x="1234.71" y="-1428.31" font-family="Times,serif" font-size="14.00">infoapi.position.world</text>
</g>
<!-- SOFe_InfoAPI_PositionInfo&#45;&gt;_anon_edge_13 -->
<g id="edge27" class="edge">
<title>SOFe_InfoAPI_PositionInfo&#45;&gt;_anon_edge_13</title>
<path fill="none" stroke="black" d="M1527.63,-1291.58C1464.94,-1321.63 1338.88,-1382.07 1274.51,-1412.93"/>
<polygon fill="black" stroke="black" points="1272.98,-1409.78 1265.47,-1417.26 1276,-1416.09 1272.98,-1409.78"/>
</g>
<!-- SOFe_InfoAPI_WorldInfo -->
<g id="node5" class="node">
<title>SOFe_InfoAPI_WorldInfo</title>
<polygon fill="none" stroke="black" points="982.7,-1228.16 925.7,-1228.16 925.7,-1192.16 982.7,-1192.16 982.7,-1228.16"/>
<text text-anchor="middle" x="954.2" y="-1206.46" font-family="Times,serif" font-size="14.00">world</text>
</g>
<!-- _anon_edge_14 -->
<g id="node24" class="node">
<title>_anon_edge_14</title>
<polygon fill="none" stroke="black" points="1003.57,-1004.02 861.97,-986.02 1003.57,-968.02 1145.17,-986.02 1003.57,-1004.02"/>
<text text-anchor="middle" x="1003.57" y="-982.32" font-family="Times,serif" font-size="14.00">infoapi.world.name</text>
</g>
<!-- SOFe_InfoAPI_WorldInfo&#45;&gt;_anon_edge_14 -->
<g id="edge29" class="edge">
<title>SOFe_InfoAPI_WorldInfo&#45;&gt;_anon_edge_14</title>
<path fill="none" stroke="black" d="M958.24,-1191.82C966.89,-1152.54 987.26,-1060.08 997.49,-1013.65"/>
<polygon fill="black" stroke="black" points="1000.95,-1014.2 999.68,-1003.68 994.11,-1012.69 1000.95,-1014.2"/>
</g>
<!-- _anon_edge_15 -->
<g id="node25" class="node">
<title>_anon_edge_15</title>
<polygon fill="none" stroke="black" points="817.5,-1061.13 634.68,-1043.13 817.5,-1025.13 1000.33,-1043.13 817.5,-1061.13"/>
<text text-anchor="middle" x="817.5" y="-1039.43" font-family="Times,serif" font-size="14.00">infoapi.world.folderName</text>
</g>
<!-- SOFe_InfoAPI_WorldInfo&#45;&gt;_anon_edge_15 -->
<g id="edge31" class="edge">
<title>SOFe_InfoAPI_WorldInfo&#45;&gt;_anon_edge_15</title>
<path fill="none" stroke="black" d="M939.31,-1191.97C914.68,-1161.88 865.45,-1101.72 837.71,-1067.82"/>
<polygon fill="black" stroke="black" points="840.19,-1065.33 831.15,-1059.8 834.77,-1069.76 840.19,-1065.33"/>
</g>
<!-- _anon_edge_16 -->
<g id="node26" class="node">
<title>_anon_edge_16</title>
<polygon fill="none" stroke="black" points="944.58,-1065.8 752.37,-1047.8 944.58,-1029.8 1136.78,-1047.8 944.58,-1065.8"/>
<text text-anchor="middle" x="944.58" y="-1044.1" font-family="Times,serif" font-size="14.00">infoapi.world.customName</text>
</g>
<!-- SOFe_InfoAPI_WorldInfo&#45;&gt;_anon_edge_16 -->
<g id="edge33" class="edge">
<title>SOFe_InfoAPI_WorldInfo&#45;&gt;_anon_edge_16</title>
<path fill="none" stroke="black" d="M953.11,-1191.85C951.44,-1163.56 948.2,-1109.03 946.23,-1075.78"/>
<polygon fill="black" stroke="black" points="949.73,-1075.57 945.64,-1065.79 942.74,-1075.98 949.73,-1075.57"/>
</g>
<!-- _anon_edge_17 -->
<g id="node27" class="node">
<title>_anon_edge_17</title>
<polygon fill="none" stroke="black" points="883.64,-1129.95 692.27,-1111.95 883.64,-1093.95 1075.01,-1111.95 883.64,-1129.95"/>
<text text-anchor="middle" x="883.64" y="-1108.25" font-family="Times,serif" font-size="14.00">infoapi.world.displayName</text>
</g>
<!-- SOFe_InfoAPI_WorldInfo&#45;&gt;_anon_edge_17 -->
<g id="edge35" class="edge">
<title>SOFe_InfoAPI_WorldInfo&#45;&gt;_anon_edge_17</title>
<path fill="none" stroke="black" d="M941.25,-1192.15C930.21,-1176.78 914.2,-1154.5 901.86,-1137.32"/>
<polygon fill="black" stroke="black" points="904.47,-1134.95 895.79,-1128.87 898.78,-1139.03 904.47,-1134.95"/>
</g>
<!-- _anon_edge_18 -->
<g id="node28" class="node">
<title>_anon_edge_18</title>
<polygon fill="none" stroke="black" points="1053.87,-1132.76 918.64,-1114.76 1053.87,-1096.76 1189.1,-1114.76 1053.87,-1132.76"/>
<text text-anchor="middle" x="1053.87" y="-1111.06" font-family="Times,serif" font-size="14.00">infoapi.world.time</text>
</g>
<!-- SOFe_InfoAPI_WorldInfo&#45;&gt;_anon_edge_18 -->
<g id="edge37" class="edge">
<title>SOFe_InfoAPI_WorldInfo&#45;&gt;_anon_edge_18</title>
<path fill="none" stroke="black" d="M973.41,-1191.77C989.5,-1176.37 1012.55,-1154.31 1029.85,-1137.75"/>
<polygon fill="black" stroke="black" points="1032.55,-1140.01 1037.35,-1130.56 1027.71,-1134.95 1032.55,-1140.01"/>
</g>
<!-- _anon_edge_19 -->
<g id="node29" class="node">
<title>_anon_edge_19</title>
<polygon fill="none" stroke="black" points="875.56,-976.7 739.49,-958.7 875.56,-940.7 1011.64,-958.7 875.56,-976.7"/>
<text text-anchor="middle" x="875.56" y="-955" font-family="Times,serif" font-size="14.00">infoapi.world.seed</text>
</g>
<!-- SOFe_InfoAPI_WorldInfo&#45;&gt;_anon_edge_19 -->
<g id="edge39" class="edge">
<title>SOFe_InfoAPI_WorldInfo&#45;&gt;_anon_edge_19</title>
<path fill="none" stroke="black" d="M948.54,-1192.08C934.94,-1148.57 900.3,-1037.82 884.13,-986.09"/>
<polygon fill="black" stroke="black" points="887.39,-984.78 881.06,-976.28 880.71,-986.87 887.39,-984.78"/>
</g>
<!-- SOFe_InfoAPI_BlockTypeInfo -->
<g id="node6" class="node">
<title>SOFe_InfoAPI_BlockTypeInfo</title>
<polygon fill="none" stroke="black" points="2665.24,-572.01 2575.24,-572.01 2575.24,-536.01 2665.24,-536.01 2665.24,-572.01"/>
<text text-anchor="middle" x="2620.24" y="-550.31" font-family="Times,serif" font-size="14.00">block type</text>
</g>
<!-- _anon_edge_20 -->
<g id="node30" class="node">
<title>_anon_edge_20</title>
<polygon fill="none" stroke="black" points="2346.2,-383.41 2207.62,-365.41 2346.2,-347.41 2484.79,-365.41 2346.2,-383.41"/>
<text text-anchor="middle" x="2346.2" y="-361.71" font-family="Times,serif" font-size="14.00">infoapi.block.name</text>
</g>
<!-- SOFe_InfoAPI_BlockTypeInfo&#45;&gt;_anon_edge_20 -->
<g id="edge41" class="edge">
<title>SOFe_InfoAPI_BlockTypeInfo&#45;&gt;_anon_edge_20</title>
<path fill="none" stroke="black" d="M2593.96,-535.92C2543.07,-500.9 2431.32,-423.99 2377.03,-386.62"/>
<polygon fill="black" stroke="black" points="2378.73,-383.55 2368.51,-380.76 2374.77,-389.32 2378.73,-383.55"/>
</g>
<!-- SOFe_InfoAPI_BlockInfo -->
<g id="node7" class="node">
<title>SOFe_InfoAPI_BlockInfo</title>
<polygon fill="none" stroke="black" points="2343.91,-1076.54 2289.91,-1076.54 2289.91,-1040.54 2343.91,-1040.54 2343.91,-1076.54"/>
<text text-anchor="middle" x="2316.91" y="-1054.84" font-family="Times,serif" font-size="14.00">block</text>
</g>
<!-- _anon_edge_21 -->
<g id="node31" class="node">
<title>_anon_edge_21</title>
<polygon fill="none" stroke="black" points="2008.95,-1301.9 1932.87,-1283.9 2008.95,-1265.9 2085.03,-1283.9 2008.95,-1301.9"/>
<text text-anchor="middle" x="2008.95" y="-1280.2" font-family="Times,serif" font-size="14.00">(fallback)</text>
</g>
<!-- SOFe_InfoAPI_BlockInfo&#45;&gt;_anon_edge_21 -->
<g id="edge43" class="edge">
<title>SOFe_InfoAPI_BlockInfo&#45;&gt;_anon_edge_21</title>
<path fill="none" stroke="black" d="M2292.23,-1076.6C2235.23,-1118.32 2094.8,-1221.08 2035.77,-1264.28"/>
<polygon fill="black" stroke="black" points="2033.68,-1261.47 2027.67,-1270.2 2037.81,-1267.12 2033.68,-1261.47"/>
</g>
<!-- _anon_edge_22 -->
<g id="node32" class="node">
<title>_anon_edge_22</title>
<polygon fill="none" stroke="black" points="2605.22,-868.74 2529.13,-850.74 2605.22,-832.74 2681.3,-850.74 2605.22,-868.74"/>
<text text-anchor="middle" x="2605.22" y="-847.04" font-family="Times,serif" font-size="14.00">(fallback)</text>
</g>
<!-- SOFe_InfoAPI_BlockInfo&#45;&gt;_anon_edge_22 -->
<g id="edge45" class="edge">
<title>SOFe_InfoAPI_BlockInfo&#45;&gt;_anon_edge_22</title>
<path fill="none" stroke="black" d="M2341.99,-1040.46C2395.83,-1001.66 2522.09,-910.66 2577.88,-870.44"/>
<polygon fill="black" stroke="black" points="2580.14,-873.13 2586.21,-864.44 2576.05,-867.45 2580.14,-873.13"/>
</g>
<!-- SOFe_InfoAPI_CommonInfo -->
<g id="node8" class="node">
<title>SOFe_InfoAPI_CommonInfo</title>
<polygon fill="none" stroke="black" points="77,-159.55 0,-159.55 0,-123.55 77,-123.55 77,-159.55"/>
<text text-anchor="middle" x="38.5" y="-137.85" font-family="Times,serif" font-size="14.00">common</text>
</g>
<!-- _anon_edge_23 -->
<g id="node33" class="node">
<title>_anon_edge_23</title>
<polygon fill="none" stroke="black" points="294.82,-300.2 137.46,-282.2 294.82,-264.2 452.17,-282.2 294.82,-300.2"/>
<text text-anchor="middle" x="294.82" y="-278.5" font-family="Times,serif" font-size="14.00">infoapi.server.players</text>
</g>
<!-- SOFe_InfoAPI_CommonInfo&#45;&gt;_anon_edge_23 -->
<g id="edge47" class="edge">
<title>SOFe_InfoAPI_CommonInfo&#45;&gt;_anon_edge_23</title>
<path fill="none" stroke="black" d="M71.48,-159.65C119.6,-186.05 208.71,-234.95 258.59,-262.32"/>
<polygon fill="black" stroke="black" points="256.98,-265.43 267.43,-267.17 260.35,-259.3 256.98,-265.43"/>
</g>
<!-- SOFe_InfoAPI_PlayerInfo -->
<g id="node9" class="node">
<title>SOFe_InfoAPI_PlayerInfo</title>
<polygon fill="none" stroke="black" points="1788.8,-836.08 1726.8,-836.08 1726.8,-800.08 1788.8,-800.08 1788.8,-836.08"/>
<text text-anchor="middle" x="1757.8" y="-814.38" font-family="Times,serif" font-size="14.00">player</text>
</g>
<!-- _anon_edge_24 -->
<g id="node34" class="node">
<title>_anon_edge_24</title>
<polygon fill="none" stroke="black" points="1413.36,-753.38 1269.24,-735.38 1413.36,-717.38 1557.47,-735.38 1413.36,-753.38"/>
<text text-anchor="middle" x="1413.36" y="-731.68" font-family="Times,serif" font-size="14.00">infoapi.player.name</text>
</g>
<!-- SOFe_InfoAPI_PlayerInfo&#45;&gt;_anon_edge_24 -->
<g id="edge49" class="edge">
<title>SOFe_InfoAPI_PlayerInfo&#45;&gt;_anon_edge_24</title>
<path fill="none" stroke="black" d="M1726.63,-810.6C1669.37,-796.85 1546.59,-767.37 1472.89,-749.68"/>
<polygon fill="black" stroke="black" points="1473.37,-746.19 1462.83,-747.26 1471.74,-753 1473.37,-746.19"/>
</g>
<!-- _anon_edge_25 -->
<g id="node35" class="node">
<title>_anon_edge_25</title>
<polygon fill="none" stroke="black" points="1512.95,-768.59 1376.88,-750.59 1512.95,-732.59 1649.02,-750.59 1512.95,-768.59"/>
<text text-anchor="middle" x="1512.95" y="-746.89" font-family="Times,serif" font-size="14.00">infoapi.player.port</text>
</g>
<!-- SOFe_InfoAPI_PlayerInfo&#45;&gt;_anon_edge_25 -->
<g id="edge51" class="edge">
<title>SOFe_InfoAPI_PlayerInfo&#45;&gt;_anon_edge_25</title>
<path fill="none" stroke="black" d="M1726.79,-809.53C1686.7,-798.48 1616.22,-779.06 1567.18,-765.54"/>
<polygon fill="black" stroke="black" points="1567.94,-762.12 1557.37,-762.84 1566.08,-768.87 1567.94,-762.12"/>
</g>
<!-- _anon_edge_26 -->
<g id="node36" class="node">
<title>_anon_edge_26</title>
<polygon fill="none" stroke="black" points="1453.08,-676.27 1316.17,-658.27 1453.08,-640.27 1589.99,-658.27 1453.08,-676.27"/>
<text text-anchor="middle" x="1453.08" y="-654.57" font-family="Times,serif" font-size="14.00">infoapi.player.ping</text>
</g>
<!-- SOFe_InfoAPI_PlayerInfo&#45;&gt;_anon_edge_26 -->
<g id="edge53" class="edge">
<title>SOFe_InfoAPI_PlayerInfo&#45;&gt;_anon_edge_26</title>
<path fill="none" stroke="black" d="M1726.62,-801.73C1670.04,-772.05 1550.69,-709.46 1490.08,-677.68"/>
<polygon fill="black" stroke="black" points="1491.36,-674.39 1480.88,-672.85 1488.11,-680.59 1491.36,-674.39"/>
</g>
<!-- _anon_edge_27 -->
<g id="node37" class="node">
<title>_anon_edge_27</title>
<polygon fill="none" stroke="black" points="1433.47,-837.83 1283.83,-819.83 1433.47,-801.83 1583.12,-819.83 1433.47,-837.83"/>
<text text-anchor="middle" x="1433.47" y="-816.13" font-family="Times,serif" font-size="14.00">infoapi.player.health</text>
</g>
<!-- SOFe_InfoAPI_PlayerInfo&#45;&gt;_anon_edge_27 -->
<g id="edge55" class="edge">
<title>SOFe_InfoAPI_PlayerInfo&#45;&gt;_anon_edge_27</title>
<path fill="none" stroke="black" d="M1726.7,-818.25C1693.93,-818.43 1639.84,-818.72 1586.97,-819"/>
<polygon fill="black" stroke="black" points="1586.76,-815.5 1576.77,-819.06 1586.79,-822.5 1586.76,-815.5"/>
</g>
<!-- _anon_edge_28 -->
<g id="node38" class="node">
<title>_anon_edge_28</title>
<polygon fill="none" stroke="black" points="1514.03,-882.52 1379.64,-864.52 1514.03,-846.52 1648.42,-864.52 1514.03,-882.52"/>
<text text-anchor="middle" x="1514.03" y="-860.82" font-family="Times,serif" font-size="14.00">infoapi.player.yaw</text>
</g>
<!-- SOFe_InfoAPI_PlayerInfo&#45;&gt;_anon_edge_28 -->
<g id="edge57" class="edge">
<title>SOFe_InfoAPI_PlayerInfo&#45;&gt;_anon_edge_28</title>
<path fill="none" stroke="black" d="M1726.43,-824.06C1689.58,-831.08 1627.42,-842.92 1579.85,-851.98"/>
<polygon fill="black" stroke="black" points="1579.1,-848.56 1569.93,-853.87 1580.41,-855.43 1579.1,-848.56"/>
</g>
<!-- _anon_edge_29 -->
<g id="node39" class="node">
<title>_anon_edge_29</title>
<polygon fill="none" stroke="black" points="1458.79,-950.22 1317.19,-932.22 1458.79,-914.22 1600.39,-932.22 1458.79,-950.22"/>
<text text-anchor="middle" x="1458.79" y="-928.52" font-family="Times,serif" font-size="14.00">infoapi.player.pitch</text>
</g>
<!-- SOFe_InfoAPI_PlayerInfo&#45;&gt;_anon_edge_29 -->
<g id="edge59" class="edge">
<title>SOFe_InfoAPI_PlayerInfo&#45;&gt;_anon_edge_29</title>
<path fill="none" stroke="black" d="M1726.65,-829.97C1673.55,-850.24 1565.3,-891.56 1503.92,-914.99"/>
<polygon fill="black" stroke="black" points="1502.58,-911.76 1494.48,-918.59 1505.08,-918.3 1502.58,-911.76"/>
</g>
<!-- _anon_edge_30 -->
<g id="node40" class="node">
<title>_anon_edge_30</title>
<polygon fill="none" stroke="black" points="1869.27,-524.77 1734.04,-506.77 1869.27,-488.77 2004.51,-506.77 1869.27,-524.77"/>
<text text-anchor="middle" x="1869.27" y="-503.07" font-family="Times,serif" font-size="14.00">infoapi.player.nick</text>
</g>
<!-- SOFe_InfoAPI_PlayerInfo&#45;&gt;_anon_edge_30 -->
<g id="edge61" class="edge">
<title>SOFe_InfoAPI_PlayerInfo&#45;&gt;_anon_edge_30</title>
<path fill="none" stroke="black" d="M1764.28,-800C1783.03,-747.63 1837.44,-595.66 1859.66,-533.62"/>
<polygon fill="black" stroke="black" points="1862.98,-534.73 1863.06,-524.13 1856.39,-532.37 1862.98,-534.73"/>
</g>
<!-- _anon_edge_31 -->
<g id="node41" class="node">
<title>_anon_edge_31</title>
<polygon fill="none" stroke="black" points="2016.67,-581.91 1851.27,-563.91 2016.67,-545.91 2182.06,-563.91 2016.67,-581.91"/>
<text text-anchor="middle" x="2016.67" y="-560.21" font-family="Times,serif" font-size="14.00">infoapi.player.nametag</text>
</g>
<!-- SOFe_InfoAPI_PlayerInfo&#45;&gt;_anon_edge_31 -->
<g id="edge63" class="edge">
<title>SOFe_InfoAPI_PlayerInfo&#45;&gt;_anon_edge_31</title>
<path fill="none" stroke="black" d="M1776.42,-799.8C1822.4,-754.66 1941.32,-637.89 1992.57,-587.57"/>
<polygon fill="black" stroke="black" points="1995.23,-589.87 1999.91,-580.36 1990.33,-584.87 1995.23,-589.87"/>
</g>
<!-- _anon_edge_32 -->
<g id="node42" class="node">
<title>_anon_edge_32</title>
<polygon fill="none" stroke="black" points="1935.67,-590.97 1815.35,-572.97 1935.67,-554.97 2055.99,-572.97 1935.67,-590.97"/>
<text text-anchor="middle" x="1935.67" y="-569.27" font-family="Times,serif" font-size="14.00">infoapi.player.ip</text>
</g>
<!-- SOFe_InfoAPI_PlayerInfo&#45;&gt;_anon_edge_32 -->
<g id="edge65" class="edge">
<title>SOFe_InfoAPI_PlayerInfo&#45;&gt;_anon_edge_32</title>
<path fill="none" stroke="black" d="M1770.88,-800.06C1802.29,-756.78 1882.01,-646.91 1917.8,-597.6"/>
<polygon fill="black" stroke="black" points="1920.71,-599.55 1923.75,-589.4 1915.05,-595.43 1920.71,-599.55"/>
</g>
<!-- _anon_edge_33 -->
<g id="node43" class="node">
<title>_anon_edge_33</title>
<polygon fill="none" stroke="black" points="1744.22,-1149.36 1612.85,-1131.36 1744.22,-1113.36 1875.6,-1131.36 1744.22,-1149.36"/>
<text text-anchor="middle" x="1744.22" y="-1127.66" font-family="Times,serif" font-size="14.00">infoapi.player.eye</text>
</g>
<!-- SOFe_InfoAPI_PlayerInfo&#45;&gt;_anon_edge_33 -->
<g id="edge67" class="edge">
<title>SOFe_InfoAPI_PlayerInfo&#45;&gt;_anon_edge_33</title>
<path fill="none" stroke="black" d="M1757.01,-836.28C1754.74,-888.62 1748.19,-1039.85 1745.45,-1103.06"/>
<polygon fill="black" stroke="black" points="1741.95,-1102.97 1745.02,-1113.12 1748.95,-1103.28 1741.95,-1102.97"/>
</g>
<!-- _anon_edge_34 -->
<g id="node44" class="node">
<title>_anon_edge_34</title>
<polygon fill="none" stroke="black" points="1820.03,-1180.15 1743.95,-1162.15 1820.03,-1144.15 1896.11,-1162.15 1820.03,-1180.15"/>
<text text-anchor="middle" x="1820.03" y="-1158.45" font-family="Times,serif" font-size="14.00">(fallback)</text>
</g>
<!-- SOFe_InfoAPI_PlayerInfo&#45;&gt;_anon_edge_34 -->
<g id="edge69" class="edge">
<title>SOFe_InfoAPI_PlayerInfo&#45;&gt;_anon_edge_34</title>
<path fill="none" stroke="black" d="M1761.06,-836.1C1771.29,-892.66 1802.82,-1067.01 1815.08,-1134.79"/>
<polygon fill="black" stroke="black" points="1811.66,-1135.5 1816.88,-1144.72 1818.54,-1134.26 1811.66,-1135.5"/>
</g>
<!-- _anon_edge_35 -->
<g id="node45" class="node">
<title>_anon_edge_35</title>
<polygon fill="none" stroke="black" points="2133.96,-913.51 1951.13,-895.51 2133.96,-877.51 2316.78,-895.51 2133.96,-913.51"/>
<text text-anchor="middle" x="2133.96" y="-891.81" font-family="Times,serif" font-size="14.00">infoapi.player.blockBelow</text>
</g>
<!-- SOFe_InfoAPI_PlayerInfo&#45;&gt;_anon_edge_35 -->
<g id="edge71" class="edge">
<title>SOFe_InfoAPI_PlayerInfo&#45;&gt;_anon_edge_35</title>
<path fill="none" stroke="black" d="M1788.9,-824.48C1848.97,-836.85 1982.26,-864.29 2064.48,-881.21"/>
<polygon fill="black" stroke="black" points="2063.99,-884.68 2074.49,-883.27 2065.4,-877.83 2063.99,-884.68"/>
</g>
<!-- _anon_edge_36 -->
<g id="node46" class="node">
<title>_anon_edge_36</title>
<polygon fill="none" stroke="black" points="2099.91,-1007.81 1913.23,-989.81 2099.91,-971.81 2286.59,-989.81 2099.91,-1007.81"/>
<text text-anchor="middle" x="2099.91" y="-986.11" font-family="Times,serif" font-size="14.00">infoapi.player.blockFacing</text>
</g>
<!-- SOFe_InfoAPI_PlayerInfo&#45;&gt;_anon_edge_36 -->
<g id="edge73" class="edge">
<title>SOFe_InfoAPI_PlayerInfo&#45;&gt;_anon_edge_36</title>
<path fill="none" stroke="black" d="M1789.07,-833.78C1851.61,-865.17 1992,-935.64 2060.63,-970.09"/>
<polygon fill="black" stroke="black" points="2059.31,-973.35 2069.82,-974.71 2062.45,-967.09 2059.31,-973.35"/>
</g>
<!-- _anon_edge_0&#45;&gt;SOFe_InfoAPI_StringInfo -->
<g id="edge2" class="edge">
<title>_anon_edge_0&#45;&gt;SOFe_InfoAPI_StringInfo</title>
<path fill="none" stroke="black" d="M2119.34,-99.39C2072.01,-141.31 1971.96,-253.35 1935.65,-305.11"/>
<polygon fill="black" stroke="black" points="1932.71,-303.21 1930.01,-313.46 1938.51,-307.13 1932.71,-303.21"/>
</g>
<!-- _anon_edge_1&#45;&gt;SOFe_InfoAPI_StringInfo -->
<g id="edge4" class="edge">
<title>_anon_edge_1&#45;&gt;SOFe_InfoAPI_StringInfo</title>
<path fill="none" stroke="black" d="M2000.49,-34.8C1976.99,-85.91 1932.68,-239.58 1922.59,-303.37"/>
<polygon fill="black" stroke="black" points="1919.09,-303.12 1921.19,-313.5 1926.03,-304.07 1919.09,-303.12"/>
</g>
<!-- _anon_edge_2&#45;&gt;SOFe_InfoAPI_StringInfo -->
<g id="edge6" class="edge">
<title>_anon_edge_2&#45;&gt;SOFe_InfoAPI_StringInfo</title>
<path fill="none" stroke="black" d="M1577.86,-491.49C1648.39,-458.77 1812.64,-382.6 1886.08,-348.53"/>
<polygon fill="black" stroke="black" points="1887.81,-351.59 1895.41,-344.21 1884.86,-345.24 1887.81,-351.59"/>
</g>
<!-- _anon_edge_3&#45;&gt;SOFe_InfoAPI_StringInfo -->
<g id="edge8" class="edge">
<title>_anon_edge_3&#45;&gt;SOFe_InfoAPI_StringInfo</title>
<path fill="none" stroke="black" d="M1545.85,-432.24C1631.68,-409.31 1808.82,-361.98 1885.73,-341.43"/>
<polygon fill="black" stroke="black" points="1886.71,-344.79 1895.47,-338.82 1884.9,-338.02 1886.71,-344.79"/>
</g>
<!-- _anon_edge_4&#45;&gt;SOFe_InfoAPI_NumberInfo -->
<g id="edge10" class="edge">
<title>_anon_edge_4&#45;&gt;SOFe_InfoAPI_NumberInfo</title>
<path fill="none" stroke="black" d="M835.33,-579.3C892.01,-620.68 1046.46,-733.42 1114.56,-783.14"/>
<polygon fill="black" stroke="black" points="1112.67,-786.09 1122.81,-789.16 1116.79,-780.44 1112.67,-786.09"/>
</g>
<!-- _anon_edge_5&#45;&gt;SOFe_InfoAPI_NumberInfo -->
<g id="edge12" class="edge">
<title>_anon_edge_5&#45;&gt;SOFe_InfoAPI_NumberInfo</title>
<path fill="none" stroke="black" d="M927.46,-563.1C966.99,-606.95 1075.91,-727.76 1124.1,-781.21"/>
<polygon fill="black" stroke="black" points="1121.73,-783.81 1131.03,-788.89 1126.93,-779.12 1121.73,-783.81"/>
</g>
<!-- _anon_edge_6&#45;&gt;SOFe_InfoAPI_NumberInfo -->
<g id="edge14" class="edge">
<title>_anon_edge_6&#45;&gt;SOFe_InfoAPI_NumberInfo</title>
<path fill="none" stroke="black" d="M815.69,-746.13C894.98,-760.73 1030.5,-785.68 1101.34,-798.72"/>
<polygon fill="black" stroke="black" points="1100.84,-802.19 1111.31,-800.56 1102.1,-795.3 1100.84,-802.19"/>
</g>
<!-- _anon_edge_7&#45;&gt;SOFe_InfoAPI_NumberInfo -->
<g id="edge16" class="edge">
<title>_anon_edge_7&#45;&gt;SOFe_InfoAPI_NumberInfo</title>
<path fill="none" stroke="black" d="M807.37,-672.2C875.06,-699.07 1026.06,-759.01 1102.05,-789.16"/>
<polygon fill="black" stroke="black" points="1100.78,-792.43 1111.37,-792.87 1103.37,-785.92 1100.78,-792.43"/>
</g>
<!-- _anon_edge_8&#45;&gt;SOFe_InfoAPI_NumberInfo -->
<g id="edge18" class="edge">
<title>_anon_edge_8&#45;&gt;SOFe_InfoAPI_NumberInfo</title>
<path fill="none" stroke="black" d="M888.9,-655.34C938.07,-684.22 1048.72,-749.19 1108.11,-784.07"/>
<polygon fill="black" stroke="black" points="1106.44,-787.15 1116.84,-789.19 1109.99,-781.11 1106.44,-787.15"/>
</g>
<!-- _anon_edge_9&#45;&gt;SOFe_InfoAPI_NumberInfo -->
<g id="edge20" class="edge">
<title>_anon_edge_9&#45;&gt;SOFe_InfoAPI_NumberInfo</title>
<path fill="none" stroke="black" d="M929.54,-488.49C965.81,-541.5 1084.1,-714.45 1129.55,-780.9"/>
<polygon fill="black" stroke="black" points="1126.69,-782.91 1135.22,-789.19 1132.46,-778.96 1126.69,-782.91"/>
</g>
<!-- _anon_edge_10&#45;&gt;SOFe_InfoAPI_NumberInfo -->
<g id="edge22" class="edge">
<title>_anon_edge_10&#45;&gt;SOFe_InfoAPI_NumberInfo</title>
<path fill="none" stroke="black" d="M1356.76,-1080.86C1320,-1032.77 1212.36,-891.99 1167.53,-833.35"/>
<polygon fill="black" stroke="black" points="1170.24,-831.13 1161.38,-825.31 1164.68,-835.38 1170.24,-831.13"/>
</g>
<!-- _anon_edge_11&#45;&gt;SOFe_InfoAPI_NumberInfo -->
<g id="edge24" class="edge">
<title>_anon_edge_11&#45;&gt;SOFe_InfoAPI_NumberInfo</title>
<path fill="none" stroke="black" d="M1278.24,-1108.62C1255.64,-1056.49 1187.52,-899.4 1159.65,-835.11"/>
<polygon fill="black" stroke="black" points="1162.73,-833.41 1155.54,-825.62 1156.3,-836.19 1162.73,-833.41"/>
</g>
<!-- _anon_edge_12&#45;&gt;SOFe_InfoAPI_NumberInfo -->
<g id="edge26" class="edge">
<title>_anon_edge_12&#45;&gt;SOFe_InfoAPI_NumberInfo</title>
<path fill="none" stroke="black" d="M1286.4,-1183.32C1263.63,-1121.64 1185.76,-910.7 1157.73,-834.76"/>
<polygon fill="black" stroke="black" points="1161.01,-833.54 1154.26,-825.37 1154.44,-835.97 1161.01,-833.54"/>
</g>
<!-- _anon_edge_13&#45;&gt;SOFe_InfoAPI_WorldInfo -->
<g id="edge28" class="edge">
<title>_anon_edge_13&#45;&gt;SOFe_InfoAPI_WorldInfo</title>
<path fill="none" stroke="black" d="M1214.53,-1416.05C1166.16,-1377.8 1043.3,-1280.63 985.35,-1234.8"/>
<polygon fill="black" stroke="black" points="987.3,-1231.88 977.29,-1228.42 982.96,-1237.37 987.3,-1231.88"/>
</g>
<!-- _anon_edge_14&#45;&gt;SOFe_InfoAPI_NumberInfo -->
<g id="edge30" class="edge">
<title>_anon_edge_14&#45;&gt;SOFe_InfoAPI_NumberInfo</title>
<path fill="none" stroke="black" d="M1016.86,-969.52C1041.98,-938.34 1096.58,-870.54 1126.65,-833.2"/>
<polygon fill="black" stroke="black" points="1129.48,-835.26 1133.03,-825.28 1124.03,-830.87 1129.48,-835.26"/>
</g>
<!-- _anon_edge_15&#45;&gt;SOFe_InfoAPI_NumberInfo -->
<g id="edge32" class="edge">
<title>_anon_edge_15&#45;&gt;SOFe_InfoAPI_NumberInfo</title>
<path fill="none" stroke="black" d="M839.67,-1027.28C896.36,-986.77 1046.88,-879.19 1114.21,-831.07"/>
<polygon fill="black" stroke="black" points="1116.27,-833.9 1122.37,-825.24 1112.2,-828.2 1116.27,-833.9"/>
</g>
<!-- _anon_edge_16&#45;&gt;SOFe_InfoAPI_NumberInfo -->
<g id="edge34" class="edge">
<title>_anon_edge_16&#45;&gt;SOFe_InfoAPI_NumberInfo</title>
<path fill="none" stroke="black" d="M958.85,-1030.88C993.81,-989.44 1083.92,-882.66 1125.7,-833.15"/>
<polygon fill="black" stroke="black" points="1128.43,-835.33 1132.21,-825.43 1123.08,-830.82 1128.43,-835.33"/>
</g>
<!-- _anon_edge_17&#45;&gt;SOFe_InfoAPI_NumberInfo -->
<g id="edge36" class="edge">
<title>_anon_edge_17&#45;&gt;SOFe_InfoAPI_NumberInfo</title>
<path fill="none" stroke="black" d="M898.2,-1095.14C941.95,-1044.63 1072.41,-894 1125.11,-833.16"/>
<polygon fill="black" stroke="black" points="1127.82,-835.37 1131.72,-825.52 1122.53,-830.79 1127.82,-835.37"/>
</g>
<!-- _anon_edge_18&#45;&gt;SOFe_InfoAPI_NumberInfo -->
<g id="edge38" class="edge">
<title>_anon_edge_18&#45;&gt;SOFe_InfoAPI_NumberInfo</title>
<path fill="none" stroke="black" d="M1059.18,-1097.34C1074.69,-1046.43 1120.05,-897.52 1139.05,-835.18"/>
<polygon fill="black" stroke="black" points="1142.4,-836.2 1141.96,-825.61 1135.7,-834.16 1142.4,-836.2"/>
</g>
<!-- _anon_edge_19&#45;&gt;SOFe_InfoAPI_NumberInfo -->
<g id="edge40" class="edge">
<title>_anon_edge_19&#45;&gt;SOFe_InfoAPI_NumberInfo</title>
<path fill="none" stroke="black" d="M902.14,-943.9C949.63,-917.46 1049.36,-861.92 1105.98,-830.39"/>
<polygon fill="black" stroke="black" points="1107.98,-833.28 1115.02,-825.35 1104.58,-827.16 1107.98,-833.28"/>
</g>
<!-- _anon_edge_20&#45;&gt;SOFe_InfoAPI_StringInfo -->
<g id="edge42" class="edge">
<title>_anon_edge_20&#45;&gt;SOFe_InfoAPI_StringInfo</title>
<path fill="none" stroke="black" d="M2260.25,-358.53C2168.22,-351.18 2026.48,-339.84 1959.8,-334.51"/>
<polygon fill="black" stroke="black" points="1960.01,-331.01 1949.76,-333.71 1959.45,-337.99 1960.01,-331.01"/>
</g>
<!-- _anon_edge_21&#45;&gt;SOFe_InfoAPI_PositionInfo -->
<g id="edge44" class="edge">
<title>_anon_edge_21&#45;&gt;SOFe_InfoAPI_PositionInfo</title>
<path fill="none" stroke="black" d="M1939.56,-1282.32C1848.39,-1280.23 1690.68,-1276.61 1612.14,-1274.81"/>
<polygon fill="black" stroke="black" points="1612.13,-1271.31 1602.05,-1274.58 1611.97,-1278.31 1612.13,-1271.31"/>
</g>
<!-- _anon_edge_22&#45;&gt;SOFe_InfoAPI_BlockTypeInfo -->
<g id="edge46" class="edge">
<title>_anon_edge_22&#45;&gt;SOFe_InfoAPI_BlockTypeInfo</title>
<path fill="none" stroke="black" d="M2606.13,-832.63C2608.66,-782.76 2615.72,-643.14 2618.79,-582.61"/>
<polygon fill="black" stroke="black" points="2622.3,-582.43 2619.31,-572.26 2615.31,-582.07 2622.3,-582.43"/>
</g>
<!-- _anon_edge_23&#45;&gt;SOFe_InfoAPI_RatioInfo -->
<g id="edge48" class="edge">
<title>_anon_edge_23&#45;&gt;SOFe_InfoAPI_RatioInfo</title>
<path fill="none" stroke="black" d="M321.03,-297.23C383.26,-332.91 540.23,-422.91 614.78,-465.66"/>
<polygon fill="black" stroke="black" points="613.47,-468.94 623.88,-470.87 616.95,-462.86 613.47,-468.94"/>
</g>
<!-- _anon_edge_24&#45;&gt;SOFe_InfoAPI_NumberInfo -->
<g id="edge50" class="edge">
<title>_anon_edge_24&#45;&gt;SOFe_InfoAPI_NumberInfo</title>
<path fill="none" stroke="black" d="M1367.67,-747.73C1318.93,-760.91 1242.17,-781.66 1193.38,-794.85"/>
<polygon fill="black" stroke="black" points="1192.45,-791.47 1183.71,-797.46 1194.28,-798.23 1192.45,-791.47"/>
</g>
<!-- _anon_edge_25&#45;&gt;SOFe_InfoAPI_NumberInfo -->
<g id="edge52" class="edge">
<title>_anon_edge_25&#45;&gt;SOFe_InfoAPI_NumberInfo</title>
<path fill="none" stroke="black" d="M1450.14,-760.33C1377.31,-771.62 1258.99,-789.96 1193.99,-800.04"/>
<polygon fill="black" stroke="black" points="1193.37,-796.59 1184.03,-801.58 1194.45,-803.51 1193.37,-796.59"/>
</g>
<!-- _anon_edge_26&#45;&gt;SOFe_InfoAPI_NumberInfo -->
<g id="edge54" class="edge">
<title>_anon_edge_26&#45;&gt;SOFe_InfoAPI_NumberInfo</title>
<path fill="none" stroke="black" d="M1423.78,-672.55C1370.26,-698.65 1256.34,-754.2 1192.79,-785.18"/>
<polygon fill="black" stroke="black" points="1191.25,-782.04 1183.79,-789.57 1194.31,-788.33 1191.25,-782.04"/>
</g>
<!-- _anon_edge_27&#45;&gt;SOFe_InfoAPI_NumberInfo -->
<g id="edge56" class="edge">
<title>_anon_edge_27&#45;&gt;SOFe_InfoAPI_NumberInfo</title>
<path fill="none" stroke="black" d="M1323.75,-815C1278.8,-813.02 1229.2,-810.83 1194.11,-809.28"/>
<polygon fill="black" stroke="black" points="1193.85,-805.77 1183.71,-808.83 1193.55,-812.76 1193.85,-805.77"/>
</g>
<!-- _anon_edge_28&#45;&gt;SOFe_InfoAPI_NumberInfo -->
<g id="edge58" class="edge">
<title>_anon_edge_28&#45;&gt;SOFe_InfoAPI_NumberInfo</title>
<path fill="none" stroke="black" d="M1451.86,-854.8C1378.79,-843.38 1259.21,-824.68 1193.83,-814.46"/>
<polygon fill="black" stroke="black" points="1194.24,-810.99 1183.82,-812.9 1193.16,-817.9 1194.24,-810.99"/>
</g>
<!-- _anon_edge_29&#45;&gt;SOFe_InfoAPI_NumberInfo -->
<g id="edge60" class="edge">
<title>_anon_edge_29&#45;&gt;SOFe_InfoAPI_NumberInfo</title>
<path fill="none" stroke="black" d="M1424.59,-918.48C1368.27,-895.87 1255.97,-850.77 1193.02,-825.49"/>
<polygon fill="black" stroke="black" points="1194.32,-822.24 1183.73,-821.76 1191.71,-828.73 1194.32,-822.24"/>
</g>
<!-- _anon_edge_30&#45;&gt;SOFe_InfoAPI_StringInfo -->
<g id="edge62" class="edge">
<title>_anon_edge_30&#45;&gt;SOFe_InfoAPI_StringInfo</title>
<path fill="none" stroke="black" d="M1874.59,-489.33C1883.84,-459 1902.97,-396.28 1914.13,-359.71"/>
<polygon fill="black" stroke="black" points="1917.61,-360.29 1917.18,-349.7 1910.91,-358.24 1917.61,-360.29"/>
</g>
<!-- _anon_edge_31&#45;&gt;SOFe_InfoAPI_StringInfo -->
<g id="edge64" class="edge">
<title>_anon_edge_31&#45;&gt;SOFe_InfoAPI_StringInfo</title>
<path fill="none" stroke="black" d="M2009.6,-546.45C1993.43,-506.44 1953.58,-407.89 1933.98,-359.4"/>
<polygon fill="black" stroke="black" points="1937.11,-357.81 1930.12,-349.85 1930.62,-360.44 1937.11,-357.81"/>
</g>
<!-- _anon_edge_32&#45;&gt;SOFe_InfoAPI_StringInfo -->
<g id="edge66" class="edge">
<title>_anon_edge_32&#45;&gt;SOFe_InfoAPI_StringInfo</title>
<path fill="none" stroke="black" d="M1934.7,-554.83C1932.45,-513.04 1926.91,-409.78 1924.23,-359.69"/>
<polygon fill="black" stroke="black" points="1927.71,-359.37 1923.68,-349.57 1920.72,-359.74 1927.71,-359.37"/>
</g>
<!-- _anon_edge_33&#45;&gt;SOFe_InfoAPI_PositionInfo -->
<g id="edge68" class="edge">
<title>_anon_edge_33&#45;&gt;SOFe_InfoAPI_PositionInfo</title>
<path fill="none" stroke="black" d="M1724.69,-1146.87C1693.62,-1171.53 1632.71,-1219.88 1595.71,-1249.25"/>
<polygon fill="black" stroke="black" points="1593.4,-1246.61 1587.74,-1255.57 1597.75,-1252.09 1593.4,-1246.61"/>
</g>
<!-- _anon_edge_34&#45;&gt;SOFe_InfoAPI_PositionInfo -->
<g id="edge70" class="edge">
<title>_anon_edge_34&#45;&gt;SOFe_InfoAPI_PositionInfo</title>
<path fill="none" stroke="black" d="M1793.21,-1173.88C1749.99,-1192.77 1664.43,-1230.19 1611.2,-1253.47"/>
<polygon fill="black" stroke="black" points="1609.73,-1250.29 1601.97,-1257.5 1612.54,-1256.7 1609.73,-1250.29"/>
</g>
<!-- _anon_edge_35&#45;&gt;SOFe_InfoAPI_BlockInfo -->
<g id="edge72" class="edge">
<title>_anon_edge_35&#45;&gt;SOFe_InfoAPI_BlockInfo</title>
<path fill="none" stroke="black" d="M2152.17,-911.74C2184.23,-940.31 2250.95,-999.77 2288.91,-1033.59"/>
<polygon fill="black" stroke="black" points="2286.76,-1036.36 2296.55,-1040.4 2291.41,-1031.14 2286.76,-1036.36"/>
</g>
<!-- _anon_edge_36&#45;&gt;SOFe_InfoAPI_BlockInfo -->
<g id="edge74" class="edge">
<title>_anon_edge_36&#45;&gt;SOFe_InfoAPI_BlockInfo</title>
<path fill="none" stroke="black" d="M2143.56,-1003.64C2183.67,-1016.34 2242.44,-1034.96 2280.19,-1046.91"/>
<polygon fill="black" stroke="black" points="2279.19,-1050.27 2289.78,-1049.95 2281.3,-1043.59 2279.19,-1050.27"/>
</g>
</g>
</svg>
